<?xml version="1.0" encoding="utf-8"?>
<!-- Generator: Adobe Illustrator 25.0.0, SVG Export Plug-In . SVG Version: 6.00 Build 0)  -->
<svg version="1.1" id="Capa_1" xmlns="http://www.w3.org/2000/svg" xmlns:xlink="http://www.w3.org/1999/xlink" x="0px" y="0px"
	 viewBox="0 0 60 60" style="enable-background:new 0 0 60 60;" xml:space="preserve">
<style type="text/css">
	.st0{fill:#F7F4F2;}
</style>
<path class="st0" d="M48,8H12c-2.2,0-4,1.8-4,4v36c0,2.2,1.8,4,4,4h20V34h-6v-6h6v-3.2c0-6.1,3-8.8,8-8.8c2.4,0,3.7,0.2,4.3,0.3V22
	h-3.5c-2.2,0-2.9,1.1-2.9,3.4V28h6.3l-0.9,6H38v18h10c2.2,0,4-1.8,4-4V12C52,9.8,50.2,8,48,8z"/>
</svg>
