<svg xmlns="http://www.w3.org/2000/svg" viewBox="0 0 337.48 435.42"><defs><style>.cls-1{fill:#990810;}.cls-2{fill:#693737;}.cls-3{fill:#f8e1d9;}.cls-4{fill:#ffbb97;}.cls-5{fill:#ff4039;}</style></defs><title>isotiposvg</title><g id="Layer_2" data-name="Layer 2"><g id="Layer_5" data-name="Layer 5"><path class="cls-1" d="M114.16,282.31l-39,1.52-39-1.52s-7,43.47,11.55,89.75c5.07,1.21,8.11,1.16,12.35,0,0,0,6.1-9.16,7.88-30a45.32,45.32,0,0,0,7.25.66,45.32,45.32,0,0,0,7.25-.66c1.78,20.85,7.88,30,7.88,30,4.24,1.16,7.28,1.21,12.35,0C121.12,325.78,114.16,282.31,114.16,282.31Z"/><path class="cls-2" d="M34.82,304.44S37,354.77,49,369.26s27.64,11.82,36.61,26.31S77.67,422.9,66,422.9C32.92,422.92-23.79,372.71,34.82,304.44Z"/><path class="cls-3" d="M54.28,374.46c-14.05,2-22.81,15.86-28.47,28.6a67.52,67.52,0,0,0,15.84,12.58c1.76-13,6.65-29.49,18.29-37.37A42.53,42.53,0,0,1,54.28,374.46Z"/><path class="cls-3" d="M9.9,369.76a58,58,0,0,0,5.16,17.56c6.64-10.69,19.56-17,32.79-19.61a41.83,41.83,0,0,1-4.44-9.33C31.35,358.64,19.1,362.44,9.9,369.76Z"/><path class="cls-3" d="M85.62,395.57c-3.36-5.42-7.64-8.44-12.33-10.85-13.54,6.34-16.14,23.13-18.55,36.5A41.09,41.09,0,0,0,66,422.9C77.67,422.9,94.58,410.07,85.62,395.57Z"/><path class="cls-1" d="M19,216.08s-20.23-40.17-7.15-50.6,46.26,18.18,46.26,18.18Z"/><path class="cls-4" d="M26.14,202.42S16.35,183,22.68,178s22.37,8.79,22.37,8.79Z"/><path class="cls-1" d="M131.24,216.08s20.23-40.17,7.15-50.6-46.27,18.18-46.27,18.18Z"/><path class="cls-4" d="M124.12,202.42S133.91,183,127.58,178s-22.37,8.79-22.37,8.79Z"/><path class="cls-1" d="M150.26,247.22,140,235c-14.3-62.8-64.88-58.22-64.88-58.22S24.55,172.22,10.25,235L0,247.22l13,7.63-9.44,9.66s18.88,28,71.62,27.46c52.74.51,71.62-27.46,71.62-27.46l-9.44-9.66Z"/><path class="cls-3" d="M65.25,248.32a24.32,24.32,0,0,0-3.51,2.44h0C32.83,244.6,20.94,269,17.79,277.32c-10-6.55-14.28-12.81-14.28-12.81L13,254.85c11.87-22,20.58-14.11,20.58-14.11s2.21,1,15.3,1.14C55.71,242,61.41,245.22,65.25,248.32Z"/><path class="cls-2" d="M61.73,250.76c-8.84,7.31-15,21.58-15.67,38.24a87.29,87.29,0,0,1-28.27-11.68C20.94,269,32.83,244.6,61.73,250.76Z"/><path d="M52.3,242.16s-11.07-15.68-19.25-2.87c-2.42,4.64,3.08,8.67,7.39,8.55S50.56,244.53,52.3,242.16Z"/><path class="cls-3" d="M75.13,292a128,128,0,0,0,29.07-3c-1-24-13.57-43-29.07-43.41v0h-.51v0C59.39,246,47,265,46.06,289a123.7,123.7,0,0,0,28.56,3h.51Z"/><path class="cls-3" d="M85,248.32a24.32,24.32,0,0,1,3.51,2.44h0c28.9-6.16,40.79,18.23,43.94,26.56,10.05-6.55,14.28-12.81,14.28-12.81l-9.44-9.66c-11.87-22-20.58-14.11-20.58-14.11s-2.21,1-15.3,1.14C94.55,242,88.85,245.22,85,248.32Z"/><path class="cls-2" d="M88.53,250.76c8.84,7.31,15,21.58,15.67,38.24a87.29,87.29,0,0,0,28.27-11.68C129.32,269,117.43,244.6,88.53,250.76Z"/><path d="M98,242.16s11.07-15.68,19.25-2.87c2.42,4.64-3.08,8.67-7.39,8.55S99.69,244.53,98,242.16Z"/><path d="M75.13,269.39c-2.23,0-4.91-7.84-5.93-11.1a1.68,1.68,0,0,1,1.17-2,14,14,0,0,1,9.52,0,1.68,1.68,0,0,1,1.17,2C80,261.55,77.36,269.39,75.13,269.39Z"/><path d="M31.67,230.92s.58-6.84,6.58-7.14,3.39,5.25.24,4.43S32.63,232.3,31.67,230.92Z"/><path d="M118.58,230.92s-.57-6.84-6.57-7.14-3.39,5.25-.24,4.43S117.63,232.3,118.58,230.92Z"/><path class="cls-5" d="M277.74,168.92H158.49s-26.56,70.73,36.12,200.9a7,7,0,0,0,6.63,0s2.81-33.95,0-55.44c0,0,11.45,1.81,16.87,2.11,5.43-.3,16.88-2.11,16.88-2.11-2.82,21.49,0,55.44,0,55.44a7,7,0,0,0,6.63,0C304.29,239.65,277.74,168.92,277.74,168.92Z"/><path class="cls-5" d="M273.46,0V62c-16.78-11.45-55.35-11.35-55.35-11.35s-38.57-.1-55.34,11.35V0s-49.5,43.23-44,121a52.46,52.46,0,0,0,10.36,27.72c26.94,35.94,76.85,89.2,89,89.2s62-53.26,88.95-89.2A52.37,52.37,0,0,0,317.42,121C323,43.23,273.46,0,273.46,0Z"/><path class="cls-3" d="M218.11,237.94c-12.1,0-62-53.25-88.94-89.21a52.54,52.54,0,0,1-9.49-21.19c17,.37,68.25,4.62,78.92,41.38v0C209.7,206.53,218.11,237.94,218.11,237.94Z"/><path class="cls-1" d="M198.6,168.92c-10.67-36.76-61.89-41-78.92-41.38a50.67,50.67,0,0,1-.88-6.51c-5.52-77.82,44-121,44-121V62C173.44,86.4,187.4,130.82,198.6,168.92Z"/><path d="M177.53,141.77s-6.62-20.89-33.54-12.05C144,129.72,157.45,153,177.53,141.77Z"/><path d="M135.94,114.52s.9-7.89,10.39-8.24,5.35,6.06.38,5.12S137.45,116.11,135.94,114.52Z"/><path class="cls-3" d="M218.11,237.94c12.11,0,62-53.25,88.94-89.21a52.69,52.69,0,0,0,9.5-21.19c-17,.37-68.25,4.62-78.93,41.38v0C226.52,206.53,218.11,237.94,218.11,237.94Z"/><path class="cls-1" d="M237.62,168.92c10.68-36.76,61.9-41,78.93-41.38a52.48,52.48,0,0,0,.87-6.51c5.53-77.82-44-121-44-121V62C262.78,86.4,248.82,130.82,237.62,168.92Z"/><path d="M218.11,199.05c-3.65.54-7.25,1-9.86,3.25,6,21.11,9.86,35.64,9.86,35.64S222,223.41,228,202.3C225.37,200.1,221.77,199.59,218.11,199.05Z"/><path d="M258.69,141.77s6.63-20.89,33.55-12.05C292.24,129.72,278.78,153,258.69,141.77Z"/><path d="M300.29,114.52s-.91-7.89-10.4-8.24-5.35,6.06-.38,5.12S298.78,116.11,300.29,114.52Z"/><path class="cls-1" d="M283.18,204.65S287.6,258.13,247.44,356c-11.74,28.62-32.37,52.86-59.29,68.1a102.05,102.05,0,0,1-10.62,5.35S281.3,461.43,325,377.06,283.18,204.65,283.18,204.65Z"/><path class="cls-3" d="M324.53,378c-44,83.22-147,51.51-147,51.51a102.66,102.66,0,0,0,10.63-5.35,135.66,135.66,0,0,0,46.1-43.22c.05,7.91-.6,18.16-4.09,22.35l33.44-12.35L262.11,409S290.18,413.09,324.53,378Z"/></g></g></svg>