<svg id="Layer_5" data-name="Layer 5" xmlns="http://www.w3.org/2000/svg" viewBox="0 0 841.89 445.92"><defs><style>.cls-1{fill:#990810;}.cls-2{fill:#693737;}.cls-3{fill:#f8e1d9;}.cls-4{fill:#ffbb97;}.cls-5{fill:#ff4039;}.cls-6{fill:#f4f4f4;}</style></defs><title>LogoAkaSushiBlanco</title><path class="cls-1" d="M114.51,290.63l-39,1.53-39-1.53s-7,43.48,11.55,89.75c5.07,1.21,8.11,1.16,12.35,0,0,0,6.1-9.15,7.88-30a46,46,0,0,0,7.25.65,46,46,0,0,0,7.24-.65c1.78,20.85,7.88,30,7.88,30,4.24,1.16,7.29,1.21,12.35,0C121.48,334.11,114.51,290.63,114.51,290.63Z"/><path class="cls-2" d="M35.18,312.76s2.17,50.33,14.18,64.82S77,389.41,86,403.9,78,431.23,66.33,431.23C33.28,431.24-23.43,381,35.18,312.76Z"/><path class="cls-3" d="M54.63,382.78c-14,2-22.8,15.86-28.46,28.6A67.27,67.27,0,0,0,42,424c1.75-12.95,6.65-29.49,18.29-37.37A41.67,41.67,0,0,1,54.63,382.78Z"/><path class="cls-3" d="M10.26,378.08a57.88,57.88,0,0,0,5.16,17.57C22.06,385,35,378.64,48.21,376a41.71,41.71,0,0,1-4.44-9.34C31.71,367,19.45,370.76,10.26,378.08Z"/><path class="cls-3" d="M86,403.9c-3.35-5.42-7.64-8.44-12.32-10.86-13.55,6.35-16.14,23.13-18.55,36.51a41.74,41.74,0,0,0,11.23,1.68C78,431.23,94.94,418.39,86,403.9Z"/><path class="cls-1" d="M19.38,224.4s-20.24-40.17-7.15-50.59S58.49,192,58.49,192Z"/><path class="cls-4" d="M26.49,210.75S16.71,191.32,23,186.28s22.37,8.79,22.37,8.79Z"/><path class="cls-1" d="M131.6,224.4s20.23-40.17,7.15-50.59S92.48,192,92.48,192Z"/><path class="cls-4" d="M124.48,210.75s9.78-19.43,3.46-24.47-22.37,8.79-22.37,8.79Z"/><path class="cls-1" d="M150.62,255.55l-10.26-12.21c-14.29-62.8-64.87-58.22-64.87-58.22s-50.58-4.58-64.88,58.22L.36,255.55l13,7.62-9.45,9.66s18.89,28,71.63,27.46c52.74.51,71.62-27.46,71.62-27.46l-9.44-9.66Z"/><path class="cls-3" d="M65.61,256.64a23.85,23.85,0,0,0-3.51,2.45h0c-28.9-6.17-40.78,18.23-43.94,26.55-10-6.54-14.28-12.81-14.28-12.81l9.45-9.66c11.87-22,20.57-14.11,20.57-14.11s2.22,1,15.3,1.15C56.06,250.27,61.76,253.54,65.61,256.64Z"/><path class="cls-2" d="M62.08,259.09c-8.83,7.31-15,21.58-15.66,38.23a87.14,87.14,0,0,1-28.28-11.68C21.3,277.32,33.18,252.92,62.08,259.09Z"/><path d="M52.65,250.48s-11.07-15.68-19.24-2.87c-2.43,4.65,3.07,8.68,7.39,8.56S50.92,252.86,52.65,250.48Z"/><path class="cls-3" d="M75.49,300.29a127.34,127.34,0,0,0,29.06-3c-1-24-13.57-43-29.06-43.41v0H75v0c-15.23.42-27.61,19.43-28.56,43.41a123,123,0,0,0,28.56,3h.51Z"/><path class="cls-3" d="M85.37,256.64a24.31,24.31,0,0,1,3.5,2.45h0c28.9-6.17,40.79,18.23,43.94,26.55,10-6.54,14.28-12.81,14.28-12.81l-9.44-9.66c-11.87-22-20.58-14.11-20.58-14.11s-2.22,1-15.3,1.15C94.91,250.27,89.21,253.54,85.37,256.64Z"/><path class="cls-2" d="M88.89,259.09c8.84,7.31,15,21.58,15.66,38.23a87.14,87.14,0,0,0,28.28-11.68C129.68,277.32,117.79,252.92,88.89,259.09Z"/><path d="M98.32,250.48s11.07-15.68,19.24-2.87c2.43,4.65-3.07,8.68-7.39,8.56S100.05,252.86,98.32,250.48Z"/><path d="M75.49,277.71c-2.23,0-4.92-7.84-5.94-11.09a1.67,1.67,0,0,1,1.18-2,14,14,0,0,1,9.52,0,1.68,1.68,0,0,1,1.17,2C80.4,269.87,77.72,277.71,75.49,277.71Z"/><path d="M32,239.25s.57-6.85,6.58-7.15,3.38,5.25.24,4.44S33,240.63,32,239.25Z"/><path d="M118.94,239.25s-.57-6.85-6.58-7.15-3.38,5.25-.24,4.44S118,240.63,118.94,239.25Z"/><path class="cls-5" d="M278.1,177.24H158.84S132.29,248,195,378.15a7,7,0,0,0,6.63,0s2.81-33.95,0-55.44c0,0,11.45,1.8,16.87,2.1,5.42-.3,16.87-2.1,16.87-2.1-2.81,21.49,0,55.44,0,55.44a7,7,0,0,0,6.63,0C304.65,248,278.1,177.24,278.1,177.24Z"/><path class="cls-5" d="M273.81,8.32v62C257,58.85,218.47,59,218.47,59s-38.57-.1-55.34,11.35v-62s-49.51,43.23-44,121a52.37,52.37,0,0,0,10.36,27.71c26.94,35.95,76.85,89.21,88.95,89.21s62-53.26,89-89.21a52.37,52.37,0,0,0,10.36-27.71C323.32,51.55,273.81,8.32,273.81,8.32Z"/><path class="cls-3" d="M218.47,246.27c-12.1,0-62-53.26-88.94-89.22A52.48,52.48,0,0,1,120,135.86c17,.38,68.25,4.62,78.92,41.38v0C210.06,214.86,218.47,246.27,218.47,246.27Z"/><path class="cls-1" d="M199,177.24c-10.67-36.76-61.9-41-78.92-41.38a50.52,50.52,0,0,1-.88-6.5c-5.53-77.82,44-121,44-121v62C173.8,94.73,187.76,139.15,199,177.24Z"/><path d="M177.89,150.09S171.26,129.2,144.34,138C144.34,138,157.8,161.34,177.89,150.09Z"/><path d="M136.3,122.85s.9-7.9,10.39-8.24,5.35,6,.38,5.11S137.8,124.44,136.3,122.85Z"/><path class="cls-3" d="M218.47,246.27c12.1,0,62-53.26,88.94-89.22a52.48,52.48,0,0,0,9.49-21.19c-17,.38-68.25,4.62-78.92,41.38v0C226.88,214.86,218.47,246.27,218.47,246.27Z"/><path class="cls-1" d="M238,177.24c10.67-36.76,61.9-41,78.92-41.38a50.52,50.52,0,0,0,.88-6.5c5.52-77.82-44-121-44-121v62C263.14,94.73,249.18,139.15,238,177.24Z"/><path d="M218.47,207.37c-3.66.55-7.26,1.06-9.87,3.26,6,21.11,9.87,35.64,9.87,35.64s3.89-14.53,9.86-35.64C225.73,208.43,222.12,207.92,218.47,207.37Z"/><path d="M259.05,150.09S265.68,129.2,292.6,138C292.6,138,279.14,161.34,259.05,150.09Z"/><path d="M300.64,122.85s-.9-7.9-10.39-8.24-5.35,6-.38,5.11S299.14,124.44,300.64,122.85Z"/><path class="cls-1" d="M283.53,213S288,266.45,247.8,364.36c-11.74,28.63-32.38,52.86-59.29,68.11a103,103,0,0,1-10.62,5.34s103.77,31.94,147.5-52.43S283.53,213,283.53,213Z"/><path class="cls-3" d="M324.89,386.31c-44,83.21-147,51.5-147,51.5a103.26,103.26,0,0,0,10.62-5.35,135.76,135.76,0,0,0,46.11-43.21c0,7.91-.61,18.15-4.1,22.35L264,399.24l-1.51,18.08S290.54,421.41,324.89,386.31Z"/><path class="cls-6" d="M433.85,2q.16,1.4,9.95,3.32a3.83,3.83,0,0,1,.87,2.09l1.4-.87h1q7.51,0,19.21,17.11a37.43,37.43,0,0,1,1.57,5.59l-1.39.17q-.36-3.48-6.12-12.39h-.69l.17.7,4,7.16-.35,3.49L464.58,34a4.75,4.75,0,0,0,1,2.62,3.52,3.52,0,0,0-.35,1.57,5.07,5.07,0,0,0,.18,1.23,28,28,0,0,1,1.22,4.19,1.12,1.12,0,0,0-1.05,1.22,3.22,3.22,0,0,0,.18,1l-1.4.17a7.49,7.49,0,0,0-1.22-2.79l.87-3.67c-.11-.35-.29-.52-.52-.52h-.18v-2.8a44.75,44.75,0,0,0-3.84-11.34h-.7l.35,2.09.88,1.4c-.82.23-1.23.69-1.23,1.39v.18l1.05,6.11h.52c.59,0,.88.17.88.52l.7,2.8-.7.17c-.47-1.86-.88-2.79-1.22-2.79-1.17.58-1.75,1.1-1.75,1.57v.17a.46.46,0,0,0,.52.53H459c.11,2,.17,3.55.17,4.71,0,1.51-.11,2.33-.35,2.44a.47.47,0,0,0,.53.53h.17l-.17,3.67.52,2.79-1.4.17-.52-2.09q-.87.18-.87,1.74a15.58,15.58,0,0,0,.17,1.93,5.78,5.78,0,0,0,1.75.34h.35a5.54,5.54,0,0,1,.17,1.23,2.39,2.39,0,0,1-2.27,2.61l.7,4.89-1.4-.34.18,1.22,1.74,1.92-1.39.18.17,1.39,1.4-.18.17.71q-1.21,0-1.92,1.56l.88,1.23-.88,2.27v.7l1.4-.18.17,1.4V76c0,.7-.81,1.52-2.44,2.45l1.05,1.22v.7l-1.4.35.18,1.39H456c.7,0,1.75.94,3.14,2.8l1.4.52.35-2.79.7-.18.35,2.1q-3,3.84-3,7a4.15,4.15,0,0,0,.17,1.23,4.15,4.15,0,0,0-1.57-.36,1.69,1.69,0,0,0-.7.18l-.17-.7c1.16-.23,1.74-1.28,1.74-3.14a8.51,8.51,0,0,0-.17-1.57.82.82,0,0,0-.7.87l-1.4-.35h-.69v1c0,1.63-.53,2.56-1.57,2.79a.84.84,0,0,0-.88-.7l.17,1.4,1.4-.18v2.63a18.1,18.1,0,0,1-.35,4.53l.53,2.1a.46.46,0,0,0-.53.52v.18a29,29,0,0,1,.18,3.31,57.68,57.68,0,0,1-1.92,13.28l-1.4.17v-.7c0-2.32.53-3.55,1.57-3.67-.93-1.62-1.74-2.44-2.44-2.44h-.17v.7l1,1.22c-.7.12-1,.82-1,2.1a7.88,7.88,0,0,0,.17,1.57l-1.4.35v-.7l.35-1.57-.7.17a4.87,4.87,0,0,1-.17-1.22,3.31,3.31,0,0,1,3-3.67H452l-.18-1.39c-.12-.7-.64-1-1.57-1h-.7l-.7-3.32,1.4-.17.52,1.74c.7-.11,1.05-.46,1.05-1v-.53l-.17-1.4-1.4.53a34.93,34.93,0,0,0,.52-5.07,5.59,5.59,0,0,0-.17-1.57l-.88-1.22a5.49,5.49,0,0,0,.36-2.1v-.69Q448,94,448,103.79l-1.4.18-.17-2.1.52-1.39h-.17c-.7,0-1.58-1-2.62-3.15l.7-.17,1.57.52V96.46a6.32,6.32,0,0,1,.69-3.14l-.69.17.35-1.57-.53-4.19-2.44,3.14.87,1.4-.17,1.4q.53,0,.69.69c-.69,0-1.28.82-1.74,2.45h.17a.47.47,0,0,1,.53.52l-1.4.35,1.92,1.75.18,1.92q-1.05.18-1.05,1.74a5.54,5.54,0,0,0,.17,1.23L442.4,104l.18,1.39L444,105l.18.7-1.4.34,1.22,3.32v.18c0,.81-.64,1.34-1.92,1.57l.53,2.09,1.22-.35.52,2.8v.17c0,.7-.58,1.46-1.74,2.27l1.22,3.49-.35,1.4.87,1.22a8.29,8.29,0,0,0-.52,2.27,4.39,4.39,0,0,1,1.22,1.75c.58,0,1.05-1.22,1.4-3.67a.84.84,0,0,0-.88-.7v-1.39q0-4.89,1.23-5.07v.7a88.14,88.14,0,0,1,.34,10.65l1.58.52.52-1.57,1.4.53.69-.17-.52-2.8,1.4-.18-.17,3.5,3.66.17a33.34,33.34,0,0,0,.87-7.16l-1.4-.52v-1q0-4.71,1.58-7l-.35-1.4-.87-1.22c.81-.12,1.22-.52,1.22-1.23v-.34l1.4-.35a5.55,5.55,0,0,0,1.74,2.62c-1.16.11-2,2.15-2.62,6.11a10,10,0,0,0,2.27.35,4.93,4.93,0,0,1,.18,1.22,2.15,2.15,0,0,1-1.75,2.44l.18.7,1,3.32a14.9,14.9,0,0,1-1.92,1.22l.35,1.22h.35a7.29,7.29,0,0,1,1.92.36l4-1.23.17,2.1h-.52l-1.57-.53.34,2.79,1.4-.17.18.7-1.4.18.35,2.09,1.39-.17.18.69q-2.26,3.33-2.27,3.84h.7Q459,144.3,459,145.17l.17,1.4,1.75-1.74a.81.81,0,0,0,.87.69l-.17-1.4.69-.17.71,4.19-2.8.35.17.7a5.92,5.92,0,0,0,1.05,2.8l-.87,3.48.87,1.4a8.21,8.21,0,0,0-.7,3.32,8.58,8.58,0,0,0,.36,2.44l.87,4.72,1.05-.18-.18-2.09c.93.11,1.45.52,1.57,1.22V170a.82.82,0,0,1-.87-.7,1.85,1.85,0,0,0-1.75,1.92v.52l-1.4.18-.17-1.4h-.7V171c0,.58-.17.93-.52,1l.87,1.22-.35,1.58q3.15,6.1,3.5,9.42-1.41,0-4.89-9.77h-.18c-.81,0-1.46-1.11-1.92-3.32l-.7.17c-.82.24-1.22.7-1.22,1.4v.18l1.4-.18.17.52c-.81.24-1.22.53-1.22.88v.17a57,57,0,0,0,2.27,5.94l-1.4.17c-1.39-4-2.38-5.93-3-5.93l.35-1.4-1.22-4.19a4.09,4.09,0,0,0,.35-1.4,1.59,1.59,0,0,0-.17-.69l1.39-.18h.17a.7.7,0,0,1,.71.52,6.37,6.37,0,0,1,3.31-1c1.16,2.44,2,3.66,2.62,3.66H460l-.53-3.49L458.29,163a6.17,6.17,0,0,1,1.92-1v-.7h-.52a10.67,10.67,0,0,1-1.75-.18q.35-4.19.35-5.76v-.87l-1.05-1.05c0-2.79.29-4.31.88-4.54l-.88-1.22-.17-.7.52-1.4-2.27-1-1.39.17.34,7,1.05,7,1.4,3.32-1.22.87-.88-1.22-.69-2.8.52-1.57-1.4.18.53-1.4-1.05-7,.52-1.4-2.44-1.05-.7.18v.69a4.18,4.18,0,0,1-1.4,3l2.27,5.42a5.68,5.68,0,0,0-.35,2.09v.7l1.4-.35.35,2.09-1.22.35.17,1.4h.35a5.79,5.79,0,0,1,1.74.35.82.82,0,0,1,.71-.87l.87,1.22c-.7.12-1.58.93-2.62,2.44l-.7.18h-.35c-.7,0-1.11-.58-1.22-1.75l-1.4.87-.7.18a22.3,22.3,0,0,1-1.39-4.89l-.7.18,1.57,9.77.87,1.23,1.4-.88.7-.17.35,2.79c-1.17.23-1.75.7-1.75,1.4v.35a6.87,6.87,0,0,0,1.57.17,12.29,12.29,0,0,0,1.92-.17v.17c0,.82-.64,1.4-1.92,1.75l.35,2.09,1.23-1.05.69-.17.18,1.4-1.4.17,1.57,4.72A24.17,24.17,0,0,1,444,171l-.87-4.89,1.4-.35-.18-1.23-1.22.88-.7.17,1.05-2.27h-.18q-1.92,0-4-8.55-4,2.79-5.94,3l-.17-2.1a22.16,22.16,0,0,0-7.33,4h-1.23a13.48,13.48,0,0,1-5.93-1l-2.1.52c-.24-1.16-1.22-1.74-3-1.74a8.13,8.13,0,0,0-1.4.17,40.33,40.33,0,0,0-3,14.84,30.21,30.21,0,0,0,.52,5.59,4.66,4.66,0,0,1-2.09.87l-1.4-.52-2.1.35c-.11-.47-1.8-.87-5.06-1.23l.17,1.4h-.69L393.34,177v.35c0,1.16-.41,1.81-1.23,1.92l-.17-2.09-1.4.17-3.31,1.4q-.53-2.44-6.12-2.45h-1.39c-.24-1.05-2.5-3.49-6.81-7.33a21.61,21.61,0,0,0-1.4-4q3.33-19,14.32-51.16.18-3.31,6.11-15.19h-.17a.47.47,0,0,1-.53-.53q1.39-.16,13.1-28.28,6.63-20.08,14-28.46h.7l1.39.52c0-2,.58-3,1.75-3.14l1.92-.53,3.14,1.75a.62.62,0,0,1,.7-.7v.7l1.39-1,1.4-.17c.24,2,1.28,3,3.15,3h.69l.18.69a.62.62,0,0,1-.7.7,7.61,7.61,0,0,1,1.22,2.8q1-.34,1.05-1.23v-.52l-.87-1.22a7.64,7.64,0,0,0,2.79-1.22c.93,1.63,1.69,2.44,2.27,2.44h.18c.35-.46.52-1.63.52-3.49a100.91,100.91,0,0,0-.88-11.18q-1.56-11.34-12.74-18.51a5.48,5.48,0,0,1,1.92-1.21,3.94,3.94,0,0,0-1.05-2.45A6.24,6.24,0,0,1,433.85,2ZM380.59,150.76l-.17,3.49,1.4-.17.17-3.49Zm1.57-3.14.35,1.4.7-.18-.35-1.22Zm2.1-8.91,1.4-.17-.18-1.4c-.81.24-1.22.7-1.22,1.4Zm.52,11.88L385,152h.7l-.18-1.4Zm1.05-16.24.17,1.4.7-.18-.35-1.4Zm1.4-3.84.17.69c.82-.11,1.22-.52,1.22-1.21v-.36l-.17-.69c-.82.23-1.22.69-1.22,1.39Zm4.88-13.62,1.4-.18-.17-1.39c-.82.35-1.23.81-1.23,1.39Zm.71,9.25.52,1.93H394l-.52-2.1Zm1.57-4.54-.53,1.57h.35a5.9,5.9,0,0,1,1.75.35v-.69c-.12-.82-.53-1.23-1.22-1.23Zm.35-10.65.17,1.4.7-.18-.18-1.22Zm15.53,30.73,2.1-.35-.35-2.09-.7.17c-.7.24-1.05.64-1.05,1.22Zm1.4-8.73,1.05,1.22a6.91,6.91,0,0,0-.53,2.27c.71-.11,1.23-1.16,1.58-3.14h-.35A5.54,5.54,0,0,1,411.67,133Zm1.75-38.41-.35,2.79c.7-.11,1-.63,1-1.57v-1.4Zm22.87-20.6c-.93,3.84-1.81,5.82-2.62,5.94l-.17-.71.35-2.79-.18-.7-.7.18V76q0,1.75-4.19,9.61l.35,1.39q.87-.16,2.8-4.71l.87,1.22-.87,3h.69l2.27-3.15.18,1.4q0,1.41-12.92,38.07a43.81,43.81,0,0,0-3.49,13.26l-1.92,1.75a5.9,5.9,0,0,0-1.75-.35h-.53l-.52,1.4.35,1.39q1.05-1.56,16.59-7v-.18a.46.46,0,0,1,.52-.52l.35,1.4,1.4-.17a3.27,3.27,0,0,1-.18-1.05,1.12,1.12,0,0,1,1-1.22l1.57.52q1.4-.53,1.4-18.16v-7.68q2.63-24.45,2.79-32.3l-1.22.87-.18-1.4Zm-22.18,55.87.18,1.39.7-.17-.17-1.4Zm.18-38.24.17,1.4.7-.17L415,91.4Zm4.37,22.52v.53c0,1.74-.88,3.66-2.62,5.76l1,1.05a8.61,8.61,0,0,0-.52,2.27c.7-.12,1.51-1.22,2.45-3.32L418,119.16l1.92-1.57v1.57a9.49,9.49,0,0,1-.18,1.92l.18.7.7-.18,1.22-5.06-1.4.17-.17-1.39.52-1.4Zm-1.4,13.62.17,1.4,1.4-.17-.17-1.4Zm.87-3,.18,1.39h.7l-.18-1.39Zm1.4-13.62v.7c.35.81.81,1.22,1.4,1.22h.17a.62.62,0,0,1,.7-.7l.35,1.4.7-.18a1.37,1.37,0,0,0,1-1.4v-.34l-.35-2.1-1.92,1.92-.17-1.4A3.77,3.77,0,0,1,419.53,111.13Zm.35-32.48.17.7a1.41,1.41,0,0,0,1.22-1.4v-.17l-.17-.7a1.41,1.41,0,0,0-1.22,1.4ZM422,105.19l.7,2.8a1.52,1.52,0,0,1,.7-.18,3.92,3.92,0,0,1,1.4.35l-.18-.7a6.6,6.6,0,0,1-1-1.92.69.69,0,0,0,.53-.7v-.17Zm.53-2.27.17,1.4.7-.18-.18-1.22Zm1-2.27.35,2.62h.7v-.7a7.25,7.25,0,0,1,.35-2.27Zm1.92,3.14.18,1.4h.7l-.18-1.4Zm.18-7c.81-.11,1.22-.53,1.22-1.22v-1a1.42,1.42,0,0,0-1.22,1.4Zm1.57,4v.69l1.4-.17-.18-.7-1.05-1.4,1.75-3.66-.17-.7C427.79,95,427.21,97,427.21,100.83Zm.17-11.35,2.1-.35-.18-1.4-.69.18c-.82.23-1.23.69-1.23,1.39Zm3.32-2.1.18,2.1c.81-.12,1.22-.53,1.22-1.23v-1Zm2.8-13.09.17.7h.52c1.05-.24,1.58-1.34,1.58-3.32v-.53C435.07,71.26,434.31,72.31,433.5,74.29Zm1,7,1.4-.18.17.71v.34c0,.7-.4,1.11-1.22,1.22Zm.53,74.2.7-.17q3.84-1.22,3.84-2.62v-.17l-.18-.7-.69.18Q435.07,154.26,435.07,155.47Zm2.09-79.79h.7l.18.7c-.59,2.91-1.29,4.49-2.1,4.71V79C435.94,77,436.35,75.92,437.16,75.68Zm-1.05-7.33.18,1.4.7-.35-.18-1.4Zm1.05-2.44.18,1.39.7-.17-.18-1.4Zm0,4.89.35,2.09.7-.17v-.35a5.84,5.84,0,0,1,.35-1.75Zm.35-2.1q.35,1,1.23,1h.35l-.18-1.23Zm.53-5.06.17.69L440.3,64l-.17-.69Zm.7,3.49,1.39-.17-.17-1.4a1.4,1.4,0,0,0-1.22,1.4Zm.69,57.79.35,2.1h.7l-.35-2.1Zm1.4,30.91.18.69,1.39-.17-.18-.7Zm1.05,2.79.52,2.79.7-.17-.52-2.8Zm.17-44.53v.7l1.4-.35v-.52Zm0,9.78.35,2.1h.7l-.35-2.1Zm.17-8.55.18,1.39h.7l-.17-1.39Zm3.5-43.65,1,1.22L444,83.19h.53c.58,0,.93.17,1,.53v3.49l.7-.18c.58,0,1.22-1.68,1.92-5.06l-.35-2.09a.62.62,0,0,0-.7-.71,25.49,25.49,0,0,0,.7-5.93,21.87,21.87,0,0,0-.35-4C447.11,69.22,446.53,70,445.72,71.67ZM444.5,156l1,3.32h.7l-.35-2.8,1.4-.17.52,4h.7c-.12-1.39-.17-2.5-.17-3.31a4.35,4.35,0,0,1,.17-1.58.61.61,0,0,0-.7-.69v-3.5l-.17-2.09-1.4.17q-1.92,1-1.92,4.19A19.48,19.48,0,0,0,444.5,156Zm1.39-3.14.53,2.09-1.4.17v-1A1.07,1.07,0,0,1,445.89,152.86Zm1.05-46.8,1.05,1.4v.35a13.54,13.54,0,0,1-.88,3.84l1.05,1.4q-.87,3.32-2.27,3.84V112.7Q445.89,106.24,446.94,106.06Zm0-98.29.17,1.39.7-.18-.17-1.21Zm0,48.88v.7l1.4-.18-.18-.69Zm.17,5.59.7-.18c.82-.11,1.23-.52,1.23-1.22v-.35l-.7.18.52-1.58-.35-.69C447.58,58.63,447.11,59.91,447.11,62.24Zm.35-10.65.35,2.09.7-.17-.35-2.1Zm.7,115.24.7-.18.35,1.4-.7.17Zm1.22-77.35.35,2.79.7-.18-.34-2.61Zm1.23-27.24L451,65h.34c1.64,0,2.68,1.29,3.15,3.85-.59.11-1.28,3-2.1,8.72l-.69.18-.18-.7a24.89,24.89,0,0,1-.18-2.79c0-2,.24-3,.71-3a7.1,7.1,0,0,1-1.23-3.49l-.69.17c.22,2.21.34,4.37.34,6.46a49,49,0,0,1-.34,5.76l.34,2.62,2.79.35-1.56-1.92a3.14,3.14,0,0,0,.35-1.39,3.53,3.53,0,0,0-.35-1.58h.87a.67.67,0,0,1,.69.53,3.77,3.77,0,0,1,1.92-.88l-1.21-4.71v-.35c0-.7.52-1.16,1.57-1.4L455.14,68l-2.26-4.54,1.57.35-.52-2.62A8.5,8.5,0,0,1,450.61,62.24ZM451,50.89l.52,3.49.7-.17a7.8,7.8,0,0,1-.17-1.57,4.37,4.37,0,0,1,.34-1.92Zm0,7.86.17,2.09,1.4-.17-.35-2.1Zm3.49,124,1.4.53,2.09-.35c0,.35.76.7,2.27,1.05l.17,2.09,2.27,1.05v-.35q0-1.75,1.23-1.92l.87,5.58,1.39-.34v.7l-1.92.35c-.11-.82-.52-1.23-1.21-1.23h-.36a.83.83,0,0,1-.69.88l-4.37-5.59-2.09.35-.18-.7-1.22.87-.88-1.4A1.37,1.37,0,0,1,454.45,182.71Zm-.87-132.17.52,2.1.7-.18a1.49,1.49,0,0,1-.18-.7,4,4,0,0,1,.35-1.39Zm.17-31.08.18,1.4a6.64,6.64,0,0,1,1,1.92h.53l-.18-2.09c-.11-.82-.52-1.23-1.22-1.23Zm.35,60.06.17.7,1.4-.17-.17-.7ZM455.32,167v.52q0,.89-1.05,1l.18,1.4,1.4-.18v-.35a5.73,5.73,0,0,1,.34-1.74L456,167Zm.35-68.62H456a1.38,1.38,0,0,1,1.4,1.05l-1.4,1Zm0,4.19,2.79-.52v1a1.12,1.12,0,0,1-1,1.23l.87,1.4.17.69h-1.22c-.58,0-1-.35-1.22-1h.7l-.87-1.39Zm2.1-8.9h.69c1.05,0,1.58.35,1.58,1l-3,3.31-.7.18L456.19,97a2,2,0,0,0,1.75-2.27A3.44,3.44,0,0,0,457.77,93.67Zm-1.4,93.06,1.4-.18.35,1.4-1.4.18Zm.17-158,.35,2.09h.7l-.35-2.09Zm.18,71.58,1.4-.35.17,1.4h-.52Q456.89,101.35,456.72,100.3Zm.7-66.69.52,3.48.7-.17a4.93,4.93,0,0,1-.18-1.22,3.52,3.52,0,0,1,.35-1.57ZM457.94,64l.7-.17.17,1.4-.52.17Zm.18-3.66,1.39-.18c.12.82.53,1.23,1.22,1.23h.36l.17.69-2.1.35-.87-1.4Zm1.22,70,.17,1.23h.7l-.17-1.4Zm.17-7.85,2.79-.36a4.45,4.45,0,0,0-.34,1.93,7.8,7.8,0,0,0,.17,1.57L460,126l-.18-.7a8.22,8.22,0,0,0,.52-2.27h-.17A.68.68,0,0,1,459.51,122.48ZM460,41.11c.93,0,1.45.35,1.57,1l.17,2.09v.53q0,.87-1,1a.46.46,0,0,0-.52-.53H460Zm.17,5.59,1.4-.17.35,2.79-1.4.17Zm.35-7.16h.7l.17,1.4h-.7Zm2.79,58.32.7-.18c-.7,1.4-1,3.84-1,7.34l-1.4.17v-.7l.52-1.57-.87-1.22C461.72,99.49,462.42,98.21,463.35,97.86ZM461.61,188l.17,1.4h.7l-.18-1.4Zm1.4-27.06.34,3.49-1.39.17-.18-2.09A1.37,1.37,0,0,1,463,160.89Zm-1.23,15h.7a9.13,9.13,0,0,0,2.1.35l.17,1.4h-.7a5.54,5.54,0,0,0-1.75-.35H462Zm1.4-87.82,1.4-.52a19.83,19.83,0,0,0-.53,4.19,6.87,6.87,0,0,0,.17,1.57l-1.39.35c.23-2.68.35-4.37.35-5.07Zm0-4.36,1.4-.36.17,1.4v.53c0,.58-.35,1-1.05,1.22l-.69.17V86a11.7,11.7,0,0,0,.17-1.75Zm1-6.64.53,2.8h-.53c-.46,0-.81-.36-1-1A1.61,1.61,0,0,1,464.22,77.08Zm-1,81.71,1.4-.17.17,1.22-1.4.35Zm.52,20.43,1.23-.35.69,2.8-1.4.35Zm.18-131.82,1.39-.18.35,7L466,56.3l-1.39.18C464.58,56.24,464.34,53.22,463.88,47.4Zm1.92,11.87L467,62.59c-1,.12-1.57,2.5-1.57,7.16v1.57l-1.4.17V69.75q0-5.41,1.05-5.59l-.88-1.22C464.46,60.49,465,59.27,465.8,59.27Zm-1.22,14.32.69-.18.18,2.1v.35c0,.7-.41,1.1-1.23,1.22l-.17-1.4A6.73,6.73,0,0,0,464.58,73.59Z"/><path class="cls-6" d="M510.49,24.7c1.4.35,2.16.76,2.27,1.22a9.49,9.49,0,0,0-1.22,3.67c1.16-.58,1.75-1.75,1.75-3.49v-.88l1.39-.17h.18c.81,0,1.28.64,1.4,1.92a6.45,6.45,0,0,0-.53,2.09h.7a7.31,7.31,0,0,1,2.79-.87.47.47,0,0,0,.52.53h.18a5.85,5.85,0,0,0,.53-2.62v-.88l2.61-.17.18,1.4h-1.4l.18.69a.61.61,0,0,0,.69.7l-.52,1.4a10.88,10.88,0,0,1,.87,2.09l-1.22,3V35l.7-.17c.12-1.86.76-2.86,1.92-3l.18,1.39L522.19,39h1.4l.17,1.39-1.39-.69v1.39l-1.92.18-.18-2.1-.7.18v.52a11.34,11.34,0,0,1-1,4.36c.93,0,1.39.24,1.39.7l-.52,1.4a8.13,8.13,0,0,1,1.74,3.32c-1.4.12-2.61,2.09-3.66,5.93l-.7.18-.17-1.4,1.21-2.27-.17-.7-1.22.18a11,11,0,0,1-1,4.19h1.4v1.39l-1.4-.69q-1.74,4.37-3.49,15.71h1.4l-.88-1.39v-.71l1.4-.17.87,3.49.18.7-.7,1.4-3.49-1.05L510.32,78v.7l1.22-.7.17.7c-.69,3.26-1.28,4.89-1.74,4.89l.87,1.4.18,1.39h-.18c-.81,0-1.28-.63-1.39-1.92q-1.05,0-3.32,10.13l1.22-.87h.7l.17.69q-3.14,4-4.54,12.92l.18,2.1h.7v-1.57c0-1.75.34-2.68,1.05-2.79l1.39-.18v1.57a81.52,81.52,0,0,1-1.57,13.45H504a14.17,14.17,0,0,1,1.58-6.46l-.18-2.1-.7.18a40.59,40.59,0,0,0-1.39,8V120h-1.4v-1.39l-.7.17.17,2.1a8.24,8.24,0,0,1,.88,1.92c-1.75.46-2.62,1.22-2.62,2.26V126l.7-.18-.18-1.39h1.4l.17,1.92c.82,0,1.22-.76,1.22-2.27v-.53l1.4-.17-.35,3.49,1.4.7v-.35a9.39,9.39,0,0,1,1.75-4.71l-.88-1.4c.7,0,1.28-1,1.75-3h-.35c-.7,0-1.05-.4-1.05-1.22l-.17-.7q3-.34,3-6.11v-1.92l4.19-15.72a3.78,3.78,0,0,1-.88-2.09l1.22-.7.7-.17.18,1.39h.7l-.18-1.39,1.4-.18q-.36,4.19-1.75,4.37l.87,1.39.18,1.4v.18c0,1.28-1.11,2-3.32,2.09l.18,1.4,1.22-.7a.68.68,0,0,0,.7.52H515q-.87,4.38-2.44,4.54l.17,2.1c.23.81.64,1.22,1.22,1.22h.18c.11-2.79.7-4.25,1.74-4.37l.18.7a35.81,35.81,0,0,0-1.05,5.77l1.4-.88v.7c-.7,1.17-1.34,4.25-1.92,9.26v.69q6.11-3.32,7.68-8.38l1.57.53a5.81,5.81,0,0,1,2.62-.88l-.69-1.39-.18-.7q5.4-.35,10.47-8.56,3-.35,10.48-9.25.87-.18,11.7-10.83l.7-.17a.62.62,0,0,1,.7.7L562.17,79l.88,1.4a.61.61,0,0,0-.7.69l1.57.71a1.38,1.38,0,0,1,1.22-1.58h.7c.93,0,1.4.41,1.4,1.22l.17.7-.52,1.4,1.4.7c0-1,.4-1.57,1.22-1.57v.69a5.6,5.6,0,0,0-.35,1.75v.35h.7l2.44-2.27a.81.81,0,0,0,.87.53l-.69,1.39.17,2.1,1.4-.7,1.4-.18a.62.62,0,0,1-.7.7l2.44,2.62a.81.81,0,0,1-.7.87,16.76,16.76,0,0,1,1.23,4.72h.69v-.52c0-1,.35-1.64,1.05-1.75l-.7-1.22-.17-.7,2.09-.18v.53c0,2.09-1.16,4.31-3.49,6.63H577a.46.46,0,0,1-.52-.52q-1.92.18-7.33,5.58h-.7l.87,1.23q-12.92,8.55-13.09,11h.7a3.86,3.86,0,0,1,2.09-.88v.7q-4.37,4.71-4.36,5.24l1.39-.18v1.4q-1.74.18-19,15c-.7.12-2.44,1.45-5.24,4v-.69q3.68-5.07,7.16-6.29l-.17-.7-1.92.17q-7.51,7-10.65,7.34v-.7l-3.5.87v.7l2.8-.17.18,1.39c-1.29.12-1.93.59-1.93,1.4v.17l2.8-.17v1.4c-2,.12-3.5,1.63-4.54,4.54a5.76,5.76,0,0,0-3.32,1.05l-1.4-.7q-7,3.31-7.85,7v.7h.69v-.17q0-1.75,5.76-5.94h.71l.17,1.39c-3.26,1.17-4.89,3.32-4.89,6.47v1.22c0,1.16-.41,1.81-1.22,1.92l-.18-.7.7-1.4-2.09.18-1.75,13.44H506v-2.09a15.6,15.6,0,0,1,.87-4.89L506,166a4.66,4.66,0,0,0,.53-2.09v-.7q-3.5.34-3.5,9.43l1,2.61a1.56,1.56,0,0,0-1.39,1.58l.52,5.58-1.4.18v-.7l.53-1.57-1.4-.52.35-3.5a4.66,4.66,0,0,0-.87-2.09c.23-1.86.63-2.8,1.22-2.8l-.88-1.39-.17-1.4c0-2.33.41-3.55,1.22-3.66l-.87-1.23.52-1.57-1.39-.52q-.18,6.28-.88,6.46l.88,1.22c-.24,2-.64,3-1.23,3a.62.62,0,0,0,.7.7l-.52,8.37h-.7l-.17-1.92v-.17a.68.68,0,0,1,.52-.7l-.7-1.22v-.17a.69.69,0,0,1,.53-.7l-.7-1.23.35-3.66-.18-1.4-.7.18.18,2.79H496l.35-4.89h.7l1.4.53v-9.08l-1.4.17.87,1.22a39,39,0,0,0-.35,4.54v1.05l-1.39.18v-.7l.17-6.29q-1.05,0-2.27,5.76l-1.4.87c-.11-1.74-.58-2.61-1.39-2.61h-.18l.52-1.58v-.69l-1.39.17,1.22-2.27-1.57-.52h-.7l-1.4,6.46c.94.12,1.4.58,1.4,1.4l-1.22.69h-.35c-.7,0-1.11-.41-1.22-1.22.11-1.75.17-3.14.17-4.19v-1.4l-1.39.7-.7.18.52-3.49a4.69,4.69,0,0,1-.87-2.1.46.46,0,0,0,.52-.53v-.17h-.17c-1.29,0-2-.87-2.1-2.62a9.29,9.29,0,0,0,.88-4.19v-1.57l1.39-.17.18.69-.7,1.58.7-.18,1.92-1.57-.7-1.22q3.13-3.5,3.14-9.78a30.22,30.22,0,0,0-.17-3.15.61.61,0,0,1-.7-.69h1.39l-.17-2.1L488,128.24h.7l1.39.52a.62.62,0,0,1,.7-.69l-.87-1.4q2.1-3.15,2.45-12l2.09-.18.18,1.4-1.4.18a3.82,3.82,0,0,0,.87,1.92c-.7,9.42-1.69,14.2-3,14.31a.62.62,0,0,0,.7.7l-1.05,10.48c.58,0,1.34-1.46,2.27-4.36-.35,0-.58-.24-.69-.71q1.38,0,3.14-4.36l-.18-1.4-.69-1.4,1.22-.69a11.21,11.21,0,0,1-1.75-5.59l1.22-.7a.47.47,0,0,0,.53.53H496a37.63,37.63,0,0,0,1.05-5.59l1.4-.17v.69l-.35,3.49c1-.11,1.57-2,1.57-5.76l-.7.18-1.4.69v-1.39a6.71,6.71,0,0,0,.53-2.1l-1.4.18.17,2.09h-1.39q1.74-12,3.14-12l.17,2.09a1.23,1.23,0,0,1-1.39,1.4l.87,1.4-.52,1.39v.7h.7v-.35c0-1.16.4-1.8,1.22-1.92l1.39.52h.7v-.69h-.35q-1.74,0-1.92-1.23V108q0-1.92,2.45-5.42l-.18-.7-1.39.18v-.88c0-.81.63-1.27,1.92-1.39l-.35-3.5-2.45,3-.35-3.49h-.69l-3.32,18h-1.4a18.89,18.89,0,0,0,.35-3.67v-1.22h-.7l-.17-1.4,1.4.7.69-.17-1-3.32c.69-3.84,1.28-5.76,1.74-5.76l-.87-1.4-.35-4.19,2.09-.18-1.57-1.92q1.92-.16,3.49-8.73h.7c-.93-1.74-1.69-2.61-2.27-2.61h-.17q-3.33,18.5-4.71,18.68l.87,1.22q-1.75,3.5-1.75,4.36l-1.4.18c-.11-.93-.4-1.4-.87-1.4v-.35q0-1.74,1.92-1.92v-1.4l-1.4.18q3.5-12.75,3.5-14.84v-.18l1.57.53-.17-1.4h-.53c-.58,0-.87-.18-.87-.53l1.05-3-.18-2.1q2.26-3.66,2.27-6.11v-.35l-.87-2.79a47,47,0,0,0,2.62-9.25h.69l-.87-1.4q2.1-2.1,2.79-8,4.37-16.75,7-17.28v-1.4A8.71,8.71,0,0,1,510.49,24.7ZM484.13,140.63l1.4-.17v.7l-.35,3.49-1.4.18Zm2.09-15.71,1.4-.17-1.57,14.32h-1.4Zm.53-2.8,1.39-.17.18,1.4-1.4.17Zm3.14-12.92.17,2.8h-1c-.7,0-1.11-.41-1.23-1.22Zm-1.75,4.37h.7V115h-.7Zm3.15-3.14,2.09-.18v.35c0,.7-.41,1.11-1.22,1.23h-.7Zm0,47.67v.69h1.39v-.69Zm.17-14,.17,1.4c.82-.11,1.23-.52,1.23-1.22V144Zm1.75,35.63,1.4-.18V181l-1.4.17ZM495,168.39l.18,2.1h-1.4v-.7C493.73,168.86,494.14,168.39,495,168.39Zm1.23-49.93.17,2.1v.35c0,.69-.41,1.1-1.22,1.21L495,120C495.07,119.1,495.48,118.58,496.18,118.46ZM496,179.57l1.4-.18v1.4L496,181Zm.53-49.24-.35,3.5c.81,0,1.22-.35,1.22-1.05v-.35l-.18-2.1Zm1-52.55.18,1.39.7-.17-.18-1.4Zm0,47.66.18,2.1,1.39-.18a4.62,4.62,0,0,1-.87-2.09Zm.7-23.92,1.4-.17-.35,3.49-.7.18Zm1.4-31.77v.34a13.34,13.34,0,0,1-1.05,4l.17.7h.7l1.05-4.37-.17-.69Zm.87,18.16v.34a4.27,4.27,0,0,1-.52,1.92l1.39-.17-.17-2.09Zm-.35-20.26.18,1.4h.69l-.17-1.4Zm1.22,37-.35,4.36c.7-.11,1.28-1.57,1.75-4.36Zm.18,11.17.17,1.4h.7l-.17-1.4Zm.17-53.95.18.7,1.4-.18-.18-.69Zm2.45,11v.35c0,1.16-.7,3.67-2.1,7.51h1.4l1.39-7.16v-.7Zm-2.1,40.86.18,1.39H503l-.17-1.39Zm.53-2.8v.7l1.39-.17v-.7Zm.17-53.43.17.7h1.4l-.17-.7Zm0,32.31.17,1.39h.7l-.17-1.39ZM509.27,34l-5.76,22.88q3.32-7.34,6.46-22.35v-.7Zm-5.06,38.24,1.22-.18V70.8c-.81.11-1.22.52-1.22,1.21Zm1.92,87.48a6.94,6.94,0,0,1-.52,2.09H507l-.18-2.09Zm.17,18.16h.7l.35,4.19-1.4.17v-.7Zm1.05-116.46v.35a5.06,5.06,0,0,1-1.05,2.61h.7c.82-.11,1.22-.75,1.22-1.92v-.35l-.17-.69Zm-.7,7.85v.7H507c.7,0,1.11.41,1.22,1.22h.7l-.17-1.39-1.4-.7Zm1.05-11.34.35,2.79h.7l-.35-2.79Zm.7,22.34a8.34,8.34,0,0,1-.53,2.27l2.1-.17-.18-.7A1.23,1.23,0,0,0,508.4,80.22Zm.52,6.29,1.4-.18v1c0,.7-.41,1.11-1.22,1.22h-.7A6.64,6.64,0,0,0,508.92,86.51Zm.7,32.82.87,1.4a1.55,1.55,0,0,0-1.39,1.57c.23.82.69,1.22,1.39,1.22h.18L511,120v-.7Zm3.32-10.65-3,6.46.17,1.4h.7l1.05-4.37,1.4.7.52-1.57-.17-2.79Zm-2.8-47.49.18.7,1.22-.17V61Zm1.4-16.94v1.4h.7v-1.4Zm2.62,47.5.17,1.39L515,93l-.17-1.4Zm0,56,.17.7,2.1-.17-.17-.7ZM516.26,67l.17.69a1.42,1.42,0,0,1-1.4,1.57l-.7-1.39A3.81,3.81,0,0,0,516.26,67Zm-1.93,18.33h1.4v.35c0,.69-.41,1-1.22,1Zm.53-25.84,2.09-.36-1.05,3,.18,2.1-1.4.87v-.7Zm4.88,14.84h.71c.93.11,1.45.52,1.57,1.22-.82.12-1.23.93-1.23,2.44v.53h.7l.18,1.4H521l-1.57-.53v.7a4.19,4.19,0,0,1-2.27,3.67h-.7l-1.57-.53q.35-5.58,2.27-5.76l.17,2.09,1.4-.17-.17-3.49C518.53,74.93,518.93,74.4,519.74,74.29Zm-4.88,48.19v.69a6.73,6.73,0,0,1,2.09.53l1.4-.18v-.69h-.7a5.64,5.64,0,0,1-2.09-.35Zm.7-23.23,1.39-.17.18,1.4-1.4.17Zm.34,2.8c.93.11,1.4.52,1.4,1.22l-1.4.17Zm.71-16.24H518a1.23,1.23,0,0,1-1.39,1.4Zm0,8.38H518v1.4h-1.39Zm.17-37,1.4-.17.17,1.4-1.4.17Zm3,8.74h.71V67.3l2.09-1.57h.7a11.27,11.27,0,0,0-1,4.36v.53h.7a3.83,3.83,0,0,1-2.44,3l-.88-1.22,1.22-2.28-.17-1.39-1.4.18-1.4,7.68-.69.17-.35-3.49C517.82,68.59,518.82,66.14,519.74,65.91Zm-2.61,74.55v.7l2.09-.17v-.18c0-.82.64-1.28,1.92-1.4V138C519.63,139.53,518.29,140.35,517.13,140.46Zm.35-92.54v1.4h.7v-1.4Zm.52-2.09v1.39l.7-.17v-1.4Zm.87,74.9-.52,1.39h.7a3.84,3.84,0,0,1,1.92-.87v-.69Zm.7,25.14-.35,2.8h1.4l-.35-2.8Zm-.17-82.76h1.39l.18,1.4h-1.4Zm1.22-27.41v1.39c.93-.11,1.4-.57,1.4-1.39Zm.87,106.5v.71l1.4-.18V142Zm.18-5.58.17,1.4.7-.18-.17-1.22Zm1.92-73.86.87,1.4-2.09.17C522.48,63.4,522.89,62.88,523.59,62.76Zm1-4.88.17,2.79V61c0,.71-.41,1.05-1.22,1.05l-.88-1.22C523.3,58.86,523.94,57.88,524.64,57.88Zm-1.75,52.72,1.4-.17v.7l-1.4.17Zm.17,26.54a4.27,4.27,0,0,1,2.63-1.57v-1.4c-1.75.82-2.63,1.52-2.63,2.1ZM524.81,149l.7-.18.18,1.4-2.1.17C523.59,149.48,524,149,524.81,149Zm-.87-2.1,1.39-.17v.69l-1.39.18Zm24.44-2.09,1.23-.18q.17,1.4,6.11,4.37a7.26,7.26,0,0,1,.87,2.79h-.18c-.81,0-1.28-.87-1.39-2.62h-.7l.17,1.4q4.54,4.36,4.72,6.63a.62.62,0,0,1-.7.7l1.74,2.62a5,5,0,0,0-.52,2.27v.7l1.4-.88a.46.46,0,0,0,.52.53h.17a.63.63,0,0,1,.71-.7l.34,4.19-1.57-.52.18,1.39.69-.17,1.4-.7a5.93,5.93,0,0,1,.88,2.62l1.39-.7q1.39,1.23,1.75,4.71h-.7l.17,2.1,1.4-.87,3.84,5.41.18,1.39-.53,1.4h.18q3.14,0,8.73,14c-.82.23-1.22.64-1.22,1.22v.18H580q4.37,0,7.34,8.55,3.31,2.63,13.44,17.64,16.59,17.28,27.07,17.28h1l1.4-.17q11.36-10.31,17.29-11.35a.62.62,0,0,0,.69.7c0-.94,1.58-1.75,4.72-2.45a.69.69,0,0,0,.7.53h.17a.83.83,0,0,1-.7.87l1.05,3.32v.17q0,2.63-4.89,9.43v.18q0,4.35-18.51,11.17a.69.69,0,0,0-.7-.53h-.17v.18a.46.46,0,0,1-.52.53l.69,1.39-.52,1.4-1.4-.53h-1.39l-5.42,3.32-1.39-.52v.35c0,.7-.41,1-1.22,1-.12-.81-.53-1.22-1.23-1.22h-.35v.35c0,.7-.4,1.11-1.22,1.22a5.33,5.33,0,0,1-1.74-2.79l-1.93,1.57a.46.46,0,0,0-.52-.52h-.17v.17c0,1.28-1.58,2-4.72,2.27-.11-.81-.52-1.22-1.22-1.22h-.35l-3.32,1q-9.94-4.54-10.3-5.41a12.4,12.4,0,0,1-2.09.87q-7.86-2.79-17.81-12.57-2.62-2.28-6.46-8.56c-.59,0-2.16-1.74-4.72-5.24q-.87,0-3.84-4.53c.82,0,1.22-.36,1.22-1.05v-.35c-.81-1.75-1.51-2.62-2.09-2.62h-.17a.62.62,0,0,1-.7.7v-1.4l.52-1.4q-2.79-.87-3-1.92l.52-1.39h-.35q-1.74,0-1.74-1.23l.53-1.39v-.7h-.71v1.39a9.4,9.4,0,0,1-4-7.33h.7l-.18-1.39-1.39.69q-6.47-10.31-6.64-11.35a4.06,4.06,0,0,0,.52-1.74v-.35q-2.61-1.4-8.2-14l.7-1.57q-2.62-4.36-8-18.16v-1.05c0-2.56.81-3.89,2.44-4a8.79,8.79,0,0,1,5.41-2.62l-.17-2.1h.7l1.39.53v-.18c0-1.28,1.11-2,3.32-2.27v.7c1.75-.35,2.62-1.05,2.62-2.09v-.18l2.27,1.22,1.22-.87,1.57.53a5.85,5.85,0,0,1,2.62-.88.83.83,0,0,0,.88.7ZM527.25,48.45l.18,1.39q-2.1,7.86-2.79,8l-.18-.71v-1A10.38,10.38,0,0,1,527.25,48.45Zm-1,84.33.17,1.22h.7l-.18-1.4Zm11.87-8.91.17,1.4q1.23,0,1.23-1v-.35Zm1.4,7.69,2.09-.18L541.4,130h-.7c-.82.23-1.22.69-1.22,1.39Zm3.66-6.64v.7l1.4-.18v-.69Zm.88-5.76v.7h.7c1.74-.82,2.61-1.58,2.61-2.27h-.69A4.28,4.28,0,0,1,544,119.16Zm2.44,4h.7q7.15-4.19,7.16-5.58v-.7Q547,121.6,546.46,123.17Zm.18,2.1v.7l2.09-.18.52-1.39h-.69A3.82,3.82,0,0,1,546.64,125.27Zm4.71-2.44,1.39-.18-.17-1.4c-.81.24-1.22.7-1.22,1.4Zm2.44-12.23v.7h1.4v-.7Zm1.05,5.59.18,1.4h.7l-.18-1.4Zm4.89,111.05v.7a3.83,3.83,0,0,1,.87,2.09l.7-.17-.17-2.8Zm.52-114.37h.7l.18,1.4h-.7Zm1.92,55.18.18,2.09h1.4a11.82,11.82,0,0,1-.88-2.09Zm1.58,25.14.17,2.09,1.4-.17a3.7,3.7,0,0,1-.87-1.92Zm.34-84.16,2.1-.17v.34c0,.71-.41,1.11-1.22,1.23h-.7Zm1.23,86.78.17,2.09c.93,1.75,1.69,2.62,2.27,2.62h.18l-.18-.7a6.81,6.81,0,0,1-1.75-4Zm.52,29.5.17,1.4.71-.17-.18-1.4Zm.17-53.95.18,1.4.7-.17-.17-1.4Zm.18-63.2,1.4-.17v.69l-1.4.18Zm.53,70.71.17,1.4c.81,0,1.22-.35,1.22-1.05v-.35Zm.69-71.59h1.4l.17.71h-1.39Zm0,120,.18,1.39h.7l-.18-1.39Zm.88-45.57.17,1.39,1.4-.17-.18-1.4Zm2.09,23.56v.71a3.83,3.83,0,0,1,.87,2.09l.7-.17v-.7a3.81,3.81,0,0,1-.87-1.93Zm.52-18.33.18,1.4a11.59,11.59,0,0,1,.87,2.09h.7l-.17-1.39a4.57,4.57,0,0,1-.88-2.1Zm1.75,4.2v.69l1.4-.17v-.7ZM574.4,90.7l.17.7,1.4-.18-.18-.7Zm.52,103,.17,1.4.7-.17-.17-1.4Zm.17,2.1a4.79,4.79,0,0,1,1,2.62h.7l-.35-2.8Zm2.8-1.05.17,1.4h.7l-.17-1.4ZM580,203l.18,2.09h.7l-.18-2.09Zm1.58,2.09.17,1.4.7-.18-.18-1.39Zm1.74,3.32-.52,1.4,2.09-.18c-.11-.81-.52-1.22-1.22-1.22Zm1.92,22.17c.81,0,1.22-.34,1.22-1v-1c-.81.23-1.22.64-1.22,1.22Zm2.1-16.24.17,1.4,1.4-.17c-.12-.82-.52-1.23-1.22-1.23Zm.87,2.8.18.52h1.39l-.17-.69Zm35.45,36.14.17,1.4,1.39-.18c-.11-.81-.52-1.22-1.22-1.22Zm7.5-1.39.18.69,1.39-.17-.17-.7Z"/><path class="cls-6" d="M622.07,71.14h.69v1.4h1.4a5.15,5.15,0,0,1,2.79-1.4q2.1,0,3.49,4.19h.71c0-1.39.46-2.09,1.39-2.09v.7l-.7,1.39h1.4V76l-1.4,2.1a.62.62,0,0,1,.7.7c-1.39.46-2.1.93-2.1,1.39a5.39,5.39,0,0,1,.71,2.1h-.71l-2.79-.7a.62.62,0,0,1-.7.7l.7,1.4v.69c0,.7-.93,1.63-2.79,2.8h-.7v-1.4c1.86,0,2.79-.7,2.79-2.09h-1.39l-4.89,4.19a5.41,5.41,0,0,0,2.09.69v.7l-.69,1.4-2.8-1.4v2.1h1.4v1.4l-3.49.69-1.4-.69h-.7v.69l2.79.7v.7q-2.79,4.89-3.49,4.89v-.7l.7-1.4h-.7c-.7,0-1.39.7-2.1,2.1v2.09a5.25,5.25,0,0,1-2.09.7v.7h1.4v1.4l-2.79,2.09,2.09,3.49h-.7l-1.39-.69a.62.62,0,0,1-.7.69l.7,1.4c-.12,1.28-1.28,2.22-3.5,2.79a.61.61,0,0,0-.7-.69v2.09l1.4-.7c0,.93.7,1.4,2.1,1.4-2.8,2.21-4.19,3.61-4.19,4.19v2.1a5.39,5.39,0,0,0-2.1-.71v2.1l4.19-1.39v1.39a.62.62,0,0,1-.7.7l.7,1.4v.7h-.7c-.7,0-1.39-.7-2.09-2.1a5.52,5.52,0,0,1-2.8.7v3.49a5.62,5.62,0,0,1-.69,2.8V134l-4.2.7a.61.61,0,0,0-.69-.7v.7l.69,1.39a.62.62,0,0,0-.69.7c.93,0,1.4.7,1.4,2.1h.69v-1.4a5.24,5.24,0,0,1-.69-2.09h.69l4.19.69h1.4a4.48,4.48,0,0,1-2.79,4.19V148q-12.22,5.59-14.67,5.58h-.7v-1.39H583v.7l.69,1.39-1.4.7c-.81,0-2.21-2.56-4.18-7.68v-3.49l-1.4-.7.7-3.49v-.7l-1.4-2.1.7-4.19h1.4l-.7,1.4a5.19,5.19,0,0,1,4.19,2.79.62.62,0,0,0-.7.7h.7a1.24,1.24,0,0,0,1.4-1.4.62.62,0,0,1-.71-.69h1.4v1.39h.7V134H583v-.7a20.45,20.45,0,0,0,2.79-.7.62.62,0,0,0-.7-.69c.46-4.66,1.16-7.45,2.1-8.39l-1.4-.69q1.39-4.89,3.49-4.89v-2.8h-.7c-1.28,0-2,1.17-2.1,3.5-1.39-.47-2.09-1.86-2.09-4.2,0-.93.93-1.39,2.8-1.39v-1.4h-.71l-1.39.7q0-4.18,3.49-4.19h.7v-.7h-2.09v-1.4l.69-1.39h-.69c-1.64,3.25-2.8,4.89-3.5,4.89v-1.4a10.83,10.83,0,0,1,4.19-5.59l2.8,1.4a.62.62,0,0,1,.69-.7v2.09a1.23,1.23,0,0,0,1.4-1.39v-.7l-.7-1.4,3.49-.7a.62.62,0,0,0,.71.7c-.59-2.2-1.52-3.37-2.8-3.49-1.16,2.33-2.1,3.49-2.79,3.49h-2.1q0-2.45,8.38-12.57a.62.62,0,0,0-.69-.7l.69-4.19c.93,0,1.4.7,1.4,2.1h1.4v-1.4l-.7-1.39,1.39-.71v1.4h.7V80.92h1.4l-.7,1.4h2.1v-1.4h-1.4l2.09-3.49,1.4.7h1.4l-.7-1.4,4.89-2.79H613l1.39.7a.62.62,0,0,1,.7-.7.62.62,0,0,0,.7.7Zm-41.91,46.8h.7V120q-.52,7-2.1,7h-.69C579.46,122.12,580.16,119.1,580.16,117.94Zm1.4,20.95v1.39H583V141h-2.8l.7,4.18,1.39-.69L583,148a.62.62,0,0,0-.71.7l1.4.69a1.23,1.23,0,0,0,1.4-1.39h-1.4v-4.19a.61.61,0,0,0-.69-.7l.69-1.4v-1.4a1.23,1.23,0,0,0-1.4-1.39Zm-.7-23h1.39a1.23,1.23,0,0,1-1.39,1.4Zm0,14.67H583v.69a1.24,1.24,0,0,1-1.4,1.4h-.7Zm50.63-68.45,2.1-.17Q659.42,66.26,661,80.57l-1.4.18c-.23-1.75-.76-2.62-1.57-2.62h-.17l.87,8.38-1.39.17a49.48,49.48,0,0,0-2.45-9.6h-.7l.17.7a5.65,5.65,0,0,1,1,2.79A1.42,1.42,0,0,0,654,82.14h-1.23l-.35-1.92q-.51-5.4-6.11-5.76l.7,1.4.18.7-1.4.17-.18-2.09q-8,.87-23.22,20.08c-.69,1.39-1.51,2.15-2.44,2.27a.61.61,0,0,0,.7.69v.53q0,3-3.84,3.31l.87,1.4c-2.44,2.56-3.67,4.08-3.67,4.54l.88,1.4q-4.2,5.42-7.51,14.84l.7,1.22.17.7a8.25,8.25,0,0,0-2.09,1,.67.67,0,0,0,.69.52h.18v.88c0,2.2-.76,3.43-2.27,3.66v.7a1.42,1.42,0,0,0,1.4,1.22h.17c-1.05,5.7-2.15,8.62-3.32,8.73l.88,1.4.17,2.09-.87,4.89a.81.81,0,0,0,.87.7l-.35,3.49,1.4,7q9.76-1,20.78-9.43a4.27,4.27,0,0,0,1.92.52h.35q1.58-2.44,9.6-7.33,2.61-2.79,4-22.18,5.6-26,9.78-26.36l.18,2.09a7.57,7.57,0,0,0,3.84-4l1.4.52,2.79-.17,1.4-.87q.17,1,13.79,4.71c.11,1.16,1.4,2.21,3.84,3.14q.16.87,3.32,5.24l-4.54,16.59a11.59,11.59,0,0,1,.17,1.74c0,2.1-.76,3.26-2.27,3.49l.7,1.4v.35c0,.7-.41,1.05-1.22,1.05l.87,1.4c-.23,1.39-.58,2.15-1.05,2.26l.7,1.23v.35q0,1.74-1.92,7l1,3.32a32.33,32.33,0,0,0-1.22,9.95q0,4.37.52,9.78.35,3.13,6.29,18.33l.17,1.4c0,.7-.87,1.75-2.62,3.14q-11.35-3.31-14.14-7.68l-1.4.17-3.31,1.05q-.18-1.4-9.26-7.33c-1.74-4-3.32-5.94-4.71-5.94h-.18l-1.92-4.71q-12.74,10.65-27.41,12.22l-1.57-.52a6,6,0,0,1-2.62.87l-.88-1.23-1.39.88q-4.89-.71-5.24-3-18.86-13.09-19.38-16.94-1.4-1.92-3.14-10.12a5.7,5.7,0,0,0,.35-2.1v-.7a5.49,5.49,0,0,0,1.74.35h.53v.7l-1.4.18.17,2.09,1.4-.17,1,8.38.52-.18-1.05-11,1.4-.17.52,6.29.71-.18Q587,149.55,587,148c0-2,.29-3,.87-3.14.12,1.28.41,1.92.88,1.92l-.35,3.66.52,4h1.4l-.18-1.4a59.11,59.11,0,0,1-.35-6.46q0-26.72,23.23-62.16l18.16-19.55-4.2.52-.17-1.4Zm-50.28,80,1.39-.17.18,2.09-1.4.17Zm.35-13.62H583v.7h-1.4Zm.17,5.76,1.4-.17.35,2.09-1.4.18Zm.52-10.65h1.4l1.4.7c-.47.7-.7,2.1-.7,4.19H583Zm.71-4.19h.69v2.79H583Zm1.74,23,1.4-.18.34,2.1h-1.39Zm.35-23h1.39v.7h-1.39Zm0,14.67c.46,2.33.93,3.49,1.39,3.49l-.69,1.4v.7h2.09v-2.8l-1.4.7V134Zm0,10.48c.11.93.58,1.39,1.39,1.39v-1.39Zm0,7.68h1.39v-1.4C585.51,150.88,585.05,151.35,585.05,152.16Zm.7-38.41v1.39h.69v-1.39Zm0,16.76v.69h1.4v-.69Zm0,16.06V148c.11.93.58,1.39,1.4,1.39a5.24,5.24,0,0,1,.69-2.09A5.25,5.25,0,0,1,585.75,146.57Zm2.79-25.14a.61.61,0,0,0,.7.69,7.6,7.6,0,0,1-2.8,5.59v.7l1.4-.7h.7l-.7,3.49v.71h.7q0-.71,2.1-11.18h-.7Zm-2.1,20.95v1.4h.71v-1.4Zm.71-33.52V111a1.23,1.23,0,0,0,1.39-1.39Zm0,35.62v1.39h.69v-1.39Zm.17,8.72.35,2.1h.7l-.35-2.1Zm1.22-41.55a5.61,5.61,0,0,0-.7,2.79c.93,0,1.4-.69,1.4-2.09h.7l1.39.7v-1.4Zm-.7,20.95V134h.7v-1.4Zm0,9.78v.7h2.1v-.7Zm.18,17.11.17,1.4h.7l-.17-1.4Zm1.22-54.13v1.4h.7v-1.4Zm2.79.7a2.47,2.47,0,0,1-2.79,2.8v1.39H592l.7-3.49v-.7ZM591.33,90h.7v.7a1.23,1.23,0,0,1-1.39,1.39l-.7-1.39Zm-1.39,9.78v1.39h.7V99.78Zm0,18.86h1.39v-1.4C590.4,117.35,589.94,117.82,589.94,118.64Zm0,14v3.49h.7V132.6Zm0,4.19v2.8a5.3,5.3,0,0,1,2.09-.7C592,138.19,591.33,137.49,589.94,136.79ZM592,121.43a37.21,37.21,0,0,0-1.39,4.89h.69q1.92-3.5,2.8-3.49h.7a1.24,1.24,0,0,0-1.4-1.4.61.61,0,0,1-.7.69A.61.61,0,0,0,592,121.43ZM590.64,127v2.09h.69V127Zm0,14v.69H592V141Zm.69,4.18a5.38,5.38,0,0,1,.7,2.1,5.45,5.45,0,0,1,2.1-.7,5.6,5.6,0,0,1-1.4-3.49C591.8,143.08,591.33,143.78,591.33,145.17Zm.7-57.26h1.4V89.3H592ZM592,127v2.09h1.4V127Zm.7-11.18v.7h1.4v-.7Zm0,2.1V120h1.4v-2.09Zm4.89,6.28a2.81,2.81,0,0,1-1.39,2.1v2.09l-3.5,1.4v.7h2.1a.61.61,0,0,1,.69-.7v1.39H599v-1.39h-2.1c.81-1.86,1.75-2.79,2.8-2.79v-1.4a1.24,1.24,0,0,1-1.4-1.4Zm-4.89,16.06V141h1.4v-.71Zm1.4-9.08-.7,1.4v.7h3.49v-1.39A5.49,5.49,0,0,1,594.13,131.2Zm-.7,2.8v1.4h.7V134Zm.7-27.24v1.4h.7v-1.4Zm0,6.29v.7h1.39v-.7Zm.7,26.54V141h.69v-1.4Zm2.09-48.89a5.12,5.12,0,0,1-1.4,2.79h2.1V90.7Zm-1.4,3.49v1.4h.71v-1.4Zm0,9.08v1.4a1.24,1.24,0,0,0,1.4-1.4Zm0,7.68v1.4l1.4.7h.7v-.7a1.23,1.23,0,0,1-1.39-1.4Zm0,5.59v1.4h.71v-1.4Zm0,25.84v2.1l2.1-1.4a.62.62,0,0,0,.7.7l.7-1.4v-.7Zm.71-22.35v1.4h1.39A1.23,1.23,0,0,0,596.23,120Zm0,25.14v1.4h.69v-1.4Zm7.68-47.49a21.11,21.11,0,0,0-4.19,6.29.61.61,0,0,1,.69.7c-1.86.69-2.79,1.39-2.79,2.09v.7h2.79v-.7l-.69-1.4,4.19-2.79-.7-1.4,1.39-3.49Zm-4.89,0a1.24,1.24,0,0,1-1.4,1.4c.11.93.58,1.4,1.4,1.4a1.23,1.23,0,0,0,1.39-1.4.61.61,0,0,1-.69-.7.61.61,0,0,0,.69-.7Zm-1.4,39.11v.7H599v-.7Zm.7-18.15v.69a5.51,5.51,0,0,1,.7,2.1h.7a5.55,5.55,0,0,1,.69-2.79Zm0,20.25v1.39h.7v-1.39Zm1.4-20.78a6.8,6.8,0,0,1-.53,2.27l.17.7.71-.17v-.35a5.78,5.78,0,0,1,.34-1.75v-.7Zm.69-5.06c0,2.09-.23,3.49-.69,4.19a5.47,5.47,0,0,1,2.09-.7l-.7-3.49Zm-.69,24.44v1.4a1.23,1.23,0,0,0,1.39-1.4Zm.52-21.47v.69a1.42,1.42,0,0,0,1.4,1.23h.17l-.17-2.1Zm.17-37.89h1.4v.7h-1.4Zm.18,16.06h.7l.17,1.4h-.7Zm.52,24.45V120a1.23,1.23,0,0,0,1.4-1.39Zm0,23c.93.12,1.4.59,1.4,1.4v3.49h-1.4Zm2.1-64.95h.7v1.4h-2.1C601.93,77.2,602.39,76.73,603.21,76.73ZM603,91.05h.7v.17q0,1.05-1.74,2.1l-.18-.7C601.93,91.69,602.33,91.16,603,91.05Zm.53,16.94c0,.58-.59,2-1.75,4.36l2.79-.35v-.7a3.75,3.75,0,0,1-.87-1.92c.81-.11,1.22-.52,1.22-1.22v-.35Zm-.35,20.42v1.4h-1.4C601.93,128.88,602.39,128.41,603.21,128.41ZM602,113.75l.17,1.39.7-.17-.18-1.4Zm.52-6.29c0,.7.7,1.4,2.09,2.1l.7-1.4v-2.1A5,5,0,0,1,602.51,107.46Zm4.19,3.67q-3.15,8.2-3.14,9.25v.18l2.44-2.28-.87-1.39,2.27-5.24V111Zm8.38-25.49a5.79,5.79,0,0,0-.35,1.74v.35a3.85,3.85,0,0,1,.87,2.1c-.46,0-2,1.33-4.53,4v-.7c0-.34.81-1.63,2.44-3.84l-.18-.7q-3.66,3.68-8.9,14.32l-.7.17v.53h1.4q2.08-5.58,4.19-6.81l.17,1.4c-1.51,2.44-2.26,3.9-2.26,4.36h.69a84,84,0,0,0,9.6-14.49,5.79,5.79,0,0,0-1.74-.35h-.35l-.17-1.4,1.39-.17-.17-.7Zm-11.17,20.08.17,1.39h.7c.81-.11,1.22-.52,1.22-1.22v-1A3.78,3.78,0,0,1,603.91,105.72Zm.69-26.89v1.39h.7V78.83ZM606,94.19v.7a5.45,5.45,0,0,1,2.1-.7V92.8h-.7C606.47,92.91,606,93.38,606,94.19Zm0,9.78v.7a.62.62,0,0,0,.7-.7l1.4.7h.7v-2.8h-.7Q607.05,101.87,606,104Zm.18,15.71.17.52h.52a57,57,0,0,1,1.57-5.76C607.75,114.56,607,116.31,606.18,119.68Zm1.22-12.92v2.1h.7v-2.1Zm13.44-14.67c-.93,0-1.51-.63-1.74-1.92q-6.29,7.69-7.16,11.18l1.39-.7.7-.17v1.39c-.7.12-1,.76-1,1.92v1l-2.1.18.52-1.4v-.7q-.87,0-3.66,5.24l.17,1.4c.81-.12,1.23-.76,1.23-1.92v-.36l1.39-.17.18,2.09h.69A94.69,94.69,0,0,1,624,89.48l1.39.69v-.34q0-3.49,5.59-8a6,6,0,0,1-1.05-2.1q3.84-2.79,3.84-3.84-4,.52-10.82,9.6c-1.52.24-2.27,1.69-2.27,4.37A15.46,15.46,0,0,0,620.84,92.09ZM608.1,83v.71h1.39V83Zm.7,29.34h1.39a1.24,1.24,0,0,1-1.39,1.4Zm.17.7c.81-.12,1.22-.53,1.22-1.22v-1a1.42,1.42,0,0,0-1.22,1.39Zm.52-20.25v.69h1.4V92.8Zm0,6.28v.7h1.4v-.7Zm1.58-5.24.34,2.1H610l-.18-.7C610,94.31,610.36,93.84,611.07,93.84Zm-.88,3.84v.7h1.4v-.7Zm.7-21.65v.7H613v-1.4A5.33,5.33,0,0,1,610.89,76Zm0,14.67v.7h.7c.69,0,1.4-.7,2.09-2.1h-1.4C611.36,89.42,610.89,89.88,610.89,90.7Zm1.39,5.58V97h1.4v-.71Zm2.1,4.89h2.1q-2.81,4.2-2.8,5.59h-1.4v-.7Q614.38,102.58,614.38,101.17Zm-.7-7v.7h1.4v-.7Zm.7-6.28V89.3h.7V87.91Zm0,10.47,1.4-.17.17.7-1.39.17Zm1.4-12.57v1.4h.7v-1.4Zm.7-2.09v.69h1.39v-.69Zm0,4.88V90a1.23,1.23,0,0,0,1.39-1.4Zm.52-5.93a5.93,5.93,0,0,0,.87,2.62l-.52,1.39.17.7h.71V87a5.92,5.92,0,0,1,1-2.62l-1.4.18-.17-.7,5.06-6.11h-.69Q618.05,82.49,617,82.67Zm.87,2.44v1.4h.7v-1.4Zm.7,11.17H620a1.24,1.24,0,0,1-1.4,1.4Zm1.4-2.09h1.39v.7A1.23,1.23,0,0,1,620,96.28Zm.52-11.35,2.1-.17-.18-2.1h.7l1.4.52,3.67-5.41-.7.18A18.22,18.22,0,0,0,620.49,82.84Zm1.58.88-.71,1.39a5.56,5.56,0,0,1,2.1-.7v-.69Zm1.22-7.34v.53h.7q7.5-6.47,8.55-6.47l-.18-.69-1.39.17Q624,76.21,623.29,76.38ZM623.46,90h1.4a1.24,1.24,0,0,1-1.4,1.4Zm3.32-7,1.4-.17v.35q0,1.05-1.23,1Zm.87-9.07v.7h1.4v-.7Zm.18,76.3,1.4-.18v.35c0,.7-.42,1.11-1.23,1.22Zm4.88-70.72.18,1.4.7-.17v-.53c0-1.51.81-2.33,2.44-2.44l-.17-1.4h-.7C634.46,76.5,633.64,77.55,632.71,79.52Zm7.69-6.46.17.7,1.4-.17-.18-.7Zm17.28,16.42,1.4-.18.18,1.4-1.4.17ZM674.79,188v.7h1.4V188Z"/><path class="cls-6" d="M355.48,408.76l3.83-.14.11,2.84,3.77-1.56a1.25,1.25,0,0,1,1.49,1.36l3.78-1.56,3.83-.15c1,.15,1.48,1,1.53,2.5,1.64-1.77,3.15-2.67,4.54-2.73l1.49,1.37c.14-1.9.64-2.87,1.49-2.91l.1,2.85q.1,2.55-1.5,2.61c-.53,0-1.29-.42-2.29-1.33l-4.41,1.59.11,2.83.63,0,7.71.85c0-.75.17-1.15.59-1.16l.05,1.14C382.4,419,382,420,381,420l-1.65-1.36,0,1.42.9,2.52c-1.57,1-2.74,5-3.07,7.66l-1.48-1.08-.8,0a14.47,14.47,0,0,1,.95,3.94c3.39-3.35,5.27-8.68,5.15-11.71l.8,0,0,7.54c-1.6.06-2.37.94-2.3,2.64l.05,1.42,1.55-1.48c1.4.52,2.77,2.74,4.08,6.68A56.78,56.78,0,0,0,371,442.74l-.15-4,.64,0c.53,0,.81.45.85,1.39.81-1,3.07-2,6.75-3.09l-.05-1.42c-2.23.08-4.84-1.15-7.81-3.69-.92,1-1.65,1.48-2.18,1.5l.1,2.56,2.23-.08c-.32,2.85-1.75,4.33-4.31,4.42a16.41,16.41,0,0,0-1-5.37c.53,0,.78-.5.74-1.45q-3,.12-3.28-6.7l-1.6.06.1,2.85-1.2-2.09c-1.06,0-1.63-.89-1.7-2.79a4.59,4.59,0,0,1,2.34-1.5l0-1.14-2.39.09-.06-1.42,1.45-4q-4.74-2.65-6.17-2.61l-.06-1.42C355.15,412.76,355.58,411.42,355.48,408.76Zm8,7.95,0,1.14.91,2.81c2-1.41,2.93-2.77,2.88-4.1l-.06-1.42Zm.38,18.33,1.43-.06.1,2.56-1.44.06Zm.39-38.1.64,0,.1,2.56-.64,0Zm4.42-1.59,1.59-.06.11,2.84-1.59.06Zm.15,4,.8,0,.1,2.84-.79,0Zm0,27.27.11,2.85.8,0-.11-2.85Zm1.53-10.15.05,1.14,2.23-.08,0-1.15Zm3-19.85a4.41,4.41,0,0,0,3.73,1.28l.09,2.56-2.23.08c-1,0-1.47-.8-1.54-2.5Zm1.53,29.77,0,1.43,1.6-.06-.06-1.43ZM379,389.56l1.6-.06.1,2.84-3,.12C377.68,390.55,378.12,389.59,379,389.56Zm1.46,44.85,0,1.14c.28,1.88.85,2.81,1.7,2.78l-.15-4Zm0-47.47.8,0,.09,2.55-.79,0Zm.56,14.77,1.43,0c0,.95-.28,4.38.31,6.07l-.8,0c-1,0-1.46-.8-1.53-2.5ZM426.1,211.14q.11,2.84-8.84,7.16l.89,2.53c-.92,1-1.65,1.48-2.18,1.5l0,1.42,1.44-.05.05,1.42-.7,2.59.8,0c3.49-.71,5.21-1.62,5.17-2.76l-.16-4.26q2.86-.1,4.48-4.16l3.08,1.31q4.74-5.58,6.66-5.65c.43,0,.66.44.69,1.39l1.55-1.48,1.43,0c.1,2.65,1.7,3.91,4.78,3.8l-.2-5.39,5.32,1.22.1,2.55-3.88-1,.1,2.55q11.49,3.84,11.74,10.37l1.6-.06-.21-5.4,1.44,0q.13,3.69,5.77,13.15c0-.76.22-1.15.76-1.17l.09,2.56a14.56,14.56,0,0,0-.65,4c2.42,1.81,3.76,3.56,4,5.26l-2,6.9c-4.6-.4-6.91-1.16-7-2.29-9,2-13.45,3.54-13.42,4.48l.06,1.42c-.54,0-1.3-.42-2.29-1.34q-7.94,5.71-15,6l-.05-1.42-2.24.08a5.29,5.29,0,0,1-4.52,3l.89,2.52q2.94-2.67,4.38-2.72l.89,2.52q-3.37,7.81-9.49,11.17-4.74,14.11-4.55,18.94l.1,2.84c1.06,0,2.68,1.71,4.84,5.23,0-.95.15-1.43.58-1.45l.11,2.84,1.54-1.48q5,5.22,6.27,5.17l-.7,2.58.05,1.42q1,0,15.72,14.2l.8,0L440,317.28l.79,0q15-.57,37.83,62,4.38,14.34,4.49,17.18c0,8.16-1.25,14.38-2.42,14.43l.9,2.53.11,2.84-8.16,8.27-.05-1.14a18,18,0,0,0,.6-5.43l-6.07.23c.09,2.28-1.06,4.5-3.42,6.67l-.8,0-.2-5.39-1.78,3.62-.64,0c-.07-1.7-.13-4.68-.66-4.66L459,419.64l-3.77-2.41a33.23,33.23,0,0,0-.89,6.14l-1.41-3.5-1.43.05c.07,2.09-1.12,5.69-3.11,6.52.06,1.71-.44,2.58-1.5,2.62l-.64,0,.54-2.58c-.07-1.89-.59-2.82-1.55-2.79l-1.43.06.89,6.79,1.55-1.48.15,4-3,1.54.7-2.59-.05-1.42c-2.56.09-3.87-.8-3.94-2.7q-3.67,4.41-7.5,4.55c-.07-1.89-.32-2.83-.75-2.81a18.14,18.14,0,0,1-3,1.53c-.54,0-.82-.44-.86-1.39-1.77,1-4.52,1.59-8.25,1.73l.06,1.42,1.44-.05.09,2.56-3,.11-.1-2.56-2.23.09.89,2.53-1.59.06c-2.45.09-3.7-.72-3.77-2.42l-9.06,1.48-8.29.31L392.55,434q0,1.14-.75,1.17l-.73-2.53-.06-1.42,4.52,1.25.8,0-.05-1.42-1.6.06-.09-2.55,1.64,1.07,3-.11-.9-2.53L397,428.39l-.8,0c-.53,0-.81-.44-.85-1.39L394,428.5l-.8,0c-.07-1.89-.85-2.82-2.34-2.76l.14-4.69c0-1.9.47-2.86,1.33-2.9,1.06,0,1.43,3.88,1.56,7.48l2.23-.09,5.45-3.76a33.73,33.73,0,0,0,2.31,10.3l1.55-1.48.05,1.42a4.67,4.67,0,0,1,3.62-1.56l-.74-2.53c.43,0,.62-.5.59-1.45l-1.49-1.37.15,4-.8,0-.09-2.55-1.44,0,.73,2.53-.64,0-1.64-1.08a39,39,0,0,0,.88-6.43l.8,0,1.25,3.5.18-3.56c-.06-1.7-.57-2.53-1.53-2.5l-6.07.23-.1-2.84q3-.11,2.82-5.51l2.24-.08c1,0,1.49,1.36,1.6,4.2l2.39-.09-.9-2.81,1.38-1.47c.53,0,.81.45.85,1.39a4.9,4.9,0,0,1,3.78-1.57l-.05-1.13q-1.9.07-3.93-2.7c0,.95-.21,1.43-.75,1.45a5.52,5.52,0,0,0-2.38-3.89l-1.44,0,.73,2.53-6.06.23-.05-1.42-.64,0a22.11,22.11,0,0,1-.54,6.84l1.43-.05.11,2.84-5.9.22-.06-1.42,2.24-.08-.11-2.84-2.23.08q-.14-3.41,3.52-4.11l-.06-1.42-2.23.08c-.92,1-1.65,1.48-2.18,1.51l-.1-2.56,5.8-5.16c0,.94.32,1.4.85,1.38l.53-2.86,1.65,1.36,1.44,0,5.37-1.63,0-1.14c-1.59.06-2.41-.38-2.45-1.33l-1.38,1.48-3.89-1.28c0,.95-.21,1.43-.74,1.45,0-.94-.27-1.41-.69-1.39.06,1.7-.44,2.58-1.5,2.62a25.21,25.21,0,0,0-6.75-.89l.05,1.14a4.86,4.86,0,0,0-3.08-1l.53-2.86q-2.24.09-2.28-1.05l-1.39,1.19-1.6.06q-.15-4,11.19-4.41l-.1-2.55.8,0,.09,2.55,7.45-1.7-.09-2.55L401,387.59l-3,.11c-1,0-1.47-.89-1.54-2.78l-.06-1.42,2.24-.08,3.63-1.28.09,2.56,1.6-.06-.1-2.56,8.3-.32c-.11-2.84.1-4.27.64-4.29a67.54,67.54,0,0,1,11.39,1c1.37-.06,3.62-1.46,6.71-4.24l.05,1.42,1.39-1.47c.52,0,.81.44.85,1.39q3-5.24,16.19-11.43l-2.44-5.3c.53,0,.78-.5.74-1.46L446,356c-.95,0-1.38,1.38-1.28,4l-.8,0c-1,0-1.47-.8-1.53-2.5,1,0,1.4-.9,1.34-2.61-.54,0-.82-.44-.86-1.39.54,0,.78-.5.75-1.45l-1.44.06.11,2.84-1.59.06.54-6.85a3.94,3.94,0,0,1-3.09-1.31l.1,2.84q-3.82.15-3.93-2.69l-1.39,1.47-4.68-1.24.7-2.59c-.53,0-.81-.44-.85-1.39,1.06,0,1.56-1,1.49-2.9l-.1-2.56c-1.06.05-1.54,1.39-1.44,4l-.8,0c-2.51-1.42-3.83-4-4-7.82l-1.55,1.21-1.44.05c-.09-2.46-1.47-5.07-4.13-7.81l-.11-2.84-1.38,1.47-.8,0-.05-1.42.7-2.58-.06-1.42-.79,0,.1,2.84-1.59.06-.05-1.42.69-2.87c-1.38-2.6-2.92-3.88-4.62-3.81l.54-2.58a21.69,21.69,0,0,1-.84-5.37l-.81,0a14,14,0,0,1-.64,4c1.07.34,1.65,1.27,1.7,2.79l-.8,0q-2.07.07-5.2-14.89-1.91.08-5.08-16l-.79,0-.56-14.77-1.44.06-.09-2.56a20.05,20.05,0,0,1,.43-5.42,20.17,20.17,0,0,1-.84-5.37q1.71-14,5.4-17.84-.15-4,9.23-13.72a4.63,4.63,0,0,1,2.34-1.51c0,.95.27,1.41.69,1.4q-.15-8.25,4.32-8.42l.05,1.42q2.24-.08,2.09-4.05l.8,0c.42,0,.65.44.69,1.39A11.06,11.06,0,0,1,426.1,211.14ZM382.77,407.73l3-.12.06,1.43c-.54,0-1.26.52-2.18,1.5Zm2.91-22.41.8,0,0,1.42c.07,1.71-.43,2.58-1.5,2.62l-.64,0,0-1.13C384.39,386.32,384.83,385.36,385.68,385.32Zm5,28.94.73,2.53-2.23.09.06,1.42.9,2.81a33,33,0,0,0-4.59,1.3l0-1.13c0-.95.21-1.43.75-1.45l-.91-2.81,0-1.14ZM387.3,405c1,.16,1.48,1,1.54,2.5l.05,1.43c-1,0-1.47-.9-1.54-2.8ZM389,393.45l.09,2.55,3.78-1.56,1.49,1.36.7-2.58Zm1,32.35c1,.35,1.49,1.28,1.54,2.79l.05,1.14c-1,0-1.47-.8-1.54-2.5Zm1.17-15.54.8,0,.09,2.55-.8,0Zm2.11-26.65.64,0,.11,2.84-.64,0Zm2.6,9.58,0,1.13,4.47-.17,0-1.13c-1.49.05-2.25-.39-2.29-1.34C397.15,392.67,396.42,393.17,395.89,393.19Zm5.65,37.58.06,1.42,1.44-.05-.06-1.42Zm1.12-17,.1,2.56.8,0-.1-2.56Zm-1.85-131.45.15,4,1.44-.06,0-1.42C402.28,283.15,401.77,282.32,400.81,282.36ZM400,243.13l.8,0c1.06,0,1.56-.91,1.5-2.62l0-1.42Q401.1,239.11,400,243.13Zm.26,6.81.09,2.57.8,0-.09-2.56Zm4.13,7.82.11,2.84.79,0a178.21,178.21,0,0,1,6.89-16.48l-1.43.06Q407.31,247.12,404.36,257.76Zm5.25,138.89,0,1.14q11.4-3,12-3l-.89-2.52-1.4,1.18c-.53,0-.81-.34-.84-1.1C412.52,393.32,409.53,394.76,409.61,396.65Zm.89,2.53-1.33,5,0,1.14c.54,0,.79-.41.76-1.17l1.48,1.08,5.38-1.33c0,.75.26,1.12.68,1.11l.55-4.69a1.25,1.25,0,0,1-1.49-1.36l-3.78,1.56-.8,0Zm-.86,25.88.11,2.84.8,0-.11-2.84Zm.68-11.54.05,1.42,1.44-.06-.05-1.42Zm-4.81-167.75q8.1-14,9.22-14l-.1-2.55Q405.15,236.4,405.51,245.77ZM411.24,425l.11,2.84.64,0-.11-2.85Zm2.21-9,.11,2.84.8,0-.11-2.84Zm1.49,1.37.91,2.8c-1.49.06-2.44,3.09-2.38,4.78q1.44,0,1.59,3.93l.8,0v-8.68l.8,0-.09,6.13,2.23-.09c-1.44-4.5-2.31-8.87-3.05-8.84ZM408.46,226.6l.16,4.26.8,0-.16-4.26Zm6.93,181.33.09,2.55,1.6-.06c1,0,1.4-.91,1.34-2.61Zm-4.32-154.41.11,2.84.8,0-.11-2.84Zm.38-28.18.15,4a4,4,0,0,1,2.34-1.51l-.1-2.56ZM427.61,410l.06,1.42,1.64,5.34-.64,0a4.3,4.3,0,0,0-3.09-1.31,78.83,78.83,0,0,0-1.57,9c-1.91-2.58-3.48-6-5.18-5.92l-.8,0,.05,1.42c3.22,3.49,5.82,7.32,8.27,7.23l0,1.13a4.85,4.85,0,0,1,3-1.25l-.05-1.42-.51-5a5.39,5.39,0,0,1,3.63-1.27l-.11-2.84L431,418.14a22,22,0,0,1-2.55-8.15Zm-8.24,1.73c.17,1.9.69,2.82,1.54,2.79l-.11-2.84Zm-4.72-165.19.05,1.42,1.44-.06q2-6.9,6.6-7.08l-.09-2.55-.8,0Zm5.8,180.94,0,1.13,2.23-.08,0-1.13Zm-6.17-207.66,0,1.13,1.59-.06,0-1.13Zm.15,4,.09,2.56.8,0-.1-2.56Zm8.1,172.35c.17,1.7.69,2.54,1.54,2.5l.8,0c-.07-1.7-.63-2.54-1.7-2.5Zm1.05,8.61c.07,1.89-.37,2.86-1.33,2.9l.05,1.42,1.44-.06.69-2.88-.05-1.41Zm.26,6.81.05,1.42,1.6-.06-.06-1.42ZM418.9,219.66l1.44,0,.1,2.55c.07,1.9-.37,2.86-1.33,2.9l-.8,0-.05-1.42A14.53,14.53,0,0,0,418.9,219.66Zm8.79,173.46,1.44-.05-.09-2.56Q427.61,390.86,427.69,393.12ZM427.46,406l.06,1.43,1.43-.06L428.9,406ZM431.09,242l.91,2.81-.8,0c-1.06,0-1.63-.89-1.7-2.78L426.58,245l.89,2.52L424.64,253l.8,0,4.32-4.15.09,2.56,1.6-.06q-.21-5.4,1.23-5.45c.53,0,.82.44.85,1.39l3.78-1.57,3.67-.14c1.08.35,1.65,1.27,1.7,2.78l-.7,2.59.8,0q1.44-.06,5.17-2.76a3.9,3.9,0,0,0,3.09,1.31l1.59-.06,2.13-2.93,1.44-.05,1.65,1.36.69-2.87-.1-2.55-2.3,2.64-.73-2.53c1,0,1.4-1,1.33-2.9-3,.11-4.48-.2-4.51-1l-1.56,1.19-1.47-1.08a13.84,13.84,0,0,0-.65,4q-2.67-2.75-3.94-2.7l0-1.14,1.43-4.31-1.59.06C443.13,234.68,438.69,237.11,431.09,242ZM430,414.19l1.59-.06-.1-2.84C430.45,411.72,430,412.68,430,414.19Zm.06,10.1.11,2.84,1.6-.06-.11-2.84Zm-.42-81,.05,1.42,1.44-.05-.05-1.42Zm2.28,62.6c4-1.09,6.62-4.62,6.56-6.33l-1.44.06C434,400.66,431.87,404.17,431.93,405.87Zm-4.68-185.39-.69,2.87.05,1.42c1.2-1.94,2.18-2.92,2.92-3l0-1.42ZM433,414.08l0,1.14,2.23-.08,0-1.15Zm.07,10.09.05,1.43,3-.12-.05-1.42Zm-4.59-169.89.06,1.42,1.43,0-.05-1.42Zm.08-19.06.06,1.42,1.43,0,0-1.42Zm6.13,181.36.11,2.84,1.44-.06C436.21,417.47,435.69,416.54,434.73,416.58Zm4.16-188.29.9,2.53-2.24.08c-.06-1.7-.36-2.54-.89-2.52-1.28.05-3.8,1-7.57,2.84l.05,1.42c1.07,0,1.65,1.27,1.75,3.92l.8,0,1.38-1.47-.89-2.53-.06-1.42,1.6-.06.11,2.83c2.76-.1,6.51-1.18,11.22-3.26l0-1.14-1.59.06c0,.76-.18,1.15-.6,1.16l-.1-2.55c4.72-2.07,7.45-3.13,8.19-3.15a21.33,21.33,0,0,0,6.92,1.16q-.15-4-10.84-3.58L447,224l-1.49-1.36-.8,0Q438.83,226.59,438.89,228.29Zm4.14,188-1.59.06-.1-2.56-4.47.16.1,2.56a6.6,6.6,0,0,1,5.37,2.64q-.07-2,3.63-5.54l5.31.94-.89-2.53c1.06,0,1.56-1,1.49-2.9l-3.84.15C444.63,412,443,414.38,443,416.27Zm-6.1,7.76.11,2.84.8,0-.1-2.84ZM431,219.21l0,1.13,1.43-.05,0-1.14Zm2.75,34.87,0,1.42,2.24-.08-.11-2.84C435.05,253.56,434.32,254.06,433.79,254.08Zm5.52,165.17-.14,4.69.8,0,.14-4.69Zm-2.54-166.7.06,1.42.79,0,3.62-1.56-.1-2.55C439.18,251.6,437.73,252.51,436.77,252.55Zm8.06-48.94.06,1.42,1.38-1.48c1.07.34,1.65,1.27,1.7,2.78l.06,1.42c-1.6.06-2.42-.38-2.45-1.33L442,208l-3.83.14-.11-2.83,1.44-.06ZM442.33,239l.8,0,.1,2.56-2.4.09C441,239.88,441.48,239,442.33,239Zm5.42,3.78.09,2.55c.08,1.9-.37,2.86-1.32,2.9l-.11-2.84C446.45,243.65,446.9,242.78,447.75,242.75Zm9,184.52.11,2.83c-.75,0-1.73.93-2.94,2.68l-.9-2.53-.05-1.42Zm-9.33-193.9.9,2.53c-.54,0-.78.5-.75,1.45l2.24-.08a4,4,0,0,0,3-1.54,4.53,4.53,0,0,0,2.45,1.33c.92-1,1.64-1.48,2.18-1.5l-.1-2.56-3.83.14c-.53,0-.81-.44-.85-1.39C452,232.73,450.27,233.26,447.39,233.37Zm5.82,173.13.15,4,2.24-.09c1.06,0,1.56-.9,1.5-2.61l-1.65-1.36Zm4.16,16.76.79,0,.11,2.84-.8,0Zm2.23-.09.8,0c.07,1.9.58,2.83,1.54,2.79l.1,2.56L458.42,430l-.05-1.42A13.23,13.23,0,0,0,459.6,423.17Zm-8-218.4c1.08.34,1.65,1.27,1.7,2.78l-1.59.06Zm8.49,201.47,1.43-.06-.1-2.84C460.46,403.76,460,404.72,460.08,406.24Zm2.64,10.7,0,1.42c1.07,0,1.57-1,1.49-2.9l-.05-1.42C463.16,414.46,462.66,415.43,462.72,416.94Zm-3.58-173.2,0,1.14c1.06,0,1.63.88,1.7,2.77l.8,0c.42,0,.62-.49.59-1.44l1.64,1.36,1.39-1.47c.28,1.88.85,2.81,1.7,2.78l.64,0-.11-2.85-5.36-2.35Zm7.36,171.64.05,1.42,2.24-.09-.11-2.83C467.76,414.86,467,415.36,466.5,415.38Z"/><path class="cls-6" d="M493.21,291.67q5.07.69,5.07,3.14l2.09-1.57h.7v1.4l1.4-.88h.69q1.75,1.58,8.73,3.67a5.57,5.57,0,0,1,3.85,5.24L517,302a3.82,3.82,0,0,1,.87,1.92v.7q0,4.55-4.19,19.2l.87,1.4v.7l-2.27,7.16,1.4.52Q512.25,344,511,347.89a8.49,8.49,0,0,0,.87,1.92c-.11,1.74-.17,3.26-.17,4.54v1.92l1,6.81,2.79-.17,6.81-4.72h1.4c.11,1.16,1.33,1.75,3.66,1.75h1.23q2.08-20.79,5.58-32.66l-.87-1.22q8-29.15,12.57-30.38l1.57.7a3.82,3.82,0,0,1,1.92-.87l.88,1.4q-.88,2.79-1.92,2.79.17,1.92,2.61,1.92h.35v.7l-.52,1.4h.7q3.32-5.78,4.36-5.94h.7l.18,1.39-1.4.18v.7h.52q3.15,0,7.51,3.67l1.4.52,1.39-.88c1.64,0,3.61,1.52,5.94,4.55h.7v.69l-1.92,3.67,1.57.52c-.24,2.8-.87,4.25-1.92,4.37l.87,1.4H570l.17,2.79h.7v-.52c0-1.52.41-2.33,1.22-2.45v1.22q0,3.15-1.74,3.84c-.12-.81-.53-1.22-1.23-1.22h-.34a6.71,6.71,0,0,1-.53,2.1,6.62,6.62,0,0,0,2.1.52l.17,1.4a6.12,6.12,0,0,0-1,4v1.58l-1.4-.53h-.69v.7c.93,0,1.4.23,1.4.7l-.35,3.49h-.7l-1.58-.52.18,2.79.87,1.22-1.4.87a3.83,3.83,0,0,1,.88,2.1l-.53,1.4,1.58,2.62c-.94.11-2.16,3-3.67,8.73l.87,1.39a65.34,65.34,0,0,0-3,17.64l-1.39.87v-.7a5.28,5.28,0,0,1-2.1.7v1.4l1.4-.7.87,1.39c-1.39,0-2.09.47-2.09,1.4a4.69,4.69,0,0,1,.87,2.1l-1.4.17v-1.39l-1.39.69v-.69a4.72,4.72,0,0,1-2.8.87v1.4h1.4v.17a.46.46,0,0,1-.53.52,7.2,7.2,0,0,1,.88,2.8l.7-.18-.18-2.09-.69.17a7,7,0,0,0,.52-2.27h1.4l1.74,4.72-2.09.17,1.57,3.32c-1.17.12-1.75,1-1.75,2.79v.88a11.59,11.59,0,0,1,.87,2.09.61.61,0,0,0-.69.7l2.09-.18V397c-1.51.12-2.33,1.57-2.44,4.36l-.7.18v-.7l-.18-11.17v-2.1h-.7v.87c0,3.15-1,4.78-3.14,4.89v.7l2.1-.17.17,1.39-1.4.18.18,2.79,1.4-.17.17,4.19-.7.17-1.39-.69v.69l.87,1.4-1.4.7.87,1.4.18,4.19q0,.87-4.54,3.84l-.87-1.4-.18-2.79a.62.62,0,0,1,.7-.7l-2.44-4v-.7l1.39.53L547,402l-1.4.17-.17-4.19H544l.35-3.49,1.57.69-.17-.69A7.14,7.14,0,0,1,544.2,391l1.39-.71a4.58,4.58,0,0,1-.87-2.09,6.64,6.64,0,0,0,.52-2.09.61.61,0,0,1-.69-.7c.81-.12,1.22-.7,1.22-1.75v-.35l1.39.53V383a5.85,5.85,0,0,1,.53-2.62h-1.4v1.4l-1.4.18V380c0-2.45.35-3.73,1.05-3.85l-.7-1.22.53-1.57-1.4.17v.53c0,1.51-.41,2.27-1.22,2.27a.61.61,0,0,0,.69.7q-.35,6.29-1.57,6.46c.47,1.74.93,2.62,1.4,2.62h.17c-.92,1.74-1.39,4.36-1.39,7.85,0,1.28.06,2.68.18,4.19l-1.4.18-.18-1.4a.81.81,0,0,1,.7-.87l-.87-1.22v-1.75a72.22,72.22,0,0,1,.87-7.51.81.81,0,0,1-.87-.7h.7l-.7-1.39-.17-2.1.69-1.39-1.57-.53v1.05c0,1.16-.17,1.74-.52,1.74a.81.81,0,0,0,.87.7q-.52,8.75-.52,12.92v1.75c-.82.11-1.23.35-1.23.7v.17q-2.08,0-3.14-4.71c2.1-1.05,3.2-2.1,3.32-3.14l-.18-1.4a.46.46,0,0,0-.52-.52h-.17l.52-1.58-.18-2.62h-.69l.17,2.1h-1.4l-.35-4.19-1.39.17.52,6.29h-1.39l-.18-3.49-.7.17a52.59,52.59,0,0,0-.7,8.73v3.14l.18,2.1-3.49.17-1-4h.7l1.57.52a35,35,0,0,0,.87-6.81,6.87,6.87,0,0,0-.17-1.57h-1.4v.52c0,.59-.18.88-.52.88l.87,1.4-.7,1.39a4.69,4.69,0,0,1,.88,2.1l-1.4.87a11.82,11.82,0,0,1-.88-2.09l.35-6.29c-.11-.81-1.1-1.69-3-2.62l-1.39.7h-.18q-3.84,0-21.47-8.9a6.73,6.73,0,0,0-.53,2.09,5.47,5.47,0,0,0-2.79-1.22l-.17-.7,1.39-2.1h-1.39v1.4h-.35q-3.15,0-3.49-4l-1.4.18.17,1.4h-.69L488.67,369v-.7a.83.83,0,0,0,.7-.88q-1.74,0-5.41-6.63-2.1,0-3.84-14.32l-.18-3.49a.62.62,0,0,1,.7-.7l-.87-1.39v-.71a.61.61,0,0,1,.7-.69l-.87-1.4a4.24,4.24,0,0,0,.52-1.75V336a5.33,5.33,0,0,1-.7-2.1h.7l-.88-1.4q3.5-27.4,7.34-35.44c.81-2.91,1.63-4.36,2.44-4.36l.18.69-.53,4.19Q491.82,291.67,493.21,291.67Zm-10.3,23v.7h1.4v-.7Zm1.92,7,.18,2.09.69-.17-.17-2.1Zm3.32-23.4v1.4h.7v-1.4Zm.52,38.41v1.4h.7v-1.4Zm.18,2.8v1.4h.7v-1.4Zm4.71,6.81v1.39l.7-.17v-1.4Zm1.22-52.73-.52,3,1.4-.18.52-2.79Zm28.81,63.9,2.1-.17.17.7-2.09.17Zm1.22,6.11V365h.7v-1.4Zm4.37,22.87v.7h1.4v-.7Zm0,11.18.17.7,2.1-.18-.17-.7Zm1.74,3.49,1.4-.17v.7l-1.4.17Zm5.24,5.94,1.4-.18.18,1.4-1.4.17Zm.35-56.05v.7l1.4-.18v-.69Zm.18,42.6.87,3.5h.7l-.18-3.5Zm.17-37.71v1.4l.7-.18v-1.39Zm.18-18.33V339h.7v-1.4Zm.35,6.28a4.72,4.72,0,0,1,.87,2.8h.7a8.36,8.36,0,0,1,.52-3Zm.35,4.19.17,2.1h.7l-.18-2.1Zm1.57,53.08,1,6.29-1.39.17-.18-2.09-.87-3.49Zm-.18-63.55V339l.7-.18v-1.4Zm1.4-8.56v.35c0,1.17-.41,1.74-1.22,1.74a4.73,4.73,0,0,1,.87,2.1,6.62,6.62,0,0,0-.52,2.1q1.4,0,1.74-5.59l-.17-.7Zm.7,70.71,1.4-.17.17,2.79-.35,4.89-1.4.18v-.7Zm0,9.78,1.4-.17.17,2.09-1.4.18Zm1.92-93.93-.35,3.49v2.09h-1.4a1.56,1.56,0,0,0,1.57,1.4l.87-6.46v-.7Zm-1.57,7.68.17,1.4h.7l-.18-1.4ZM542.1,340v1.4h.7V340Zm1,4.89.17,2.79h.7l-.18-2.79Zm.52-2.8v1.4h.7v-1.4Zm0,60.94,1.4-.17v1.39l-1.4.18Zm.7-91.84-.53,2.8v.69h.71l.52-2.79v-.7ZM544,338.63l.18.7,1.39-.17-.17-.7Zm1.05-5.06-.52,2.79.17.7h.7l.52-2.79-.17-.7Zm1,55.18a4.66,4.66,0,0,1,.87,2.09h.7l.35-4.19h-.7c-.82,0-1.22.58-1.22,1.74Zm.17,2.79v.69h1.4v-.69Zm.18-88.87.17,1.39h.7l-.18-1.39Zm0,81.88.17,1.4h.7l-.18-1.4Zm.17-18.16v.71l1.4-.18v-.7Zm0,10.48.17,2.1h.7l-.17-2.1Zm.17-28.63.18,2.09,1.4-.17-.18-2.1ZM547,351v.7l1.4-.18v-.69Zm.17,1.4v.69l1.4-.17v-.7Zm.53-31.6.17,1.39h.7l-.17-1.39Zm.7,81.19.17,1.39.7-.18-.18-1.39Zm4-103.89.7-.18.17.7c0,.7-.64,1.46-1.92,2.27l-.69.17-.18-.69C550.48,299.7,551.12,298.94,552.4,298.13ZM551,388.57v.7l1.4-.17v-.71Zm2.63-2.44v.69H555v-.69Zm2.26-8.56V379h.7v-1.4Zm.18-6.29.17,1.4h.7l-.17-1.4Zm.52-2.09.18,1.4h.7l-.18-1.4Zm.88-19.73h1.39l-.17-1.4c-.82.24-1.22.64-1.22,1.22Zm2.27,14.66.17.71,1.4-.18-.18-.7Zm.34,4.2.18,1.39c.81-.11,1.22-.52,1.22-1.22v-.35Zm.18-7.69a1.42,1.42,0,0,0,1.4-1.57l-.18-.7c-.81.24-1.22.7-1.22,1.4Zm0,9.78.17,2.79.7-.17v-.7a4.63,4.63,0,0,1,.53-2.09Zm1.4-30.21.17,1.4H562a.47.47,0,0,1,.53.52.84.84,0,0,0-.7.88l.7-.17a1.23,1.23,0,0,0,1.39-1.4l-.17-.7-1.22.7-.18-1.4Zm1-5.76v.7h1.4v-.7Zm.18,2.1v1.4h.7v-1.4Zm4.19-10.13v.7h1.4v-.7Zm.17,2.79v1.4h.7v-1.4ZM570.39,313v1.39h.69V313Z"/><path class="cls-6" d="M636.91,290.44l8.38,6.12-.7,1.57v.7c1.4,0,2.68,2.26,3.84,6.81q2.63,0,3,5.41a1.42,1.42,0,0,0-1.4,1.57l3,1.4-.7,1.57,1.58,2.27V321A20.48,20.48,0,0,1,643,324h-5.24c-.58,0-.87-.23-.87-.7q-3.15,1.58-22.88,5.24,25.5,13.62,38.24,21.48,14.15,13.78,15.19,20.6,1.21,0,5.42,12.22H672a4.72,4.72,0,0,1,.88,2.27c-.59,1.51-1.11,2.27-1.58,2.27l.7,3.84v1.4q0,3.48-3.66,7h-2.45v.7h-2.27V398.7h-1.4l.71,1.57v.7a1.39,1.39,0,0,1-1.58,1.57h-1.57l-1.4-.7q0,3.5-10,6.11,8.39-7,8.38-9.95l-3,2.27h-1.58V398c1.16,0,3.44-1.28,6.81-3.84v-.7h-.7l-5.41,3h-.7v-1.57h-.87c0,1.62-.76,2.44-2.27,2.44,0-.58-.23-.87-.7-.87l-.7,1.57a6.49,6.49,0,0,1,2.27.7.62.62,0,0,1,.7-.7v.7q0,3.14-6.81,3.14v.7h2.27v1.57q-7.33,3.84-9.95,3.84v-.87h-1.57v1.57h-.7v-2.27a1.39,1.39,0,0,0,1.57-1.57h-.87q0,1.21-3,3.14v-1.57h-.87v.7a8.86,8.86,0,0,1,1.57,3.84H630.8l-1.4-.7v1.57h-.87v-2.44c1.05,0,1.57-.47,1.57-1.4v-.87h-.7q-3.84,2.61-3.84,3.84l-1.57-.7a5.38,5.38,0,0,0-.7,2.27h-.87v-1.57H621q0,2.26-3.14,3.84l-4.54-.7c-.35,2-.88,3-1.57,3H609.5a.62.62,0,0,1-.7.7l-5.41-.7c-2,.81-3,1.57-3,2.27H602v.87l-2.45,3-1.39-.7-2.27,1.4h-1.57v-.7l1.57-2.27V419.3H595l-3,2.27-1.56-.7a1.39,1.39,0,0,1-1.58,1.57l-3-.87a8,8,0,0,1-3.84,1.57l1.58,2.27a2,2,0,0,0,2.26-2.27h.7c.58,0,.88.23.88.7l1.39-.7c.58,0,.88.23.88.7l1.39-.7,1.58.7a.61.61,0,0,1,.69-.7l.88,1.57q-1,0-3.15,3.84h-.69V427h-3l-3.84.7c-1.52-1.63-2.27-3.14-2.27-4.54h-.88a5.49,5.49,0,0,1-.69,2.27h1.57v.87c0,.94-1,1.4-3.15,1.4v.87a1.43,1.43,0,0,0,1.58,1.4,1.42,1.42,0,0,1,1.57-1.4,5.34,5.34,0,0,0,2.27.7v1.57a5.49,5.49,0,0,0-2.27.7l-1.57-.7c-2.56.58-3.85,1.34-3.85,2.27h.7a5.7,5.7,0,0,1,2.27-.87v.87a29.82,29.82,0,0,1,12.22-2.27l-1.39,2.27,1.39.7q2.1-4.55,3.15-4.54l.69,1.57c-1,.12-1.57.58-1.57,1.4H595l1.58-.7a5.34,5.34,0,0,0,2.27.7v1.57l-3.85.87v-.87l-5.23,2.27-.88-1.4-7.5,3v.7h1.39v1.57l-3.84.88-4.54-.88c-.46,0-.7.29-.7.88l-3.84-.88H566v-.69l.87-1.58c-2.55,0-3.84-.52-3.84-1.57a.62.62,0,0,0,.7-.7l1.57.7c1,0,1.57-.47,1.57-1.4v-1.57l-3.14-.87-.7,1.57q-3.13-.69-3.14-3l-1.4.7h-.87c0-1-1-1.57-3-1.57.12-.93.59-1.4,1.4-1.4,0,.47.29.7.87.7l.7-1.57q0-1.05-6.81-5.24a5.65,5.65,0,0,1-.87-2.27l.87-1.57v-.87H550v1.57h-1.4v-1.57l.7-1.4c-.7,0-1.46-.76-2.27-2.27l.7-1.57q6.81.69,8.38,2.27h7l4.54-.7,1.57.7,31.26-9.08h2.27q0-1.05,24.44-11.52,17.11-9.44,25.84-20.61v-.69a104.4,104.4,0,0,0-13.62-7l-1.57.88q-34.92-14-41.9-22.88c.46,0,.7-.29.7-.87q-4.37,0-6.11-6.81-2.28,0-3-8.38a9.91,9.91,0,0,1-3.15-6.81v-.88h1.57v-2.26q-2.45-2.1-3.84-8.38.7-3,3-3a6.72,6.72,0,0,1-.7-2.27l.7-1.57a6.72,6.72,0,0,1-.7-2.27l1.57.69q0-3,8.39-3v1.39H595c1,0,1.58-.46,1.58-1.39-1.52,0-2.27-.53-2.27-1.57a48.73,48.73,0,0,1,7.68-.7c.11.93.58,1.39,1.4,1.39v-.69l-.7-1.57a6.09,6.09,0,0,0,3.84-1.58h.7c.46,0,.69.3.69.87L619.45,292v.71Q622.06,291.33,636.91,290.44Zm-83.81,132v.7h1.57v-.7Zm3-4.71h2.44v-1.4h-.87C556.59,416.44,556.07,416.91,556.07,417.73Zm.87,4.71v.7h1.57v-.7Zm2.27-5.41v1.57c2.56,0,3.84.53,3.84,1.57h1.4a2.16,2.16,0,0,1,2.44-2.44V417c-3.6,0-5.41-.24-5.41-.7A5.53,5.53,0,0,1,559.21,417Zm1.57,2.27-.87,3.14h2.27l-.7-1.57a.62.62,0,0,0,.7-.7Zm-.87,7.68v1.57h.87V427Zm.87-2.27v.7h1.4v-.7Zm2.27,2.27v1.57h1.4C564.45,427.51,564,427,563.05,427Zm1.4-2.27v1.57c2.1,0,3.14.47,3.14,1.4h1.57l1.4-.7a6.66,6.66,0,0,1-.7-2.27l-3.84.7ZM576,428.55H573.7l-9.25.7v.7q4.71,0,4.71,2.27,8.39-2.62,8.39-3.67v-.87Zm-10.65-8.38v.7h2.27v-.7Zm1.57-4.71v.87h1.4v-.87Zm.7,1.57v1.57h.7V417Zm.7,16.06v1.57h.87v-1.57Zm2.27-16.76a26.32,26.32,0,0,1-.7,6.11h.7q3.84,0,3.84-2.27h.87v2.27q6.12-2.61,6.12-3.84c-1,0-1.57-.29-1.57-.87l-1.58.87H574.4v-.87H576V417H573.7a.62.62,0,0,1-.7.7l.7,1.57a1.39,1.39,0,0,1-1.57,1.57c0-.35-.23-1.86-.7-4.54Zm-.7,18.33v.7a5.34,5.34,0,0,1,2.27.7H573v-.7a6.53,6.53,0,0,1-2.44-.7Zm.7,6.81h.87v1.58h-.87Zm2.44-26v.87h1.4v-.87Zm.7,8.38v.87a5.38,5.38,0,0,1,.7,2.27h.87v-3.14Zm.7,18.33h2.27v1.57H576A1.39,1.39,0,0,1,574.4,442.17Zm.87-27.41v1.57h.7v-1.57Zm.7,10.65h1.58v-1.57C576.5,424.07,576,424.59,576,425.41Zm5.42-12.92c0,1.05-1,1.57-3.15,1.57v1.4a45.55,45.55,0,0,1,4.54.87c0-1.05-.46-1.57-1.39-1.57l.69-1.57v-.7Zm-3.15,12.22v1.57h.7v-1.57Zm3.84-4.54v1.4h.7v-1.4Zm9.95-8.38v1.4h-.87a.62.62,0,0,1-.69-.7c-3.61.7-5.42,1.45-5.42,2.27v.7l4.72-1.4.7,1.4v.87c-1.05,0-1.58.23-1.58.7a.62.62,0,0,1-.7-.7l-4.53.7.69,1.57L587.5,417l.69,1.57a10,10,0,0,1-4.53.7v1.57L595,418.6V417l-3.84.7v-1.4h2.27v-.87H592a6.5,6.5,0,0,1,.71-3v-.7Zm-8.37.7v1.57h.69v-1.57Zm.69-101.44v1.57h1.57v-1.57Zm0,126.58h3.84v.7l-3.84.88Zm1.57-5.41v.87h1.58v-.87Zm.7-5.94h1.57v-1.57C587.15,424.83,586.62,425.35,586.62,426.28Zm.88-15.36v.87h1.39v-.87Zm1.39,13.79v1.57a5.84,5.84,0,0,1,3.14-.87v-.7ZM592,409.35v.87h1.4v-.87Zm48-12.92-1.57-.7q-3,2.79-12.22,6.81a5.65,5.65,0,0,1,.87,2.27h-.87l-3.84-1.58a4.72,4.72,0,0,1-4.54,3.15l.87,1.57-1.57.7h-.7v-1.57h-.87q0,3.15-10.66,6.11c-2.56,0-3.84-.47-3.84-1.4a5.35,5.35,0,0,1-2.26.7h-.7v-.7q5.24-1.92,5.24-3.14L595,410.92v.87l1.58,2.27a.62.62,0,0,0-.7.7l1.39.7v-1.4h.88a.62.62,0,0,1,.7.7l1.57-.7c2.56.12,3.84.58,3.84,1.4q4.35,0,13.62-5.24c0,.46.28.7.87.7q0-1.23,5.24-3a6.44,6.44,0,0,0,2.27.7l-.7-1.57a20.23,20.23,0,0,0,6.81-3.85.77.77,0,0,0,.87.88q0-1,13.62-8.38c1.4-2.56,2.44-3.84,3.14-3.84a.62.62,0,0,0,.7.7l.7-1.4-1.4-.88h-.87Q640,391.89,640.05,396.43Zm-44.17,21.3h1.39c1.05,0,1.58-.47,1.58-1.4v-.87C596.87,416.27,595.88,417,595.88,417.73Zm1.39,1.57v.87h1.58v-.87Zm1.58,5.41c1,.12,1.57.64,1.57,1.57h-1.57Zm0,6.81h2.26v.7h-2.26Zm.69-24.44V408h1.57v-.87Zm0,8.38V417h.88v-1.57Zm4.72-7.51v.7h2.27l.7-1.57h-.7A5.7,5.7,0,0,1,604.26,408Zm3-3.84v.7h3.84v-1.58Zm9.95,12.22v.7c0,1.16-1.81,1.92-5.41,2.27Q613,416.33,617.18,416.33Zm-4.54-13.1v2.45h.7a1.39,1.39,0,0,0,1.57-1.57A4.59,4.59,0,0,1,612.64,403.23Zm5.24-.69v1.57h.87c.93,0,1.4-.52,1.4-1.57v-.7A5.42,5.42,0,0,1,617.88,402.54Zm.87,12.92H621a1.39,1.39,0,0,1-1.57,1.57h-.7Zm2.27-.7h1.4v.7H621Zm3-17.46a1.56,1.56,0,0,0,1.57,1.4l-.7,1.57v.7h1.4V397.3Zm1.57,15.19h1.57a1.39,1.39,0,0,1-1.57,1.57Zm4.54,1.57h.7c2.55,1.17,3.84,1.92,3.84,2.27l4.71-2.27c3.5,0,5.24.46,5.24,1.4a6.49,6.49,0,0,0-.7,2.27l-1.57-.7a.62.62,0,0,1-.7.7l-.87-3q-2.1,1.74-7.51,3v.87h2.27a4.69,4.69,0,0,1,2.27-.87v1.57l-3.14.87c0-.58-.24-.87-.7-.87,0,3-.76,4.54-2.27,4.54v-.7a6.49,6.49,0,0,0,.7-3l-2.27,1.4h-2.27v.87h-.7l-1.57-.87a6,6,0,0,0,.7-3l2.27,1.57a5.65,5.65,0,0,1,2.27-.87v-.7l-.7-1.57a1.39,1.39,0,0,0,1.57-1.57H630.1Zm-2.27-16.76-.7,1.4,1.4.87.87-1.57Zm2.27-.87v2.27h.7v-2.27Zm3.84,15.36h.7a1.24,1.24,0,0,1-1.4,1.4h-.87A1.56,1.56,0,0,1,633.94,411.79Zm3-8.56v.88h2.44l.7-1.57h-.7A6.67,6.67,0,0,1,636.91,403.23Zm0,2.45v.7h1.57v-.7Zm3.14-1.57v1.57h.7v-1.57Zm1.57,8.38H643v.7h-1.4Zm.7-9.95v1.57h.7v-1.57Zm.7,9.25h1.57v.7H643Zm2.27-13.09v.87h2.44v-.87Zm1.57,15.36h.87c0,.93-.52,1.4-1.57,1.4h-.87A1.56,1.56,0,0,1,646.86,414.06Zm2.27-10.83H650a1.39,1.39,0,0,1-1.57,1.58h-.7C647.85,403.76,648.31,403.23,649.13,403.23Zm-.7,9.26H650v.7h-1.57Zm3-23.74v.87H653v-.87Zm.87-2.28v.88h1.58v-.88Zm2.27.88v1.4h.7v-1.4Zm3,9.95v.7h.87q1.57-.36,3-3.84h-.7C659.84,394.16,658.79,395.2,657.51,397.3Zm1.57,6.81h1.57v1.57h-1.57Zm3.85-9.95v1.57h.69v-1.57Zm2.26,7.68h.7v1.39h-.7Z"/><path class="cls-6" d="M712.68,267.92a4.29,4.29,0,0,1,.7,1.92l3.49-.87.18,2.09-.7,1.4,1.57.7a1.37,1.37,0,0,1,1.22-1.57l.18,1.39,1.92-1.57h.7q.16,2.8,3.84,4l.17,2.09.7-.17-.17-2.1h1.39v.7L726,279.62l.18.7,1.4-.18-.18-2.09h1.39c-.92,5.59-1.92,8.44-3,8.55v-1.39l.52-1.4h-1.4l-.52,3.49,1.4-.7v.7q-3,12.4-4.54,13.62l-.18-1.4.7-1.39-2.27-1.4-.7.18v.69h.53c.58,0,.93.18,1,.53a4.14,4.14,0,0,0-.53,1.74v.35c.93.12,1.4.58,1.4,1.4l.17,3.49H720l.69-1.39-2.79.17v1.39h.35q1.74,0,1.92,1.92h.7l2.09-1.56V307l-1.22,2.27h.18a.46.46,0,0,1,.52.53c-.81.23-1.22.69-1.22,1.39v.87c.11.47.35.7.7.7,0,1.87-.59,2.8-1.75,2.8V318q0,2.45-2.27,6.11l.87,1.4a5.41,5.41,0,0,0-.69,2.09h1.39c0-.92.64-1.92,1.92-3l1.4.52h.7c.35,0,2.38-1.51,6.11-4.54a7,7,0,0,0,2.79.52V321c0-1.28.88-2,2.62-2.09v.69c.7-.58,2.1-.93,4.19-1v-.7h-1.4l-.17-2.1,2.09,1.4.71-.17v-1.4h2.09l-.7,1.4.18.69,1.39-.17-.87-1.23,1.4-.17c2.79.24,4.24.81,4.36,1.75l1.4-.7c.93,0,1.39.41,1.39,1.22l1.4-.7q14.31,3.66,14.49,8l1.4-.87.87,1.4v2.09l-.52,1.4,1.4.7v1.4c0,2.32-.59,3.55-1.75,3.66l1,3.32-2.1.18-.35-4.9h-.69q0,7-2.45,7.16l1,3.5q-2.8,20.42-5.59,20.77-1.74,0-1.74,3.15v1l1.22-.69h.7l.34,4h.71l.52-3.49,2.09-.18.18,2.8c0,.93-.7,1.46-2.1,1.57a1.42,1.42,0,0,0,1.4,1.22h.17q-2.61,15-3.84,15l.7,1.39.17,1.4a7,7,0,0,1-.52,2.79l.7,1.4c-.23,2.33-.58,3.49-1,3.49a.62.62,0,0,0,.7.7q-.18,4.89-1,4.89l.88,1.4.17,2.79a7.06,7.06,0,0,1-.52,2.8,7.26,7.26,0,0,1,.87,2.79h.7l-.17-2.79,1.39-.18q0,.69-.87,7.16,2.26,2.44,4,8a48.36,48.36,0,0,1,5.76,1.75,3.94,3.94,0,0,1,2.63-.88l.17.7a5.28,5.28,0,0,1,3.31-1.05c2.45.35,3.67.76,3.67,1.23a.47.47,0,0,0,.53-.53v-.17A74.9,74.9,0,0,0,789,430l-1.92,3.49h1.4l.18,1.4q-7.35.53-7.34,5.06v.35l-3.49-.52-.7.17.18,2.1h-.7l-.18-1.4-3.49.18-1.4.87c-.46-1.28-1.69-1.92-3.66-1.92h-.53l-.17-.7.7-1.4h-.7l-2.79,1.05a5.56,5.56,0,0,0-2.1-.7l-1.4.88q-3.5,0-3.66-1.92l-.7.17.17,2.1H756c-.93,0-1.45-.71-1.57-2.1l-1.39.17.17,1.4-1.4.18a.62.62,0,0,1-.7-.7l-1.39.7c-1.75-2-3.44-3-5.06-3.15a20.14,20.14,0,0,1-9.08-9.08.61.61,0,0,0,.69-.69q-3.66,0-7.51-17.12l-.52-7.68V401a.47.47,0,0,1,.52-.53l-.69-1.39v-.88a.46.46,0,0,1,.52-.52.62.62,0,0,0-.7-.7,27.53,27.53,0,0,1-.17-3.14,59.34,59.34,0,0,1,3.49-19.38q3-22,5.42-22.18L735.9,351c.35-1.51.76-2.27,1.23-2.27a3.78,3.78,0,0,1-.88-2.09,8.92,8.92,0,0,0,1.23-4.19q-3.86,1.22-10.13,7.68h-.7l.7-1.4h-.7q-1,.18-7.86,7.68h-.69l1.22-2.27-.18-2.09-.69.17a6.75,6.75,0,0,0-1.75,4.37v.52h.7q-4.2,3-4.19,11.18a16.68,16.68,0,0,0,.17,2.44v.18q0,2.79-3.49,9.77c0,2.33-.58,3.55-1.75,3.67a82.34,82.34,0,0,1,2.1,10.3l-1.4.18q0-.36-1.92-7.51a6.86,6.86,0,0,0,.53-2.27l-1.4.17.35-4.89-.35-4.19.7-1.39a1.42,1.42,0,0,1-1.57-1.4l-.18-2.79,2.1-.18-1.23-6.81a4.64,4.64,0,0,1,2.1-.87,6.48,6.48,0,0,1-1.57-4q-2.1,0-2.62,23.23h-1.4l.35,4.88h.7l-.17-2.79h1.39l.17,3.49a.47.47,0,0,0,.53.53h.18a6.73,6.73,0,0,0-.53,2.09l-1.4.17-.17-1.39a3.78,3.78,0,0,1-1.92.87l.87,3.49.35,4-.7.17c-2-.69-3-2.27-3.14-4.71h.7a8.81,8.81,0,0,1-1.75-4.89l-.7.18v.7c0,.93-.17,1.39-.52,1.39l.7,1.4.35,4-1.4.18-.17-2.1h-.7V394c0,1.17-.41,1.81-1.22,1.92,0-1-2-2.56-5.94-4.54q-2.44-9.42-4.89-9.42v-.7l1.4-.18-.18-2.79-1.39.17v-.69c0-.93.17-1.4.52-1.4l-.87-3.49-.18-2.1q1.23-2.79,3-18.33l1.22-.88-.7-1.39v-1.75c0-3.37,1-5.18,3-5.41v-1.4l-1.4.18c.12-4.19.88-6.35,2.27-6.46l-.87-1.4q0-2.1,3.32-12.92h-.17a.46.46,0,0,1-.53-.52q1.74-2.28,4.19-9.43a.62.62,0,0,0-.7-.7c1.4-7.56,2.8-11.41,4.19-11.52l-.87-1.23q6.63-25,9.43-25.14C710.3,269.44,711.87,267.92,712.68,267.92ZM685.79,384.55V386l-1.39.18A1.58,1.58,0,0,1,685.79,384.55Zm14.32,4.55v1.39h.7V389.1Zm1-23.05a1.42,1.42,0,0,0,1.4,1.22h.17l-.17-1.4Zm3.32,25.66,1.39-.17v2.09h-.34c-.71,0-1-.4-1-1.22Zm6.28-20.08v.53a11.19,11.19,0,0,1-1,4.36h1.4l1-5.06Zm-.52-37,1.39-.18,1-4.88H712C711.17,329.56,710.59,331.24,710.24,334.62Zm.17,53.08,2.1-.18v.35c0,.7-.41,1.11-1.22,1.23Zm.7-20.95v1.39l.7-.17v-1.4Zm.87-6.47-.52,3,.17,1.22h.7l.53-3.49-.18-.7Zm-.52,21.13,1.4-.17.17,3.49-1.4.17V384a.46.46,0,0,1,.53-.52l-.7-1.4Zm.35-54.65.17,2.1h.7l-.17-2.1Zm0,51.16,1.4-.17.17,1.39H713C712.33,379.14,711.92,378.74,711.81,377.92Zm.35-56.05,1.4-.17-.18-1.4c-.81.24-1.22.7-1.22,1.4Zm.17,1.4v1.4l1.4-.18-.17-1.4Zm1.4,1.92.87,1.4-.7,1.4h1.4l-.17-2.8Zm.7-9.78-.53,1.4v.7l1.4-.87,1.4.69v-1.39A6.8,6.8,0,0,1,714.43,315.41Zm-.35,3.5v1.39h.7v-1.39Zm.18,2.09v1.4H715V321Zm2.61-11.35V310c0,1.16-.41,1.75-1.22,1.75a4.71,4.71,0,0,1,.88,2.09h.69l.35-3.67v-.69Zm-.17-3.49a6.58,6.58,0,0,1-.52,2.09h.17c.7,0,1.8.64,3.32,1.92l1.39-.17a4.43,4.43,0,0,1-.69-2.09l-1.4.87h-.7L718.1,306Zm1.22,8.9a12.09,12.09,0,0,1,2.1-.87l-.7-1.22a6.62,6.62,0,0,0,.52-2.1Q718.45,310.87,717.92,315.06Zm4.19-10.82h1.4l.17,1.4A1.43,1.43,0,0,1,722.11,304.24Zm1.57,42.6.18,1.4h1.39l-.17-1.4Zm1.57-49.06.7,1.39v.35c0,.7-.41,1.05-1.22,1.05l-.7.18-.17-1.4A1.57,1.57,0,0,1,725.25,297.78Zm2.45,46.79h.7a1.41,1.41,0,0,0,1.39-1.57h-.69A1.56,1.56,0,0,0,727.7,344.57Zm6.11-4a1.42,1.42,0,0,1-1.4,1.57l.18.71h.7a3.7,3.7,0,0,1,1.92-.88v-1.4ZM735.38,395l.18,1.4h.69l-.17-1.4Zm.18,2.1.17,2.09h1.4a11.82,11.82,0,0,1-.88-2.09Zm.34-56.58,1.4.53-.17-2.09c-.82.23-1.23.69-1.23,1.39Zm.18,62.86v1.4h.7v-1.4Zm.35-14.66v1.39h.7v-1.39Zm4.19-.36.17,3.5a1.56,1.56,0,0,0,1.58,1.39v-.52c0-.58.17-.93.52-1.05a6.3,6.3,0,0,1-1.57-3.32Zm1.92-11.34-.52,3c.92-.12,1.39-.88,1.39-2.27l-.17-.7Zm1.05-7-.53,3.49v.7h.7l.53-2.79v-1.4Zm.35,27.24.17.7h1.4l-.18-.7Zm.17-9.08.18,3.49a6.94,6.94,0,0,1,2.09.52v-2.09h-.17c-.82,0-1.29-.64-1.4-1.92Zm1-3.67.17,1.4h2.1a1.43,1.43,0,0,0-1.57-1.4Zm.35,25.32.17,1.4.7-.17-.17-1.4Zm2.79,10.3.18,1.4c.81-.12,1.22-.52,1.22-1.22V420Zm1.05-26.71v1.4h.7v-1.4Zm0,30h1.39l-.17-1.39c-.81.22-1.22.63-1.22,1.21Zm.18-37v.7l1.39-.17v-.7Zm0,9.08V397l1.39-.17v-1.4Zm.17,3.5a3.83,3.83,0,0,1,.87,2.09l.7-.17-.18-2.1Zm.17-8.38.18,2.09.69-.17-.17-2.1Zm.18-7.16h1.4l-.18-1.4A1.41,1.41,0,0,0,750.05,383.51Zm.69,9.77v.7h1.4v-.7Zm.35-16.06.18,3.49h.7l-.35-3.49Zm.53,9.78.17,1.39h.7l-.17-1.39Zm.17-19.56v.7l1.4-.17v-.7Zm.7,1.23.17,2.79a4.34,4.34,0,0,1,1.58,2.79l.7-.17a6.68,6.68,0,0,1,.52-2.1l-1.92.18-.17-.7.69-1.4,1.4.53h.7l-.87-1.4a.61.61,0,0,0,.69-.7Zm.17,11.87v1.4h.71v-1.4Zm.36-4.89a12.09,12.09,0,0,1,.87,2.1h.7v-.36a4.37,4.37,0,0,1,.52-1.92Zm7.51-41.73v1.22a10.46,10.46,0,0,1-1.58,5.77.61.61,0,0,1,.7.69c-.7,0-1.69,2.16-3,6.46l.88,1.4q0,.53-4,15l.35,2.8h.7l-.18-1.4.7-.17,1.4.69-.18-2.09-.69-1.39c1.16-.12,1.92-2.28,2.26-6.47a4.43,4.43,0,0,1-.69-2.09q1.74,0,3.49-9.26a1.41,1.41,0,0,1-1.57-1.39c1.4-.12,2.15-3,2.27-8.56l-.18-1.39Zm-4.72,62.51v.35a8.12,8.12,0,0,1-1,3.32,7.26,7.26,0,0,1,.88,2.79.62.62,0,0,1-.7.7l.87,1.39.35,6.81,1.4,8.38h.69l-.17-.7a49.66,49.66,0,0,1-1.22-7.68l-.53-7.68a.62.62,0,0,1,.7-.7.62.62,0,0,0-.7-.7c.12-1.74.18-3.14.18-4.19v-2.09Zm3.32-22.53q-1.75,14.14-3.84,14.15a29.19,29.19,0,0,1,1.22,7h.7v-.7a6.49,6.49,0,0,1,1-3.66l-.87-1.23,3.15-15.71Zm-2.62,3,.17,1.4h.7l-.17-1.4ZM760,366.75l.17,2.09h-.35c-.69,0-1-.41-1-1.22Zm.17-9.08a20.27,20.27,0,0,0-1,4.19V362l1.4-.17.34-3.5v-.69Zm.53,37.71h1.39l.18,2.09h-1.4Zm.52-41.21.18,1.4.69-.17-.17-1.4Zm.35,65h.7l.18,1.39h-.71Zm1-55.35,1.57.69v-.17a.69.69,0,0,1,.52-.7l.18.7a1.42,1.42,0,0,1-1.4,1.57l-.7-1.4ZM764,354l1.4-.17.18,1.39h-1.4Zm.18-28.81.18,1.4h.69l-.17-1.4Zm3.32,16.59h.7A8.89,8.89,0,0,0,767,346l-.69.17-.18-2.79C766.22,342.3,766.69,341.78,767.51,341.78Zm-.87-11.18v.7H768v-.7ZM770,438.86l.18.69,2.09-.17-.17-1.22A4.53,4.53,0,0,1,770,438.86Z"/><path class="cls-6" d="M809.76,288q1.23,4.37,3.84,5.59c.12-2,.76-3,1.93-3h.7L815,294.11c.93,0,1.4.7,1.4,2.1l2.1-1.57h2.09v.69l-1.92,3.5v.69h1.4c.11-2.32.75-3.55,1.92-3.66h.69l.18.7-.7,1.39h.7a7.31,7.31,0,0,1,2.79-.87q0,1.05-3,10.65a17.77,17.77,0,0,1,1.58,6.29h-.7l.87,1.39-3.84,9.95,1.4.53v1.05c0,2.09-.59,3.2-1.75,3.31l.7,1.4v1.57a.47.47,0,0,1-.52.53l.69,1.39v.53c0,2-.64,3-1.92,3l.7,1.4.18,1.4a1.24,1.24,0,0,1-1.4,1.4.46.46,0,0,0-.52-.53H818a8.3,8.3,0,0,1-1.22,3.49h.7l1.39-.87v1.4Q817.45,357,816.58,357l.69,1.39-1.22,2.1h1.4l-.7,1.4a.61.61,0,0,0,.7.69,11.32,11.32,0,0,0-1.05,4.37v.52h.7l-.7,1.4.35,8.38h-.7c-.93,0-1.46-1.57-1.57-4.71h-.7l.35,7,1.4-.7.7-.17v.69l1,7-1.57-.7.17.7q.18,1.57,4.37,4.72a14.5,14.5,0,0,1,1.57,4.88c-.81,0-1.22.35-1.22,1.05v.35c-3.38-.12-5.06-.47-5.06-1.05l-1.4.7q-4.89-3.13-7.51-3.14h-.17a1.23,1.23,0,0,1-1.4,1.39h-.7c-1.86,0-2.79-.4-2.79-1.22-1.87.47-2.8,1-2.8,1.57-.69,0-2.85-1.74-6.45-5.24l-1.4.71h-.7c-.12-.94-1.69-3.61-4.71-8l.69-3.67H786c-1.28,0-2-1.56-2.27-4.71l-.18-2.79.53-4.19-.7-1.4.52-4.19-.17-3.49h1.4v-1.4h-1.4l-.18-2.09H785v1.39l.7-.17v-2.8l-1.4.18q1.22-1.92,2.8-14.14,9.42-49.41,18-49.76l1.4.52Zm-23.57,93.41v.7h1.4v-.7Zm5.24,6.11v1.4h.7v-1.4Zm14.49-46.09,1.4-.18v-1.39A1.56,1.56,0,0,0,805.92,341.43Zm4.19-15.54.18,1.39.7-.17-.18-1.4Zm.7-1.57h.7l.52-3.49c-.81,0-1.22.58-1.22,1.74Zm1.05-5.59.17,1.39h.7l-.17-1.39Zm2.45-7.86v.35a14.71,14.71,0,0,1-1.75,5.42v.69h.7l1.92-5.76-.18-.7ZM826,214.67l4,4,.17-.88h1q10.47,7.5,10.47,13.8a3.19,3.19,0,0,1-.17,1c.23.12.35.52.35,1.23v.87l-.18.52q-4,11.35-4.18,12.92a.31.31,0,0,1,.34.35v.18c-.69,0-1,.29-1,.87a5.38,5.38,0,0,1,.17,1.22v.35q-1.21,0-4.54,11.35a16,16,0,0,1-5.23,3.84V266c0-.46-.3-.7-.88-.7-.23,1.52-.58,2.27-1.05,2.27h-.69c-.82-.11-1.23-.87-1.23-2.27v-.52l-1,.35v-4.54l-.88-.18.35,1-.52,3.14c0,.59-.24.88-.7.88h-.35l-.52-.18q-1.23,0-1.75-5.76l-1.05-.7-.17,1.92h-.52c-1.05-.23-1.58-1.33-1.58-3.31a19.48,19.48,0,0,1,.18-2.45l-1.05.35-.7-1.75a.31.31,0,0,1,.35-.35h.17l-.34-1.22.69-5.41.18-5.24,1,.18.35-2.62.52.17-.18-2.62q2.46-9.78,3.85-9.77l-.35-1.05v-.53h1l.34-3a.69.69,0,0,1,.7-.52c0-.23-.17-.4-.52-.52,1.4-4.19,2.38-6.29,3-6.29l.87.7q.35-.87,1.05-.87ZM814.13,364.12v2.1h.7v-2.1Zm2.62-60.23.17.7,1.4-.18-.17-2.09A1.55,1.55,0,0,0,816.75,303.89Zm0,42.6v2.1h.7v-2.1Zm1-90.09-.17.87,1,.18.17-1.05Zm.36-3.15a5.7,5.7,0,0,1,.35,1.58l.52.17.17-1.57Zm0,47v1.4h.69v-1.4Zm.17-48v.52l1,.18v-.53Zm.18,43.12.17,1.4h.7l-.18-1.4Zm2.26,17.46,1.4-.17-.17-1.4A1.52,1.52,0,0,0,820.76,312.79Zm2.45-5.76h.7l.17,1.4h-.7Zm1.22-3.49.7-.18.17,1.4-.69.18Z"/></svg>