<svg id="Capa_1" data-name="Capa 1" xmlns="http://www.w3.org/2000/svg" xmlns:xlink="http://www.w3.org/1999/xlink" viewBox="0 0 1039 474"><defs><style>.cls-1{fill:#693737;}.cls-2{fill:#ff4039;}.cls-3,.cls-4{font-size:40px;}.cls-3{font-family:Kalam-Bold, Kalam;font-weight:700;}.cls-4{fill:#ffba96;font-family:Poppins-Regular, Poppins;}</style></defs><rect class="cls-1" width="1039" height="474"/><path class="cls-2" d="M1038.68.25V278.37a253.88,253.88,0,0,1-118,28.88c-140.83,0-255-114.17-255-255A255.29,255.29,0,0,1,671,.25Z" transform="translate(0.32 -0.25)"/><text class="cls-3" transform="translate(52.21 159.86) scale(1.08 1)">TIRAMISÚ</text><path d="M62,192.7l-3.24-5.13H56.63v5.13H54.85V180.15h4.39a6.12,6.12,0,0,1,2.6.49A3.55,3.55,0,0,1,63.43,182a3.45,3.45,0,0,1,.53,1.89,3.52,3.52,0,0,1-.81,2.29,4,4,0,0,1-2.43,1.31l3.41,5.26Zm-5.38-6.45h2.61a3.15,3.15,0,0,0,2.16-.65,2.28,2.28,0,0,0,.72-1.76,2.15,2.15,0,0,0-.71-1.73,3.25,3.25,0,0,0-2.17-.61H56.63Z" transform="translate(0.32 -0.25)"/><path d="M66.76,180.91a1.08,1.08,0,0,1,0-1.59,1.25,1.25,0,0,1,.86-.32,1.18,1.18,0,0,1,.83.32,1.1,1.1,0,0,1,0,1.59,1.18,1.18,0,0,1-.83.32A1.25,1.25,0,0,1,66.76,180.91Zm1.72,1.92v9.87H66.7v-9.87Z" transform="translate(0.32 -0.25)"/><path d="M71.5,185.07a4.55,4.55,0,0,1,1.84-1.77,6.28,6.28,0,0,1,6,.25A4.15,4.15,0,0,1,81,186H79.06A2.51,2.51,0,0,0,78,184.58a3.47,3.47,0,0,0-2-.52,3.3,3.3,0,0,0-2.46,1,3.76,3.76,0,0,0-.93,2.73,3.83,3.83,0,0,0,.93,2.75,3.27,3.27,0,0,0,2.46,1A3.57,3.57,0,0,0,78,191a2.56,2.56,0,0,0,1.07-1.44H81A4.33,4.33,0,0,1,79.26,192a5.42,5.42,0,0,1-3.22.91,5.66,5.66,0,0,1-2.7-.63,4.57,4.57,0,0,1-1.84-1.78,5.81,5.81,0,0,1,0-5.38Z" transform="translate(0.32 -0.25)"/><path d="M85.27,192.23a4.71,4.71,0,0,1-1.91-1.79,5.18,5.18,0,0,1-.69-2.69,5,5,0,0,1,.71-2.68,4.77,4.77,0,0,1,1.94-1.78,6.39,6.39,0,0,1,5.49,0,4.81,4.81,0,0,1,1.94,1.77,5,5,0,0,1,.71,2.69,4.93,4.93,0,0,1-.73,2.69,4.87,4.87,0,0,1-2,1.79,6.1,6.1,0,0,1-2.77.63A5.83,5.83,0,0,1,85.27,192.23ZM89.78,191a3.31,3.31,0,0,0,1.36-1.24,3.75,3.75,0,0,0,.51-2,3.85,3.85,0,0,0-.5-2,3.21,3.21,0,0,0-1.33-1.23,4.07,4.07,0,0,0-3.56,0A3.05,3.05,0,0,0,85,185.73a3.85,3.85,0,0,0-.49,2,4,4,0,0,0,.48,2A3,3,0,0,0,86.23,191a3.86,3.86,0,0,0,1.76.41A4,4,0,0,0,89.78,191Z" transform="translate(0.32 -0.25)"/><path d="M104.35,183.24a5,5,0,0,1,2.43-.57,5.3,5.3,0,0,1,2.58.63,4.62,4.62,0,0,1,1.82,1.77,5.25,5.25,0,0,1,.66,2.66,5.33,5.33,0,0,1-.66,2.66,4.68,4.68,0,0,1-1.82,1.82,5.2,5.2,0,0,1-2.58.65,4.93,4.93,0,0,1-2.41-.57,4.32,4.32,0,0,1-1.59-1.41v6.5H101V182.83h1.77v1.82A4.1,4.1,0,0,1,104.35,183.24Zm5.19,2.54a3.24,3.24,0,0,0-1.31-1.26,4,4,0,0,0-1.82-.43,3.87,3.87,0,0,0-1.81.44,3.38,3.38,0,0,0-1.32,1.28,4,4,0,0,0,0,3.89A3.38,3.38,0,0,0,104.6,191a4,4,0,0,0,3.63,0,3.29,3.29,0,0,0,1.31-1.28,3.82,3.82,0,0,0,.49-2A3.74,3.74,0,0,0,109.54,185.78Z" transform="translate(0.32 -0.25)"/><path d="M116.12,192.23a4.71,4.71,0,0,1-1.91-1.79,5.18,5.18,0,0,1-.69-2.69,5.08,5.08,0,0,1,.71-2.68,4.83,4.83,0,0,1,1.94-1.78,6.41,6.41,0,0,1,5.5,0,4.88,4.88,0,0,1,1.94,1.77,5.07,5.07,0,0,1,.71,2.69,5,5,0,0,1-.73,2.69,5,5,0,0,1-2,1.79,6.07,6.07,0,0,1-2.77.63A5.83,5.83,0,0,1,116.12,192.23Zm4.51-1.23a3.31,3.31,0,0,0,1.36-1.24,4.2,4.2,0,0,0,0-4,3.21,3.21,0,0,0-1.33-1.23,4,4,0,0,0-3.55,0,3.08,3.08,0,0,0-1.3,1.23,4.47,4.47,0,0,0,0,4.05,3,3,0,0,0,1.28,1.23,3.79,3.79,0,0,0,1.75.41A3.9,3.9,0,0,0,120.63,191Z" transform="translate(0.32 -0.25)"/><path d="M128.24,192.47a3.69,3.69,0,0,1-1.54-1.08,2.72,2.72,0,0,1-.63-1.59h1.83a1.68,1.68,0,0,0,.75,1.2,3,3,0,0,0,1.77.47,2.79,2.79,0,0,0,1.6-.41,1.25,1.25,0,0,0,.58-1.05,1,1,0,0,0-.62-1,9.11,9.11,0,0,0-1.93-.62,16.29,16.29,0,0,1-1.94-.58,3.51,3.51,0,0,1-1.29-.89,2.36,2.36,0,0,1,0-2.92,3.35,3.35,0,0,1,1.39-1,5.26,5.26,0,0,1,2-.37,4.63,4.63,0,0,1,2.87.83,2.89,2.89,0,0,1,1.17,2.27h-1.77a1.68,1.68,0,0,0-.68-1.25,2.66,2.66,0,0,0-1.64-.46,2.69,2.69,0,0,0-1.52.37,1.16,1.16,0,0,0-.57,1,1,1,0,0,0,.34.81,2.57,2.57,0,0,0,.86.5,12.79,12.79,0,0,0,1.43.42,14.91,14.91,0,0,1,1.87.57,3.21,3.21,0,0,1,1.24.84,2.17,2.17,0,0,1,.54,1.45,2.4,2.4,0,0,1-.49,1.46,3.3,3.3,0,0,1-1.37,1,5.26,5.26,0,0,1-2,.37A5.87,5.87,0,0,1,128.24,192.47Z" transform="translate(0.32 -0.25)"/><path d="M139,184.18V190a1.26,1.26,0,0,0,.34,1,1.71,1.71,0,0,0,1.15.3h1.3v1.39h-1.6a3.38,3.38,0,0,1-2.22-.63,2.59,2.59,0,0,1-.74-2.07v-5.82h-1.38v-1.35h1.38v-2.48H139v2.48h2.79v1.35Z" transform="translate(0.32 -0.25)"/><path d="M147,183.12a4.46,4.46,0,0,1,2.12-.47v1.69h-.47c-2,0-3,1-3,3v5.37h-1.77v-9.87h1.77v1.6A3.29,3.29,0,0,1,147,183.12Z" transform="translate(0.32 -0.25)"/><path d="M160.88,188.38h-8.53a3,3,0,0,0,1.08,2.27,3.57,3.57,0,0,0,2.38.82,3.47,3.47,0,0,0,1.92-.49,2.63,2.63,0,0,0,1.09-1.33h1.91A4.3,4.3,0,0,1,159,192a5.51,5.51,0,0,1-3.2.89,5.7,5.7,0,0,1-2.71-.63,4.72,4.72,0,0,1-1.89-1.79,5.7,5.7,0,0,1,0-5.38,4.54,4.54,0,0,1,1.86-1.77,5.93,5.93,0,0,1,2.75-.62,5.68,5.68,0,0,1,2.69.61,4.52,4.52,0,0,1,1.81,1.68,4.73,4.73,0,0,1,.63,2.43A8.74,8.74,0,0,1,160.88,188.38Zm-2.22-2.95a2.78,2.78,0,0,0-1.22-1,4,4,0,0,0-1.7-.35,3.43,3.43,0,0,0-2.29.79,3.17,3.17,0,0,0-1.09,2.19h6.75A2.84,2.84,0,0,0,158.66,185.43Z" transform="translate(0.32 -0.25)"/><path d="M172.83,184.18h-2.24v8.52h-1.78v-8.52h-1.38v-1.35h1.38v-.7a3,3,0,0,1,.93-2.42,4.66,4.66,0,0,1,3-.77v1.37a2.41,2.41,0,0,0-1.64.43,1.76,1.76,0,0,0-.48,1.39v.7h2.24Z" transform="translate(0.32 -0.25)"/><path d="M178,183.12a4.46,4.46,0,0,1,2.12-.47v1.69h-.47c-2,0-3,1-3,3v5.37H174.9v-9.87h1.77v1.6A3.29,3.29,0,0,1,178,183.12Z" transform="translate(0.32 -0.25)"/><path d="M182.22,180.91a1.08,1.08,0,0,1,0-1.59,1.25,1.25,0,0,1,.86-.32,1.18,1.18,0,0,1,.83.32,1.1,1.1,0,0,1,0,1.59,1.18,1.18,0,0,1-.83.32A1.25,1.25,0,0,1,182.22,180.91Zm1.72,1.92v9.87h-1.77v-9.87Z" transform="translate(0.32 -0.25)"/><path d="M188.9,192.23a4.71,4.71,0,0,1-1.91-1.79,5.18,5.18,0,0,1-.69-2.69,5,5,0,0,1,.71-2.68,4.77,4.77,0,0,1,1.94-1.78,6.39,6.39,0,0,1,5.49,0,4.81,4.81,0,0,1,1.94,1.77,5,5,0,0,1,.71,2.69,4.93,4.93,0,0,1-.73,2.69,4.87,4.87,0,0,1-2,1.79,6.1,6.1,0,0,1-2.77.63A5.83,5.83,0,0,1,188.9,192.23Zm4.51-1.23a3.31,3.31,0,0,0,1.36-1.24,4.24,4.24,0,0,0,0-4,3.12,3.12,0,0,0-1.32-1.23,4.07,4.07,0,0,0-3.56,0,3.05,3.05,0,0,0-1.29,1.23,3.85,3.85,0,0,0-.49,2,4,4,0,0,0,.48,2,3,3,0,0,0,1.27,1.23,3.86,3.86,0,0,0,1.76.41A4,4,0,0,0,193.41,191Z" transform="translate(0.32 -0.25)"/><path d="M204.64,185.07a4.62,4.62,0,0,1,1.82-1.77,5.35,5.35,0,0,1,2.6-.63,5.2,5.2,0,0,1,2.32.53,4.06,4.06,0,0,1,1.64,1.4v-5.22h1.79V192.7H213v-1.86a4,4,0,0,1-1.56,1.45,5,5,0,0,1-2.42.57,5.2,5.2,0,0,1-2.58-.65,4.68,4.68,0,0,1-1.82-1.82,5.33,5.33,0,0,1-.67-2.66A5.25,5.25,0,0,1,204.64,185.07Zm7.89.73a3.33,3.33,0,0,0-1.31-1.27,4,4,0,0,0-3.64,0,3.3,3.3,0,0,0-1.31,1.26,3.84,3.84,0,0,0-.48,1.95,3.91,3.91,0,0,0,.48,2,3.35,3.35,0,0,0,1.31,1.28,3.81,3.81,0,0,0,1.81.44,3.89,3.89,0,0,0,1.83-.44,3.29,3.29,0,0,0,1.31-1.28,3.77,3.77,0,0,0,.49-1.95A3.72,3.72,0,0,0,212.53,185.8Z" transform="translate(0.32 -0.25)"/><path d="M227.5,188.38H219a3.1,3.1,0,0,0,1.08,2.27,3.61,3.61,0,0,0,2.39.82,3.47,3.47,0,0,0,1.92-.49,2.56,2.56,0,0,0,1.08-1.33h1.91a4.23,4.23,0,0,1-1.71,2.32,5.51,5.51,0,0,1-3.2.89,5.77,5.77,0,0,1-2.72-.63,4.69,4.69,0,0,1-1.88-1.79,5.27,5.27,0,0,1-.68-2.69,5.34,5.34,0,0,1,.66-2.69,4.6,4.6,0,0,1,1.86-1.77,6,6,0,0,1,2.76-.62,5.68,5.68,0,0,1,2.69.61,4.43,4.43,0,0,1,1.8,1.68,4.64,4.64,0,0,1,.64,2.43A8.74,8.74,0,0,1,227.5,188.38Zm-2.22-2.95a2.83,2.83,0,0,0-1.22-1,4,4,0,0,0-1.71-.35,3.45,3.45,0,0,0-2.29.79A3.13,3.13,0,0,0,219,187h6.75A2.84,2.84,0,0,0,225.28,185.43Z" transform="translate(0.32 -0.25)"/><path d="M235.1,185.07a4.61,4.61,0,0,1,1.84-1.77,5.66,5.66,0,0,1,2.7-.63,5.59,5.59,0,0,1,3.25.88,4.15,4.15,0,0,1,1.68,2.45h-1.91a2.51,2.51,0,0,0-1.06-1.42,3.47,3.47,0,0,0-2-.52,3.26,3.26,0,0,0-2.45,1,3.73,3.73,0,0,0-.94,2.73,3.79,3.79,0,0,0,.94,2.75,3.23,3.23,0,0,0,2.45,1,3.57,3.57,0,0,0,2-.5,2.56,2.56,0,0,0,1.07-1.44h1.91a4.29,4.29,0,0,1-1.71,2.42,5.42,5.42,0,0,1-3.22.91,5.66,5.66,0,0,1-2.7-.63,4.63,4.63,0,0,1-1.84-1.78,5.81,5.81,0,0,1,0-5.38Z" transform="translate(0.32 -0.25)"/><path d="M246.93,185.07a4.62,4.62,0,0,1,1.82-1.77,5.37,5.37,0,0,1,2.59-.63,5.07,5.07,0,0,1,2.43.56,3.9,3.9,0,0,1,1.54,1.4v-1.8h1.8v9.87h-1.8v-1.84a4,4,0,0,1-1.57,1.43,5,5,0,0,1-2.42.57,5.2,5.2,0,0,1-2.58-.65,4.72,4.72,0,0,1-1.81-1.82,5.33,5.33,0,0,1-.66-2.66A5.25,5.25,0,0,1,246.93,185.07Zm7.9.73a3.42,3.42,0,0,0-1.32-1.27,3.85,3.85,0,0,0-1.82-.44,3.94,3.94,0,0,0-1.82.43,3.28,3.28,0,0,0-1.3,1.26,3.74,3.74,0,0,0-.49,1.95,3.82,3.82,0,0,0,.49,2,3.33,3.33,0,0,0,1.3,1.28,4,4,0,0,0,3.64,0,3.38,3.38,0,0,0,1.32-1.28,3.86,3.86,0,0,0,.48-1.95A3.81,3.81,0,0,0,254.83,185.8Z" transform="translate(0.32 -0.25)"/><path d="M263.45,183.24a5,5,0,0,1,2.43-.57,5.33,5.33,0,0,1,2.58.63,4.62,4.62,0,0,1,1.82,1.77,5.25,5.25,0,0,1,.66,2.66,5.33,5.33,0,0,1-.66,2.66,4.68,4.68,0,0,1-1.82,1.82,5.23,5.23,0,0,1-2.58.65,4.93,4.93,0,0,1-2.41-.57,4.24,4.24,0,0,1-1.59-1.41v6.5h-1.77V182.83h1.77v1.82A4.1,4.1,0,0,1,263.45,183.24Zm5.19,2.54a3.24,3.24,0,0,0-1.31-1.26,4,4,0,0,0-1.82-.43,3.84,3.84,0,0,0-1.81.44,3.38,3.38,0,0,0-1.32,1.28,4,4,0,0,0,0,3.89A3.38,3.38,0,0,0,263.7,191a4,4,0,0,0,3.63,0,3.29,3.29,0,0,0,1.31-1.28,3.82,3.82,0,0,0,.49-2A3.74,3.74,0,0,0,268.64,185.78Z" transform="translate(0.32 -0.25)"/><path d="M273.28,185.07a4.62,4.62,0,0,1,1.82-1.77,5.37,5.37,0,0,1,2.59-.63,5.07,5.07,0,0,1,2.43.56,3.9,3.9,0,0,1,1.54,1.4v-1.8h1.8v9.87h-1.8v-1.84a4,4,0,0,1-1.57,1.43,5,5,0,0,1-2.42.57,5.2,5.2,0,0,1-2.58-.65,4.72,4.72,0,0,1-1.81-1.82,5.33,5.33,0,0,1-.66-2.66A5.25,5.25,0,0,1,273.28,185.07Zm7.9.73a3.42,3.42,0,0,0-1.32-1.27,3.85,3.85,0,0,0-1.82-.44,3.9,3.9,0,0,0-1.81.43,3.24,3.24,0,0,0-1.31,1.26,3.74,3.74,0,0,0-.49,1.95,3.82,3.82,0,0,0,.49,2,3.29,3.29,0,0,0,1.31,1.28,3.79,3.79,0,0,0,1.81.44,3.85,3.85,0,0,0,1.82-.44,3.38,3.38,0,0,0,1.32-1.28,3.86,3.86,0,0,0,.48-1.95A3.81,3.81,0,0,0,281.18,185.8Z" transform="translate(0.32 -0.25)"/><path d="M288,192.47a3.69,3.69,0,0,1-1.54-1.08,2.72,2.72,0,0,1-.63-1.59h1.83a1.66,1.66,0,0,0,.76,1.2,2.93,2.93,0,0,0,1.76.47,2.79,2.79,0,0,0,1.6-.41,1.25,1.25,0,0,0,.58-1.05,1,1,0,0,0-.62-1,9.11,9.11,0,0,0-1.93-.62,16.29,16.29,0,0,1-1.94-.58,3.51,3.51,0,0,1-1.29-.89,2.36,2.36,0,0,1-.05-2.92,3.35,3.35,0,0,1,1.39-1,5.26,5.26,0,0,1,2-.37,4.63,4.63,0,0,1,2.87.83,2.89,2.89,0,0,1,1.17,2.27h-1.77a1.68,1.68,0,0,0-.68-1.25,2.66,2.66,0,0,0-1.64-.46,2.69,2.69,0,0,0-1.52.37,1.16,1.16,0,0,0-.57,1,1,1,0,0,0,.34.81,2.57,2.57,0,0,0,.86.5,12.79,12.79,0,0,0,1.43.42,14.91,14.91,0,0,1,1.87.57,3.21,3.21,0,0,1,1.24.84,2.17,2.17,0,0,1,.54,1.45,2.4,2.4,0,0,1-.49,1.46,3.3,3.3,0,0,1-1.37,1,5.26,5.26,0,0,1-2,.37A5.87,5.87,0,0,1,288,192.47Z" transform="translate(0.32 -0.25)"/><path d="M301.84,185.07a4.56,4.56,0,0,1,1.82-1.77,5.35,5.35,0,0,1,2.6-.63,5.23,5.23,0,0,1,2.32.53,4.13,4.13,0,0,1,1.64,1.4v-5.22H312V192.7h-1.79v-1.86a4,4,0,0,1-1.56,1.45,5,5,0,0,1-2.42.57,5.2,5.2,0,0,1-2.58-.65,4.62,4.62,0,0,1-1.82-1.82,5.23,5.23,0,0,1-.67-2.66A5.15,5.15,0,0,1,301.84,185.07Zm7.89.73a3.36,3.36,0,0,0-1.32-1.27,3.85,3.85,0,0,0-1.82-.44,3.9,3.9,0,0,0-1.81.43,3.3,3.3,0,0,0-1.31,1.26,3.84,3.84,0,0,0-.48,1.95,3.91,3.91,0,0,0,.48,2,3.35,3.35,0,0,0,1.31,1.28,3.79,3.79,0,0,0,1.81.44,3.85,3.85,0,0,0,1.82-.44,3.31,3.31,0,0,0,1.32-1.28,3.87,3.87,0,0,0,.49-1.95A3.81,3.81,0,0,0,309.73,185.8Z" transform="translate(0.32 -0.25)"/><path d="M324.7,188.38h-8.54a3.1,3.1,0,0,0,1.08,2.27,3.59,3.59,0,0,0,2.39.82,3.47,3.47,0,0,0,1.92-.49,2.66,2.66,0,0,0,1.08-1.33h1.91a4.28,4.28,0,0,1-1.71,2.32,5.53,5.53,0,0,1-3.2.89,5.77,5.77,0,0,1-2.72-.63,4.63,4.63,0,0,1-1.88-1.79,5.27,5.27,0,0,1-.68-2.69,5.34,5.34,0,0,1,.66-2.69,4.54,4.54,0,0,1,1.86-1.77,6,6,0,0,1,2.76-.62,5.7,5.7,0,0,1,2.69.61,4.43,4.43,0,0,1,1.8,1.68,4.74,4.74,0,0,1,.64,2.43A8.74,8.74,0,0,1,324.7,188.38Zm-2.22-2.95a2.83,2.83,0,0,0-1.22-1,4,4,0,0,0-1.71-.35,3.45,3.45,0,0,0-2.29.79,3.13,3.13,0,0,0-1.08,2.19h6.74A2.92,2.92,0,0,0,322.48,185.43Z" transform="translate(0.32 -0.25)"/><path d="M335.67,183.23a5.06,5.06,0,0,1,2.4-.56,5.31,5.31,0,0,1,2.59.63,4.6,4.6,0,0,1,1.81,1.77,5.25,5.25,0,0,1,.67,2.66,5.33,5.33,0,0,1-.67,2.66,4.68,4.68,0,0,1-1.82,1.82,5.2,5.2,0,0,1-2.58.65,5.13,5.13,0,0,1-2.43-.56,4,4,0,0,1-1.57-1.42v1.82H332.3V179.38h1.77v5.29A4.09,4.09,0,0,1,335.67,183.23Zm5.17,2.55a3.33,3.33,0,0,0-1.32-1.26,4,4,0,0,0-1.82-.43,3.87,3.87,0,0,0-1.81.44,3.38,3.38,0,0,0-1.32,1.28,4,4,0,0,0,0,3.89,3.38,3.38,0,0,0,1.32,1.28,4,4,0,0,0,3.63,0,3.38,3.38,0,0,0,1.32-1.28,3.91,3.91,0,0,0,.48-2A3.84,3.84,0,0,0,340.84,185.78Z" transform="translate(0.32 -0.25)"/><path d="M345.53,180.91a1.08,1.08,0,0,1,0-1.59,1.25,1.25,0,0,1,.86-.32,1.2,1.2,0,0,1,.83.32,1.1,1.1,0,0,1,0,1.59,1.2,1.2,0,0,1-.83.32A1.25,1.25,0,0,1,345.53,180.91Zm1.72,1.92v9.87h-1.78v-9.87Z" transform="translate(0.32 -0.25)"/><path d="M351.59,191.35h5.25v1.35h-7.27v-1.35l5.18-7.19h-5.14v-1.33h7.19v1.33Z" transform="translate(0.32 -0.25)"/><path d="M359.14,185.07A4.55,4.55,0,0,1,361,183.3a6.26,6.26,0,0,1,5.94.25,4.17,4.17,0,0,1,1.69,2.45H366.7a2.56,2.56,0,0,0-1.06-1.42,3.47,3.47,0,0,0-2-.52,3.28,3.28,0,0,0-2.46,1,3.76,3.76,0,0,0-.93,2.73,3.83,3.83,0,0,0,.93,2.75,3.25,3.25,0,0,0,2.46,1,3.57,3.57,0,0,0,1.95-.5,2.61,2.61,0,0,0,1.07-1.44h1.91a4.35,4.35,0,0,1-1.72,2.42,5.39,5.39,0,0,1-3.21.91,5.61,5.61,0,0,1-2.7-.63,4.57,4.57,0,0,1-1.84-1.78,5.74,5.74,0,0,1,0-5.38Z" transform="translate(0.32 -0.25)"/><path d="M372.91,192.23a4.65,4.65,0,0,1-1.91-1.79,5.18,5.18,0,0,1-.7-2.69,5,5,0,0,1,.72-2.68,4.77,4.77,0,0,1,1.94-1.78,6.39,6.39,0,0,1,5.49,0,4.81,4.81,0,0,1,1.94,1.77,5.07,5.07,0,0,1,.71,2.69,4.85,4.85,0,0,1-2.71,4.48,6,6,0,0,1-2.76.63A5.8,5.8,0,0,1,372.91,192.23Zm4.51-1.23a3.22,3.22,0,0,0,1.35-1.24,3.67,3.67,0,0,0,.52-2,3.76,3.76,0,0,0-.51-2,3.24,3.24,0,0,0-1.32-1.23,4,4,0,0,0-1.78-.41,3.92,3.92,0,0,0-1.78.41,3.13,3.13,0,0,0-1.3,1.23,4,4,0,0,0-.48,2,4.09,4.09,0,0,0,.47,2,3.09,3.09,0,0,0,1.28,1.23,3.83,3.83,0,0,0,1.76.41A4,4,0,0,0,377.42,191Z" transform="translate(0.32 -0.25)"/><path d="M383.44,185.07a4.61,4.61,0,0,1,1.84-1.77,5.66,5.66,0,0,1,2.7-.63,5.59,5.59,0,0,1,3.25.88,4.15,4.15,0,0,1,1.68,2.45H391a2.51,2.51,0,0,0-1.06-1.42,3.45,3.45,0,0,0-2-.52,3.26,3.26,0,0,0-2.45,1,3.73,3.73,0,0,0-.94,2.73,3.79,3.79,0,0,0,.94,2.75,3.23,3.23,0,0,0,2.45,1,3.57,3.57,0,0,0,1.95-.5,2.56,2.56,0,0,0,1.07-1.44h1.91A4.29,4.29,0,0,1,391.2,192a5.42,5.42,0,0,1-3.22.91,5.66,5.66,0,0,1-2.7-.63,4.63,4.63,0,0,1-1.84-1.78,5.81,5.81,0,0,1,0-5.38Z" transform="translate(0.32 -0.25)"/><path d="M402.76,183.13a3.52,3.52,0,0,1,1.53,1.43,4.55,4.55,0,0,1,.55,2.32v5.82h-1.75v-5.58a3,3,0,0,0-.8-2.26,3,3,0,0,0-2.18-.79,3.08,3.08,0,0,0-2.24.81,3.17,3.17,0,0,0-.82,2.36v5.46h-1.78V179.38h1.78v4.86a3.31,3.31,0,0,1,1.45-1.17,5.27,5.27,0,0,1,4.26.06Z" transform="translate(0.32 -0.25)"/><path d="M409.69,192.23a4.74,4.74,0,0,1-1.92-1.79,5.18,5.18,0,0,1-.69-2.69,5.08,5.08,0,0,1,.71-2.68,4.89,4.89,0,0,1,1.94-1.78,6.41,6.41,0,0,1,5.5,0,4.81,4.81,0,0,1,1.94,1.77,5.07,5.07,0,0,1,.71,2.69,4.85,4.85,0,0,1-2.71,4.48,6,6,0,0,1-2.77.63A5.79,5.79,0,0,1,409.69,192.23ZM414.2,191a3.22,3.22,0,0,0,1.35-1.24,3.67,3.67,0,0,0,.52-2,3.76,3.76,0,0,0-.51-2,3.24,3.24,0,0,0-1.32-1.23,4,4,0,0,0-1.78-.41,3.92,3.92,0,0,0-1.78.41,3.13,3.13,0,0,0-1.3,1.23,4.55,4.55,0,0,0,0,4.05,3.09,3.09,0,0,0,1.28,1.23,3.82,3.82,0,0,0,1.75.41A4,4,0,0,0,414.2,191Z" transform="translate(0.32 -0.25)"/><path d="M422.05,190.43l-2.18,4.84h-1.19l1.42-4.84Z" transform="translate(0.32 -0.25)"/><path d="M429.28,185.07a4.61,4.61,0,0,1,1.84-1.77,5.66,5.66,0,0,1,2.7-.63,5.56,5.56,0,0,1,3.25.88,4.21,4.21,0,0,1,1.69,2.45h-1.91a2.58,2.58,0,0,0-1.07-1.42,3.45,3.45,0,0,0-2-.52,3.26,3.26,0,0,0-2.45,1,3.73,3.73,0,0,0-.94,2.73,3.79,3.79,0,0,0,.94,2.75,3.23,3.23,0,0,0,2.45,1,3.57,3.57,0,0,0,1.95-.5,2.63,2.63,0,0,0,1.08-1.44h1.91A4.35,4.35,0,0,1,437,192a5.42,5.42,0,0,1-3.22.91,5.66,5.66,0,0,1-2.7-.63,4.63,4.63,0,0,1-1.84-1.78,5.81,5.81,0,0,1,0-5.38Z" transform="translate(0.32 -0.25)"/><path d="M441.11,185.07a4.65,4.65,0,0,1,1.83-1.77,5.3,5.3,0,0,1,2.58-.63,5,5,0,0,1,2.43.56,3.84,3.84,0,0,1,1.54,1.4v-1.8h1.8v9.87h-1.8v-1.84a4,4,0,0,1-1.56,1.43,5,5,0,0,1-2.43.57,5.14,5.14,0,0,1-2.57-.65,4.75,4.75,0,0,1-1.82-1.82,5.33,5.33,0,0,1-.66-2.66A5.25,5.25,0,0,1,441.11,185.07Zm7.9.73a3.42,3.42,0,0,0-1.32-1.27,3.85,3.85,0,0,0-1.82-.44,3.9,3.9,0,0,0-1.81.43,3.3,3.3,0,0,0-1.31,1.26,3.84,3.84,0,0,0-.49,1.95,3.92,3.92,0,0,0,.49,2,3.35,3.35,0,0,0,1.31,1.28,3.79,3.79,0,0,0,1.81.44,3.85,3.85,0,0,0,1.82-.44A3.38,3.38,0,0,0,449,189.7a3.86,3.86,0,0,0,.48-1.95A3.81,3.81,0,0,0,449,185.8Z" transform="translate(0.32 -0.25)"/><path d="M458.64,184.18h-2.25v8.52h-1.77v-8.52h-1.38v-1.35h1.38v-.7a3,3,0,0,1,.93-2.42,4.62,4.62,0,0,1,3-.77v1.37a2.46,2.46,0,0,0-1.65.43,1.76,1.76,0,0,0-.48,1.39v.7h2.25Z" transform="translate(0.32 -0.25)"/><path d="M470.39,188.38h-8.54a3.1,3.1,0,0,0,1.08,2.27,3.59,3.59,0,0,0,2.39.82,3.47,3.47,0,0,0,1.92-.49,2.66,2.66,0,0,0,1.08-1.33h1.91a4.28,4.28,0,0,1-1.71,2.32,5.53,5.53,0,0,1-3.2.89,5.77,5.77,0,0,1-2.72-.63,4.69,4.69,0,0,1-1.88-1.79,5.27,5.27,0,0,1-.68-2.69,5.34,5.34,0,0,1,.66-2.69,4.54,4.54,0,0,1,1.86-1.77,6,6,0,0,1,2.76-.62,5.7,5.7,0,0,1,2.69.61,4.43,4.43,0,0,1,1.8,1.68,4.74,4.74,0,0,1,.64,2.43A8.74,8.74,0,0,1,470.39,188.38Zm-2.22-2.95a2.83,2.83,0,0,0-1.22-1,4,4,0,0,0-1.71-.35,3.45,3.45,0,0,0-2.29.79,3.13,3.13,0,0,0-1.08,2.19h6.74A2.92,2.92,0,0,0,468.17,185.43Zm-1-5.39L463,182.09v-1.22l4.15-2.25Z" transform="translate(0.32 -0.25)"/><path d="M64.05,204.43l-6.43,14.51H55.79l2.11-4.75-4.31-9.76h2l3.35,8,3.31-8Z" transform="translate(0.32 -0.25)"/><path d="M71,206.67a4.61,4.61,0,0,1,1.84-1.77,6.28,6.28,0,0,1,5.95.25,4.15,4.15,0,0,1,1.68,2.45H78.59a2.51,2.51,0,0,0-1.06-1.42,3.45,3.45,0,0,0-2-.52,3.26,3.26,0,0,0-2.45,1,3.73,3.73,0,0,0-.94,2.73,3.78,3.78,0,0,0,.94,2.75,3.23,3.23,0,0,0,2.45,1,3.49,3.49,0,0,0,2-.5,2.56,2.56,0,0,0,1.07-1.44H80.5a4.29,4.29,0,0,1-1.71,2.42,5.42,5.42,0,0,1-3.22.91,5.66,5.66,0,0,1-2.7-.63A4.57,4.57,0,0,1,71,212.05a5.81,5.81,0,0,1,0-5.38Z" transform="translate(0.32 -0.25)"/><path d="M86,204.72a4.43,4.43,0,0,1,2.12-.47V206h-.47a2.63,2.63,0,0,0-3,3v5.37H82.86v-9.87h1.78V206A3.19,3.19,0,0,1,86,204.72Z" transform="translate(0.32 -0.25)"/><path d="M99.82,210H91.28a3.1,3.1,0,0,0,1.08,2.27,3.61,3.61,0,0,0,2.39.82,3.47,3.47,0,0,0,1.92-.49,2.66,2.66,0,0,0,1.08-1.33h1.91A4.23,4.23,0,0,1,98,213.57a5.53,5.53,0,0,1-3.2.89,5.77,5.77,0,0,1-2.72-.63A4.69,4.69,0,0,1,90.15,212a5.72,5.72,0,0,1,0-5.37A4.5,4.5,0,0,1,92,204.89a6,6,0,0,1,2.76-.62,5.7,5.7,0,0,1,2.69.61,4.39,4.39,0,0,1,1.8,1.69,4.58,4.58,0,0,1,.64,2.42A8.74,8.74,0,0,1,99.82,210ZM97.6,207a2.83,2.83,0,0,0-1.22-1,4,4,0,0,0-1.71-.35,3.45,3.45,0,0,0-2.29.79,3.13,3.13,0,0,0-1.08,2.19H98A2.84,2.84,0,0,0,97.6,207Z" transform="translate(0.32 -0.25)"/><path d="M117.28,204.73a3.66,3.66,0,0,1,1.54,1.43,4.46,4.46,0,0,1,.57,2.32v5.82h-1.76v-5.58a3,3,0,0,0-.79-2.26,2.88,2.88,0,0,0-2.13-.79,3,3,0,0,0-2.2.82,3.21,3.21,0,0,0-.82,2.37v5.44h-1.76v-5.58a3,3,0,0,0-.79-2.26,2.88,2.88,0,0,0-2.13-.79,3,3,0,0,0-2.2.82,3.21,3.21,0,0,0-.82,2.37v5.44h-1.77v-9.87H104v1.42a3.4,3.4,0,0,1,1.41-1.18,4.53,4.53,0,0,1,2-.42,5,5,0,0,1,2.38.56,3.5,3.5,0,0,1,1.54,1.64,3.28,3.28,0,0,1,1.48-1.62,4.7,4.7,0,0,1,2.3-.58A5,5,0,0,1,117.28,204.73Z" transform="translate(0.32 -0.25)"/><path d="M122.29,206.67a4.62,4.62,0,0,1,1.82-1.77,5.37,5.37,0,0,1,2.59-.63,5.07,5.07,0,0,1,2.43.56,3.9,3.9,0,0,1,1.54,1.4v-1.8h1.79v9.87h-1.79v-1.84a4,4,0,0,1-1.57,1.43,5,5,0,0,1-2.42.57,5.2,5.2,0,0,1-2.58-.65,4.72,4.72,0,0,1-1.81-1.82,5.69,5.69,0,0,1,0-5.32Zm7.89.73a3.33,3.33,0,0,0-1.31-1.27,3.85,3.85,0,0,0-1.82-.44,3.94,3.94,0,0,0-1.82.43,3.28,3.28,0,0,0-1.3,1.26,3.74,3.74,0,0,0-.49,2,3.82,3.82,0,0,0,.49,2,3.33,3.33,0,0,0,1.3,1.28,4,4,0,0,0,3.64,0,3.29,3.29,0,0,0,1.31-1.28,4.13,4.13,0,0,0,0-3.9Z" transform="translate(0.32 -0.25)"/><path d="M135.17,214.08a1.07,1.07,0,0,1,0-1.58,1.22,1.22,0,0,1,.86-.33,1.15,1.15,0,0,1,.83.33,1.09,1.09,0,0,1,0,1.58,1.15,1.15,0,0,1-.83.33A1.22,1.22,0,0,1,135.17,214.08Z" transform="translate(0.32 -0.25)"/><path d="M153.12,201.75v1.33h-3.7V214.3h-1.77V203.08h-3.73v-1.33Z" transform="translate(0.32 -0.25)"/><path d="M157.25,213.83a4.65,4.65,0,0,1-1.91-1.79,5.18,5.18,0,0,1-.7-2.69,5,5,0,0,1,.72-2.68,4.8,4.8,0,0,1,1.93-1.78,6.41,6.41,0,0,1,5.5,0,4.77,4.77,0,0,1,1.94,1.78,5,5,0,0,1,.71,2.68,4.85,4.85,0,0,1-2.71,4.48,6,6,0,0,1-2.76.63A5.8,5.8,0,0,1,157.25,213.83Zm4.51-1.23a3.16,3.16,0,0,0,1.35-1.24,3.67,3.67,0,0,0,.52-2,3.76,3.76,0,0,0-.51-2,3.24,3.24,0,0,0-1.32-1.23,4,4,0,0,0-1.78-.41,3.92,3.92,0,0,0-1.78.41,3.13,3.13,0,0,0-1.3,1.23,4,4,0,0,0-.48,2,4.09,4.09,0,0,0,.47,2,3.09,3.09,0,0,0,1.28,1.23A3.83,3.83,0,0,0,160,213,4,4,0,0,0,161.76,212.6Z" transform="translate(0.32 -0.25)"/><path d="M167.78,206.67a4.62,4.62,0,0,1,1.82-1.77,5.39,5.39,0,0,1,2.61-.63,5.16,5.16,0,0,1,2.31.53,4,4,0,0,1,1.64,1.4V201H178V214.3h-1.8v-1.86a4,4,0,0,1-1.56,1.45,4.91,4.91,0,0,1-2.41.57,5.27,5.27,0,0,1-2.59-.65,4.68,4.68,0,0,1-1.82-1.82,5.69,5.69,0,0,1,0-5.32Zm7.89.73a3.33,3.33,0,0,0-1.31-1.27,3.85,3.85,0,0,0-1.82-.44,3.94,3.94,0,0,0-1.82.43,3.28,3.28,0,0,0-1.3,1.26,3.74,3.74,0,0,0-.49,2,3.82,3.82,0,0,0,.49,2,3.33,3.33,0,0,0,1.3,1.28,4,4,0,0,0,3.64,0,3.29,3.29,0,0,0,1.31-1.28,4.13,4.13,0,0,0,0-3.9Z" transform="translate(0.32 -0.25)"/><path d="M182.9,213.83A4.65,4.65,0,0,1,181,212a5.47,5.47,0,0,1,0-5.37,4.89,4.89,0,0,1,1.94-1.78,6.41,6.41,0,0,1,5.5,0,4.77,4.77,0,0,1,1.94,1.78,5,5,0,0,1,.71,2.68,4.85,4.85,0,0,1-2.71,4.48,6,6,0,0,1-2.77.63A5.79,5.79,0,0,1,182.9,213.83Zm4.51-1.23a3.16,3.16,0,0,0,1.35-1.24,3.67,3.67,0,0,0,.52-2,3.76,3.76,0,0,0-.51-2,3.24,3.24,0,0,0-1.32-1.23,4,4,0,0,0-1.78-.41,3.92,3.92,0,0,0-1.78.41,3.13,3.13,0,0,0-1.3,1.23,4,4,0,0,0-.48,2,4.09,4.09,0,0,0,.47,2,3.09,3.09,0,0,0,1.28,1.23,3.82,3.82,0,0,0,1.75.41A4,4,0,0,0,187.41,212.6Z" transform="translate(0.32 -0.25)"/><path d="M208.32,210h-8.54a3.07,3.07,0,0,0,1.09,2.27,3.57,3.57,0,0,0,2.38.82,3.47,3.47,0,0,0,1.92-.49,2.63,2.63,0,0,0,1.09-1.33h1.91a4.3,4.3,0,0,1-1.72,2.32,5.51,5.51,0,0,1-3.2.89,5.77,5.77,0,0,1-2.72-.63,4.76,4.76,0,0,1-1.88-1.79,5.72,5.72,0,0,1,0-5.37,4.58,4.58,0,0,1,1.87-1.78,5.9,5.9,0,0,1,2.75-.62,5.68,5.68,0,0,1,2.69.61,4.48,4.48,0,0,1,1.81,1.69,4.67,4.67,0,0,1,.63,2.42A8.74,8.74,0,0,1,208.32,210ZM206.1,207a2.83,2.83,0,0,0-1.22-1,4,4,0,0,0-1.7-.35,3.43,3.43,0,0,0-2.29.79,3.14,3.14,0,0,0-1.09,2.19h6.75A2.84,2.84,0,0,0,206.1,207Z" transform="translate(0.32 -0.25)"/><path d="M212.3,214.07a3.69,3.69,0,0,1-1.54-1.08,2.72,2.72,0,0,1-.63-1.59H212a1.62,1.62,0,0,0,.75,1.2,2.93,2.93,0,0,0,1.76.47,2.69,2.69,0,0,0,1.6-.41,1.23,1.23,0,0,0,.58-1,1,1,0,0,0-.62-1,9.73,9.73,0,0,0-1.93-.62,16.29,16.29,0,0,1-1.94-.58,3.51,3.51,0,0,1-1.29-.89,2.22,2.22,0,0,1-.53-1.54,2.18,2.18,0,0,1,.49-1.38,3.25,3.25,0,0,1,1.38-1,5.28,5.28,0,0,1,2.05-.37,4.62,4.62,0,0,1,2.86.83,2.89,2.89,0,0,1,1.17,2.27h-1.77a1.68,1.68,0,0,0-.68-1.25,3.19,3.19,0,0,0-3.16-.08,1.13,1.13,0,0,0-.57,1,1.08,1.08,0,0,0,.34.81,2.67,2.67,0,0,0,.86.5,12.79,12.79,0,0,0,1.43.42,16.81,16.81,0,0,1,1.87.57,3.33,3.33,0,0,1,1.24.84,2.12,2.12,0,0,1,.54,1.46,2.31,2.31,0,0,1-.49,1.45,3.23,3.23,0,0,1-1.37,1,5.19,5.19,0,0,1-2,.37A5.87,5.87,0,0,1,212.3,214.07Z" transform="translate(0.32 -0.25)"/><path d="M223.06,205.78v5.82a1.29,1.29,0,0,0,.33,1,1.71,1.71,0,0,0,1.15.3h1.3v1.39h-1.6a3.38,3.38,0,0,1-2.22-.63,2.59,2.59,0,0,1-.74-2.07v-5.82H219.9v-1.35h1.38V202h1.78v2.48h2.78v1.35Z" transform="translate(0.32 -0.25)"/><path d="M229.93,213.83A4.65,4.65,0,0,1,228,212a5.18,5.18,0,0,1-.7-2.69,5,5,0,0,1,.72-2.68,4.77,4.77,0,0,1,1.94-1.78,6.39,6.39,0,0,1,5.49,0,4.77,4.77,0,0,1,1.94,1.78,5,5,0,0,1,.71,2.68,4.85,4.85,0,0,1-2.71,4.48,6,6,0,0,1-2.76.63A5.8,5.8,0,0,1,229.93,213.83Zm4.51-1.23a3.16,3.16,0,0,0,1.35-1.24,3.67,3.67,0,0,0,.52-2,3.76,3.76,0,0,0-.51-2,3.24,3.24,0,0,0-1.32-1.23,4,4,0,0,0-1.78-.41,3.92,3.92,0,0,0-1.78.41,3.13,3.13,0,0,0-1.3,1.23,4,4,0,0,0-.48,2,4.09,4.09,0,0,0,.47,2,3.09,3.09,0,0,0,1.28,1.23,3.83,3.83,0,0,0,1.76.41A4,4,0,0,0,234.44,212.6Z" transform="translate(0.32 -0.25)"/><path d="M249,204.83a5,5,0,0,1,2.39-.56,5.32,5.32,0,0,1,2.6.63,4.66,4.66,0,0,1,1.81,1.77,5.69,5.69,0,0,1,0,5.32,4.68,4.68,0,0,1-1.82,1.82,5.27,5.27,0,0,1-2.59.65,5.06,5.06,0,0,1-2.42-.56,4,4,0,0,1-1.57-1.42v1.82h-1.77V201h1.77v5.29A4,4,0,0,1,249,204.83Zm5.16,2.55a3.24,3.24,0,0,0-1.31-1.26,4,4,0,0,0-1.83-.43,3.8,3.8,0,0,0-1.8.44,3.38,3.38,0,0,0-1.32,1.28,4,4,0,0,0,0,3.89,3.38,3.38,0,0,0,1.32,1.28,3.8,3.8,0,0,0,1.8.44,3.89,3.89,0,0,0,1.83-.44,3.29,3.29,0,0,0,1.31-1.28,3.82,3.82,0,0,0,.49-2A3.74,3.74,0,0,0,254.2,207.38Z" transform="translate(0.32 -0.25)"/><path d="M258.84,206.67a4.62,4.62,0,0,1,1.82-1.77,5.37,5.37,0,0,1,2.59-.63,5.07,5.07,0,0,1,2.43.56,3.9,3.9,0,0,1,1.54,1.4v-1.8H269v9.87h-1.79v-1.84a4,4,0,0,1-1.57,1.43,5,5,0,0,1-2.42.57,5.2,5.2,0,0,1-2.58-.65,4.72,4.72,0,0,1-1.81-1.82,5.69,5.69,0,0,1,0-5.32Zm7.89.73a3.33,3.33,0,0,0-1.31-1.27,3.85,3.85,0,0,0-1.82-.44,3.94,3.94,0,0,0-1.82.43,3.28,3.28,0,0,0-1.3,1.26,3.74,3.74,0,0,0-.49,2,3.82,3.82,0,0,0,.49,2,3.33,3.33,0,0,0,1.3,1.28,4,4,0,0,0,3.64,0,3.29,3.29,0,0,0,1.31-1.28,4.13,4.13,0,0,0,0-3.9Z" transform="translate(0.32 -0.25)"/><path d="M273.85,216.44a2.41,2.41,0,0,1-.72,1.93A3.24,3.24,0,0,1,271,219h-1v-1.39h.74a1.56,1.56,0,0,0,1-.27,1.2,1.2,0,0,0,.3-.92v-12h1.78Zm-1.73-13.93a1.1,1.1,0,0,1,0-1.59,1.29,1.29,0,0,1,1.7,0,1.1,1.1,0,0,1,0,1.59,1.29,1.29,0,0,1-1.7,0Z" transform="translate(0.32 -0.25)"/><path d="M278.79,213.83a4.71,4.71,0,0,1-1.91-1.79,5.18,5.18,0,0,1-.69-2.69,5,5,0,0,1,.71-2.68,4.77,4.77,0,0,1,1.94-1.78,6.39,6.39,0,0,1,5.49,0,4.77,4.77,0,0,1,1.94,1.78,5.37,5.37,0,0,1,0,5.37,4.87,4.87,0,0,1-2,1.79,6.1,6.1,0,0,1-2.77.63A5.83,5.83,0,0,1,278.79,213.83Zm4.51-1.23a3.24,3.24,0,0,0,1.36-1.24,3.75,3.75,0,0,0,.51-2,3.85,3.85,0,0,0-.5-2,3.21,3.21,0,0,0-1.33-1.23,4.07,4.07,0,0,0-3.56,0,3.05,3.05,0,0,0-1.29,1.23,3.85,3.85,0,0,0-.49,2,4,4,0,0,0,.48,2,3,3,0,0,0,1.27,1.23,3.86,3.86,0,0,0,1.76.41A4,4,0,0,0,283.3,212.6Z" transform="translate(0.32 -0.25)"/><path d="M304,204.43v9.87h-1.77v-1.46a3.39,3.39,0,0,1-1.42,1.18,4.67,4.67,0,0,1-2,.42,5.12,5.12,0,0,1-2.25-.48,3.53,3.53,0,0,1-1.56-1.43,4.34,4.34,0,0,1-.58-2.32v-5.78h1.75V210a2.74,2.74,0,0,0,3,3,3.06,3.06,0,0,0,2.24-.81,3.21,3.21,0,0,0,.82-2.36v-5.42Z" transform="translate(0.32 -0.25)"/><path d="M315.36,205.34a4,4,0,0,1,1.21,3.14v5.82h-1.75v-5.58a3,3,0,0,0-.8-2.26,3,3,0,0,0-2.18-.79,3.09,3.09,0,0,0-2.24.82,3.13,3.13,0,0,0-.82,2.35v5.46H307v-9.87h1.78v1.41a3.31,3.31,0,0,1,1.43-1.17,4.68,4.68,0,0,1,2-.42A4.55,4.55,0,0,1,315.36,205.34Z" transform="translate(0.32 -0.25)"/><path d="M324.68,206.67a4.62,4.62,0,0,1,1.82-1.77,5.38,5.38,0,0,1,2.6-.63,5.17,5.17,0,0,1,2.32.53,4.06,4.06,0,0,1,1.64,1.4V201h1.79V214.3h-1.79v-1.86a4,4,0,0,1-1.56,1.45,4.92,4.92,0,0,1-2.42.57,5.26,5.26,0,0,1-2.58-.65,4.68,4.68,0,0,1-1.82-1.82,5.69,5.69,0,0,1,0-5.32Zm7.89.73a3.33,3.33,0,0,0-1.31-1.27,3.85,3.85,0,0,0-1.82-.44,3.94,3.94,0,0,0-1.82.43,3.28,3.28,0,0,0-1.3,1.26,3.74,3.74,0,0,0-.49,2,3.82,3.82,0,0,0,.49,2,3.33,3.33,0,0,0,1.3,1.28,4,4,0,0,0,3.64,0,3.29,3.29,0,0,0,1.31-1.28,4.13,4.13,0,0,0,0-3.9Z" transform="translate(0.32 -0.25)"/><path d="M347.54,210H339a3,3,0,0,0,1.08,2.27,3.57,3.57,0,0,0,2.38.82,3.47,3.47,0,0,0,1.92-.49,2.63,2.63,0,0,0,1.09-1.33h1.91a4.3,4.3,0,0,1-1.72,2.32,5.51,5.51,0,0,1-3.2.89,5.7,5.7,0,0,1-2.71-.63,4.63,4.63,0,0,1-1.88-1.79,5.64,5.64,0,0,1,0-5.37,4.5,4.5,0,0,1,1.86-1.78,6,6,0,0,1,2.75-.62,5.68,5.68,0,0,1,2.69.61,4.48,4.48,0,0,1,1.81,1.69,4.67,4.67,0,0,1,.63,2.42A8.74,8.74,0,0,1,347.54,210ZM345.32,207a2.78,2.78,0,0,0-1.22-1,4,4,0,0,0-1.7-.35,3.43,3.43,0,0,0-2.29.79,3.17,3.17,0,0,0-1.09,2.19h6.75A2.84,2.84,0,0,0,345.32,207Z" transform="translate(0.32 -0.25)"/><path d="M351.71,201V214.3h-1.77V201Z" transform="translate(0.32 -0.25)"/><path d="M354.79,202.51a1.08,1.08,0,0,1,0-1.59,1.25,1.25,0,0,1,.86-.32,1.2,1.2,0,0,1,.83.32,1.1,1.1,0,0,1,0,1.59,1.2,1.2,0,0,1-.83.32A1.25,1.25,0,0,1,354.79,202.51Zm1.72,1.92v9.87h-1.78v-9.87Z" transform="translate(0.32 -0.25)"/><path d="M359.53,206.67a4.55,4.55,0,0,1,1.84-1.77,6.26,6.26,0,0,1,5.94.25A4.12,4.12,0,0,1,369,207.6h-1.91a2.56,2.56,0,0,0-1.06-1.42,3.47,3.47,0,0,0-2-.52,3.3,3.3,0,0,0-2.46,1,3.76,3.76,0,0,0-.93,2.73,3.81,3.81,0,0,0,.93,2.75,3.27,3.27,0,0,0,2.46,1,3.49,3.49,0,0,0,1.95-.5,2.56,2.56,0,0,0,1.07-1.44H369a4.38,4.38,0,0,1-1.71,2.42,5.42,5.42,0,0,1-3.22.91,5.66,5.66,0,0,1-2.7-.63,4.51,4.51,0,0,1-1.84-1.78,5.81,5.81,0,0,1,0-5.38Z" transform="translate(0.32 -0.25)"/><path d="M371.42,202.51a1.08,1.08,0,0,1,0-1.59,1.23,1.23,0,0,1,.85-.32,1.16,1.16,0,0,1,.83.32,1.1,1.1,0,0,1,0,1.59,1.16,1.16,0,0,1-.83.32A1.23,1.23,0,0,1,371.42,202.51Zm1.71,1.92v9.87h-1.77v-9.87Z" transform="translate(0.32 -0.25)"/><path d="M378.09,213.83a4.71,4.71,0,0,1-1.91-1.79,5.18,5.18,0,0,1-.69-2.69,5.08,5.08,0,0,1,.71-2.68,4.83,4.83,0,0,1,1.94-1.78,6.41,6.41,0,0,1,5.5,0,4.83,4.83,0,0,1,1.94,1.78,5,5,0,0,1-2,7.16,6.07,6.07,0,0,1-2.77.63A5.83,5.83,0,0,1,378.09,213.83Zm4.51-1.23a3.24,3.24,0,0,0,1.36-1.24,4.2,4.2,0,0,0,0-4,3.21,3.21,0,0,0-1.33-1.23,4,4,0,0,0-3.55,0,3.08,3.08,0,0,0-1.3,1.23,4.47,4.47,0,0,0,0,4,3,3,0,0,0,1.28,1.23,3.79,3.79,0,0,0,1.75.41A3.9,3.9,0,0,0,382.6,212.6Z" transform="translate(0.32 -0.25)"/><path d="M390.21,214.07a3.69,3.69,0,0,1-1.54-1.08,2.72,2.72,0,0,1-.63-1.59h1.83a1.68,1.68,0,0,0,.75,1.2,3,3,0,0,0,1.77.47,2.71,2.71,0,0,0,1.6-.41,1.23,1.23,0,0,0,.58-1,1,1,0,0,0-.62-1A9.73,9.73,0,0,0,392,210a16.29,16.29,0,0,1-1.94-.58,3.51,3.51,0,0,1-1.29-.89,2.36,2.36,0,0,1-.05-2.92,3.35,3.35,0,0,1,1.39-1,5.26,5.26,0,0,1,2-.37,4.63,4.63,0,0,1,2.87.83,2.89,2.89,0,0,1,1.17,2.27h-1.77a1.68,1.68,0,0,0-.68-1.25,2.66,2.66,0,0,0-1.64-.46,2.61,2.61,0,0,0-1.52.38,1.13,1.13,0,0,0-.57,1,1,1,0,0,0,.34.81,2.57,2.57,0,0,0,.86.5,12.79,12.79,0,0,0,1.43.42,16.81,16.81,0,0,1,1.87.57,3.33,3.33,0,0,1,1.24.84,2.17,2.17,0,0,1,.54,1.46,2.37,2.37,0,0,1-.49,1.45,3.3,3.3,0,0,1-1.37,1,5.26,5.26,0,0,1-2,.37A5.87,5.87,0,0,1,390.21,214.07Z" transform="translate(0.32 -0.25)"/><path d="M400.74,213.83a4.71,4.71,0,0,1-1.91-1.79,5.18,5.18,0,0,1-.69-2.69,5.08,5.08,0,0,1,.71-2.68,4.77,4.77,0,0,1,1.94-1.78,6.41,6.41,0,0,1,5.5,0,4.8,4.8,0,0,1,1.93,1.78,4.93,4.93,0,0,1,.72,2.68,5,5,0,0,1-.73,2.69,5,5,0,0,1-2,1.79,6.07,6.07,0,0,1-2.77.63A5.83,5.83,0,0,1,400.74,213.83Zm4.51-1.23a3.24,3.24,0,0,0,1.36-1.24,3.75,3.75,0,0,0,.51-2,3.85,3.85,0,0,0-.5-2,3.21,3.21,0,0,0-1.33-1.23,4.07,4.07,0,0,0-3.56,0,3.05,3.05,0,0,0-1.29,1.23,3.85,3.85,0,0,0-.49,2,4,4,0,0,0,.48,2,3,3,0,0,0,1.28,1.23,3.79,3.79,0,0,0,1.75.41A3.93,3.93,0,0,0,405.25,212.6Z" transform="translate(0.32 -0.25)"/><path d="M426.17,210h-8.54a3,3,0,0,0,1.08,2.27,3.59,3.59,0,0,0,2.39.82,3.49,3.49,0,0,0,1.92-.49,2.66,2.66,0,0,0,1.08-1.33H426a4.3,4.3,0,0,1-1.72,2.32,5.48,5.48,0,0,1-3.19.89,5.74,5.74,0,0,1-2.72-.63A4.63,4.63,0,0,1,416.5,212a5.17,5.17,0,0,1-.68-2.69,5.27,5.27,0,0,1,.66-2.68,4.5,4.5,0,0,1,1.86-1.78,6,6,0,0,1,2.76-.62,5.7,5.7,0,0,1,2.69.61,4.39,4.39,0,0,1,1.8,1.69,4.67,4.67,0,0,1,.63,2.42A8.63,8.63,0,0,1,426.17,210ZM423.94,207a2.75,2.75,0,0,0-1.21-1,4,4,0,0,0-1.71-.35,3.43,3.43,0,0,0-2.29.79,3.13,3.13,0,0,0-1.08,2.19h6.74A2.84,2.84,0,0,0,423.94,207Z" transform="translate(0.32 -0.25)"/><path d="M430.14,214.07A3.75,3.75,0,0,1,428.6,213a2.78,2.78,0,0,1-.62-1.59h1.83a1.62,1.62,0,0,0,.75,1.2,3,3,0,0,0,1.77.47,2.68,2.68,0,0,0,1.59-.41,1.24,1.24,0,0,0,.59-1,1,1,0,0,0-.63-1A9.3,9.3,0,0,0,432,210a16.06,16.06,0,0,1-1.93-.58,3.51,3.51,0,0,1-1.29-.89,2.18,2.18,0,0,1-.54-1.54,2.24,2.24,0,0,1,.49-1.38,3.32,3.32,0,0,1,1.38-1,5.28,5.28,0,0,1,2.05-.37,4.66,4.66,0,0,1,2.87.83,3,3,0,0,1,1.17,2.27h-1.78a1.67,1.67,0,0,0-.67-1.25,3.21,3.21,0,0,0-3.17-.08,1.12,1.12,0,0,0-.56,1,1,1,0,0,0,.34.81,2.47,2.47,0,0,0,.86.5,12.79,12.79,0,0,0,1.43.42,17.5,17.5,0,0,1,1.87.57,3.41,3.41,0,0,1,1.24.84,2.12,2.12,0,0,1,.53,1.46,2.36,2.36,0,0,1-.48,1.45,3.33,3.33,0,0,1-1.38,1,5.19,5.19,0,0,1-2,.37A5.91,5.91,0,0,1,430.14,214.07Z" transform="translate(0.32 -0.25)"/><path d="M442.08,204.84a5,5,0,0,1,2.43-.57,5.33,5.33,0,0,1,2.58.63,4.62,4.62,0,0,1,1.82,1.77,5.69,5.69,0,0,1,0,5.32,4.68,4.68,0,0,1-1.82,1.82,5.23,5.23,0,0,1-2.58.65,4.93,4.93,0,0,1-2.41-.57,4.24,4.24,0,0,1-1.59-1.41V219h-1.77V204.43h1.77v1.82A4.1,4.1,0,0,1,442.08,204.84Zm5.19,2.54a3.24,3.24,0,0,0-1.31-1.26,4,4,0,0,0-1.82-.43,3.87,3.87,0,0,0-1.81.44,3.38,3.38,0,0,0-1.32,1.28,4,4,0,0,0,0,3.89,3.38,3.38,0,0,0,1.32,1.28,4,4,0,0,0,3.63,0,3.29,3.29,0,0,0,1.31-1.28,3.82,3.82,0,0,0,.49-2A3.74,3.74,0,0,0,447.27,207.38Z" transform="translate(0.32 -0.25)"/><path d="M453.85,213.83a4.71,4.71,0,0,1-1.91-1.79,5.18,5.18,0,0,1-.69-2.69,5.08,5.08,0,0,1,.71-2.68,4.83,4.83,0,0,1,1.94-1.78,6.41,6.41,0,0,1,5.5,0,4.83,4.83,0,0,1,1.94,1.78,5,5,0,0,1-2,7.16,6.07,6.07,0,0,1-2.77.63A5.83,5.83,0,0,1,453.85,213.83Zm4.51-1.23a3.24,3.24,0,0,0,1.36-1.24,4.27,4.27,0,0,0,0-4,3.21,3.21,0,0,0-1.33-1.23,4,4,0,0,0-3.55,0,3.08,3.08,0,0,0-1.3,1.23,3.85,3.85,0,0,0-.49,2,4,4,0,0,0,.48,2,3,3,0,0,0,1.28,1.23,3.79,3.79,0,0,0,1.75.41A3.9,3.9,0,0,0,458.36,212.6Z" transform="translate(0.32 -0.25)"/><path d="M466.16,201V214.3h-1.77V201Z" transform="translate(0.32 -0.25)"/><path d="M476.59,207v1.38h-7.78V207Z" transform="translate(0.32 -0.25)"/><path d="M58.83,234.38,62.14,226H64l-4.19,9.87H57.78L53.59,226H55.5Z" transform="translate(0.32 -0.25)"/><path d="M67.73,235.43a4.71,4.71,0,0,1-1.91-1.79,5.18,5.18,0,0,1-.69-2.69,5,5,0,0,1,.71-2.68,4.77,4.77,0,0,1,1.94-1.78,6.39,6.39,0,0,1,5.49,0,4.81,4.81,0,0,1,1.94,1.77,5,5,0,0,1,.71,2.69,4.93,4.93,0,0,1-.73,2.69,4.83,4.83,0,0,1-2,1.79,6,6,0,0,1-2.76.63A5.83,5.83,0,0,1,67.73,235.43Zm4.51-1.23A3.22,3.22,0,0,0,73.59,233a3.67,3.67,0,0,0,.52-2,3.76,3.76,0,0,0-.51-2,3.18,3.18,0,0,0-1.32-1.23,4,4,0,0,0-1.78-.41,3.92,3.92,0,0,0-1.78.41,3.05,3.05,0,0,0-1.29,1.23,3.85,3.85,0,0,0-.49,2,4,4,0,0,0,.48,2,3,3,0,0,0,1.27,1.23,3.86,3.86,0,0,0,1.76.41A4,4,0,0,0,72.24,234.2Z" transform="translate(0.32 -0.25)"/><path d="M81.37,226.32a4.43,4.43,0,0,1,2.12-.47v1.69H83c-2,0-3,1-3,3v5.37H78.26V226H80v1.6A3.23,3.23,0,0,1,81.37,226.32Z" transform="translate(0.32 -0.25)"/><path d="M95.22,231.58H86.68a3.1,3.1,0,0,0,1.08,2.27,3.61,3.61,0,0,0,2.39.82,3.47,3.47,0,0,0,1.92-.49,2.66,2.66,0,0,0,1.08-1.33h1.91a4.23,4.23,0,0,1-1.71,2.32,5.53,5.53,0,0,1-3.2.89,5.77,5.77,0,0,1-2.72-.63,4.69,4.69,0,0,1-1.88-1.79,5.27,5.27,0,0,1-.68-2.69,5.34,5.34,0,0,1,.66-2.69,4.54,4.54,0,0,1,1.86-1.77,6,6,0,0,1,2.76-.62,5.68,5.68,0,0,1,2.69.61,4.39,4.39,0,0,1,1.8,1.69,4.58,4.58,0,0,1,.64,2.42A8.74,8.74,0,0,1,95.22,231.58Zm-2.22-3a2.83,2.83,0,0,0-1.22-1,4,4,0,0,0-1.71-.35,3.45,3.45,0,0,0-2.29.79,3.13,3.13,0,0,0-1.08,2.19h6.75A2.84,2.84,0,0,0,93,228.63Z" transform="translate(0.32 -0.25)"/><path d="M97.62,228.27a4.62,4.62,0,0,1,1.82-1.77,5.3,5.3,0,0,1,2.58-.63,5.08,5.08,0,0,1,2.44.56,3.9,3.9,0,0,1,1.54,1.4V226h1.79v9.87H106v-1.84a4.05,4.05,0,0,1-1.57,1.43,5,5,0,0,1-2.43.57,5.17,5.17,0,0,1-2.57-.65,4.66,4.66,0,0,1-1.81-1.82,5.23,5.23,0,0,1-.67-2.66A5.15,5.15,0,0,1,97.62,228.27Zm7.89.73a3.36,3.36,0,0,0-1.32-1.27,3.85,3.85,0,0,0-1.82-.44,3.9,3.9,0,0,0-1.81.43A3.3,3.3,0,0,0,99.25,229a3.84,3.84,0,0,0-.48,2,3.91,3.91,0,0,0,.48,2,3.35,3.35,0,0,0,1.31,1.28,3.79,3.79,0,0,0,1.81.44,3.85,3.85,0,0,0,1.82-.44,3.31,3.31,0,0,0,1.32-1.28,3.87,3.87,0,0,0,.49-2A3.81,3.81,0,0,0,105.51,229Z" transform="translate(0.32 -0.25)"/><path d="M110.79,228.27a4.62,4.62,0,0,1,1.82-1.77,5.39,5.39,0,0,1,2.61-.63,5.23,5.23,0,0,1,2.32.53,4,4,0,0,1,1.63,1.4v-5.22H121V235.9h-1.8V234a4,4,0,0,1-1.56,1.45,4.91,4.91,0,0,1-2.41.57,5.27,5.27,0,0,1-2.59-.65,4.68,4.68,0,0,1-1.82-1.82,5.33,5.33,0,0,1-.66-2.66A5.25,5.25,0,0,1,110.79,228.27Zm7.9.73a3.42,3.42,0,0,0-1.32-1.27,3.85,3.85,0,0,0-1.82-.44,3.94,3.94,0,0,0-1.82.43,3.28,3.28,0,0,0-1.3,1.26,3.74,3.74,0,0,0-.49,2,3.82,3.82,0,0,0,.49,2,3.33,3.33,0,0,0,1.3,1.28,4,4,0,0,0,3.64,0,3.38,3.38,0,0,0,1.32-1.28,3.86,3.86,0,0,0,.48-2A3.81,3.81,0,0,0,118.69,229Z" transform="translate(0.32 -0.25)"/><path d="M125.91,235.43a4.65,4.65,0,0,1-1.91-1.79,5.09,5.09,0,0,1-.7-2.69,5,5,0,0,1,.72-2.68,4.8,4.8,0,0,1,1.93-1.78,6.41,6.41,0,0,1,5.5,0,4.81,4.81,0,0,1,1.94,1.77,5.07,5.07,0,0,1,.71,2.69,4.85,4.85,0,0,1-2.71,4.48,6,6,0,0,1-2.77.63A5.79,5.79,0,0,1,125.91,235.43Zm4.51-1.23a3.22,3.22,0,0,0,1.35-1.24,3.67,3.67,0,0,0,.52-2,3.76,3.76,0,0,0-.51-2,3.24,3.24,0,0,0-1.32-1.23,4,4,0,0,0-1.78-.41,3.92,3.92,0,0,0-1.78.41,3.13,3.13,0,0,0-1.3,1.23,4,4,0,0,0-.48,2,4.09,4.09,0,0,0,.47,2,3.09,3.09,0,0,0,1.28,1.23,3.82,3.82,0,0,0,1.75.41A4,4,0,0,0,130.42,234.2Z" transform="translate(0.32 -0.25)"/><path d="M141.65,228.27a4.55,4.55,0,0,1,1.84-1.77,6.26,6.26,0,0,1,5.94.25,4.21,4.21,0,0,1,1.69,2.45h-1.91a2.61,2.61,0,0,0-1.06-1.42,3.47,3.47,0,0,0-2-.52,3.27,3.27,0,0,0-2.46,1,3.77,3.77,0,0,0-.94,2.73,3.84,3.84,0,0,0,.94,2.75,3.24,3.24,0,0,0,2.46,1,3.57,3.57,0,0,0,1.95-.5,2.66,2.66,0,0,0,1.07-1.44h1.91a4.35,4.35,0,0,1-1.72,2.42,5.41,5.41,0,0,1-3.21.91,5.61,5.61,0,0,1-2.7-.63,4.51,4.51,0,0,1-1.84-1.78,5.74,5.74,0,0,1,0-5.38Z" transform="translate(0.32 -0.25)"/><path d="M155.41,235.43a4.77,4.77,0,0,1-1.91-1.79,5.18,5.18,0,0,1-.69-2.69,5.08,5.08,0,0,1,.71-2.68,4.89,4.89,0,0,1,1.94-1.78,6.41,6.41,0,0,1,5.5,0,4.88,4.88,0,0,1,1.94,1.77,5.07,5.07,0,0,1,.71,2.69,4.85,4.85,0,0,1-2.71,4.48,6,6,0,0,1-2.77.63A5.86,5.86,0,0,1,155.41,235.43Zm4.52-1.23a3.22,3.22,0,0,0,1.35-1.24,3.67,3.67,0,0,0,.52-2,3.76,3.76,0,0,0-.51-2A3.24,3.24,0,0,0,160,227.7a4,4,0,0,0-1.78-.41,3.92,3.92,0,0,0-1.78.41,3.13,3.13,0,0,0-1.3,1.23,4.55,4.55,0,0,0,0,4,3.09,3.09,0,0,0,1.28,1.23,3.82,3.82,0,0,0,1.75.41A4,4,0,0,0,159.93,234.2Z" transform="translate(0.32 -0.25)"/><path d="M174.31,226.94a4,4,0,0,1,1.21,3.14v5.82h-1.75v-5.58a2.76,2.76,0,0,0-3-3,3.06,3.06,0,0,0-2.23.81,3.17,3.17,0,0,0-.83,2.36v5.46H166V226h1.77v1.41a3.34,3.34,0,0,1,1.44-1.17,4.67,4.67,0,0,1,2-.42A4.56,4.56,0,0,1,174.31,226.94Z" transform="translate(0.32 -0.25)"/><path d="M183.63,228.27a4.55,4.55,0,0,1,1.84-1.77,6.26,6.26,0,0,1,5.94.25,4.12,4.12,0,0,1,1.69,2.45h-1.91a2.56,2.56,0,0,0-1.06-1.42,3.47,3.47,0,0,0-2-.52,3.3,3.3,0,0,0-2.46,1,3.76,3.76,0,0,0-.93,2.73,3.83,3.83,0,0,0,.93,2.75,3.27,3.27,0,0,0,2.46,1,3.57,3.57,0,0,0,2-.5,2.56,2.56,0,0,0,1.07-1.44h1.91a4.35,4.35,0,0,1-1.72,2.42,5.37,5.37,0,0,1-3.21.91,5.66,5.66,0,0,1-2.7-.63,4.51,4.51,0,0,1-1.84-1.78,5.74,5.74,0,0,1,0-5.38Z" transform="translate(0.32 -0.25)"/><path d="M195.46,228.27a4.62,4.62,0,0,1,1.82-1.77,5.3,5.3,0,0,1,2.58-.63,5.08,5.08,0,0,1,2.44.56,3.9,3.9,0,0,1,1.54,1.4V226h1.79v9.87h-1.79v-1.84a4,4,0,0,1-1.57,1.43,5,5,0,0,1-2.43.57,5.19,5.19,0,0,1-2.57-.65,4.66,4.66,0,0,1-1.81-1.82,5.33,5.33,0,0,1-.66-2.66A5.25,5.25,0,0,1,195.46,228.27Zm7.89.73a3.33,3.33,0,0,0-1.31-1.27,4,4,0,0,0-3.64,0,3.28,3.28,0,0,0-1.3,1.26,3.74,3.74,0,0,0-.49,2,3.82,3.82,0,0,0,.49,2,3.33,3.33,0,0,0,1.3,1.28,3.81,3.81,0,0,0,1.81.44,3.89,3.89,0,0,0,1.83-.44,3.29,3.29,0,0,0,1.31-1.28,3.77,3.77,0,0,0,.49-2A3.72,3.72,0,0,0,203.35,229Z" transform="translate(0.32 -0.25)"/><path d="M208.63,228.27a4.64,4.64,0,0,1,1.85-1.77,6.26,6.26,0,0,1,5.94.25,4.21,4.21,0,0,1,1.69,2.45H216.2a2.58,2.58,0,0,0-1.07-1.42,3.45,3.45,0,0,0-2-.52,3.26,3.26,0,0,0-2.45,1,3.77,3.77,0,0,0-.94,2.73,3.84,3.84,0,0,0,.94,2.75,3.23,3.23,0,0,0,2.45,1,3.57,3.57,0,0,0,2-.5,2.63,2.63,0,0,0,1.08-1.44h1.91a4.35,4.35,0,0,1-1.72,2.42,5.42,5.42,0,0,1-3.22.91,5.59,5.59,0,0,1-2.69-.63,4.59,4.59,0,0,1-1.85-1.78,5.81,5.81,0,0,1,0-5.38Z" transform="translate(0.32 -0.25)"/><path d="M220.46,228.27a4.65,4.65,0,0,1,1.83-1.77,5.3,5.3,0,0,1,2.58-.63,5.11,5.11,0,0,1,2.44.56,4,4,0,0,1,1.54,1.4V226h1.79v9.87h-1.79v-1.84a4.13,4.13,0,0,1-1.57,1.43,5,5,0,0,1-2.43.57,5.14,5.14,0,0,1-2.57-.65,4.75,4.75,0,0,1-1.82-1.82,5.33,5.33,0,0,1-.66-2.66A5.25,5.25,0,0,1,220.46,228.27Zm7.9.73a3.42,3.42,0,0,0-1.32-1.27,3.85,3.85,0,0,0-1.82-.44,3.9,3.9,0,0,0-1.81.43A3.3,3.3,0,0,0,222.1,229a3.84,3.84,0,0,0-.49,2,3.92,3.92,0,0,0,.49,2,3.35,3.35,0,0,0,1.31,1.28,3.79,3.79,0,0,0,1.81.44,3.85,3.85,0,0,0,1.82-.44,3.38,3.38,0,0,0,1.32-1.28,3.87,3.87,0,0,0,.49-2A3.81,3.81,0,0,0,228.36,229Z" transform="translate(0.32 -0.25)"/><path d="M235.58,235.43a4.71,4.71,0,0,1-1.91-1.79A5.18,5.18,0,0,1,233,231a5,5,0,0,1,.71-2.68,4.77,4.77,0,0,1,1.94-1.78,6.39,6.39,0,0,1,5.49,0,4.81,4.81,0,0,1,1.94,1.77,5,5,0,0,1,.71,2.69,4.93,4.93,0,0,1-.73,2.69,4.87,4.87,0,0,1-2,1.79,6.1,6.1,0,0,1-2.77.63A5.83,5.83,0,0,1,235.58,235.43Zm4.51-1.23a3.31,3.31,0,0,0,1.36-1.24,3.75,3.75,0,0,0,.51-2,3.85,3.85,0,0,0-.5-2,3.21,3.21,0,0,0-1.33-1.23,4.07,4.07,0,0,0-3.56,0,3.05,3.05,0,0,0-1.29,1.23,3.85,3.85,0,0,0-.49,2,4,4,0,0,0,.48,2,3,3,0,0,0,1.27,1.23,3.86,3.86,0,0,0,1.76.41A4,4,0,0,0,240.09,234.2Z" transform="translate(0.32 -0.25)"/><path d="M245.82,235.68a1.05,1.05,0,0,1-.35-.79,1,1,0,0,1,.35-.79,1.22,1.22,0,0,1,.86-.33,1.16,1.16,0,0,1,.83.33,1.07,1.07,0,0,1,.34.79,1.08,1.08,0,0,1-.34.79,1.15,1.15,0,0,1-.83.32A1.21,1.21,0,0,1,245.82,235.68Z" transform="translate(0.32 -0.25)"/><text class="cls-4" transform="translate(54.97 319.32) scale(1.08 1)">$100.00</text><image width="2873" height="3830" transform="translate(675.32 72.75) scale(0.09)" xlink:href="FINAL/imgs/tiramisu.jpg"/></svg>